<?xml version="1.0" encoding="UTF-8" standalone="no"?>
<!DOCTYPE svg PUBLIC "-//W3C//DTD SVG 1.1//EN"
 "http://www.w3.org/Graphics/SVG/1.1/DTD/svg11.dtd">
<!-- Generated by graphviz version 2.38.0 (20140413.2041)
 -->
<!-- Title: Framework/include/QualityControl/CheckInterface.h Pages: 1 -->
<svg width="2190pt" height="173pt"
 viewBox="0.00 0.00 2190.00 173.00" xmlns="http://www.w3.org/2000/svg" xmlns:xlink="http://www.w3.org/1999/xlink">
<g id="graph0" class="graph" transform="scale(1 1) rotate(0) translate(4 169)">
<title>Framework/include/QualityControl/CheckInterface.h</title>
<!-- Node1 -->
<g id="node1" class="node"><title>Node1</title>
<polygon fill="#bfbfbf" stroke="black" points="1431.5,-134.5 1431.5,-164.5 1564.5,-164.5 1564.5,-134.5 1431.5,-134.5"/>
<text text-anchor="start" x="1439.5" y="-152.5" font-family="Helvetica,sans-Serif" font-size="10.00">Framework/include/Quality</text>
<text text-anchor="middle" x="1498" y="-141.5" font-family="Helvetica,sans-Serif" font-size="10.00">Control/CheckInterface.h</text>
</g>
<!-- Node2 -->
<g id="node2" class="node"><title>Node2</title>
<g id="a_node2"><a xlink:href="Checker_8h.html" target="_top" xlink:title="Framework/include/Quality\lControl/Checker.h">
<polygon fill="none" stroke="black" points="616.5,-67.5 616.5,-97.5 749.5,-97.5 749.5,-67.5 616.5,-67.5"/>
<text text-anchor="start" x="624.5" y="-85.5" font-family="Helvetica,sans-Serif" font-size="10.00">Framework/include/Quality</text>
<text text-anchor="middle" x="683" y="-74.5" font-family="Helvetica,sans-Serif" font-size="10.00">Control/Checker.h</text>
</a>
</g>
</g>
<!-- Node1&#45;&gt;Node2 -->
<g id="edge1" class="edge"><title>Node1&#45;&gt;Node2</title>
<path fill="none" stroke="midnightblue" d="M1421.13,-142.37C1262.17,-129.692 899.641,-100.778 749.758,-88.8243"/>
<polygon fill="midnightblue" stroke="midnightblue" points="1421.06,-145.875 1431.31,-143.181 1421.62,-138.897 1421.06,-145.875"/>
</g>
<!-- Node10 -->
<g id="node10" class="node"><title>Node10</title>
<g id="a_node10"><a xlink:href="CheckInterface_8cxx.html" target="_top" xlink:title="Framework/src/CheckInterface.cxx">
<polygon fill="none" stroke="black" points="1019,-73 1019,-92 1189,-92 1189,-73 1019,-73"/>
<text text-anchor="middle" x="1104" y="-80" font-family="Helvetica,sans-Serif" font-size="10.00">Framework/src/CheckInterface.cxx</text>
</a>
</g>
</g>
<!-- Node1&#45;&gt;Node10 -->
<g id="edge9" class="edge"><title>Node1&#45;&gt;Node10</title>
<path fill="none" stroke="midnightblue" d="M1420.87,-135.775C1342.53,-122.852 1223.4,-103.198 1155.73,-92.0349"/>
<polygon fill="midnightblue" stroke="midnightblue" points="1420.73,-139.299 1431.16,-137.474 1421.87,-132.392 1420.73,-139.299"/>
</g>
<!-- Node11 -->
<g id="node11" class="node"><title>Node11</title>
<g id="a_node11"><a xlink:href="testCheckInterface_8cxx.html" target="_top" xlink:title="Framework/test/testCheck\lInterface.cxx">
<polygon fill="none" stroke="black" points="1207.5,-67.5 1207.5,-97.5 1340.5,-97.5 1340.5,-67.5 1207.5,-67.5"/>
<text text-anchor="start" x="1215.5" y="-85.5" font-family="Helvetica,sans-Serif" font-size="10.00">Framework/test/testCheck</text>
<text text-anchor="middle" x="1274" y="-74.5" font-family="Helvetica,sans-Serif" font-size="10.00">Interface.cxx</text>
</a>
</g>
</g>
<!-- Node1&#45;&gt;Node11 -->
<g id="edge10" class="edge"><title>Node1&#45;&gt;Node11</title>
<path fill="none" stroke="midnightblue" d="M1439.69,-131.58C1403.31,-121.022 1357.03,-107.592 1322.63,-97.6109"/>
<polygon fill="midnightblue" stroke="midnightblue" points="1439.09,-135.05 1449.67,-134.476 1441.04,-128.328 1439.09,-135.05"/>
</g>
<!-- Node12 -->
<g id="node12" class="node"><title>Node12</title>
<g id="a_node12"><a xlink:href="MeanIsAbove_8h.html" target="_top" xlink:title="Modules/Common/include\l/Common/MeanIsAbove.h">
<polygon fill="none" stroke="black" points="1358.5,-67.5 1358.5,-97.5 1489.5,-97.5 1489.5,-67.5 1358.5,-67.5"/>
<text text-anchor="start" x="1366.5" y="-85.5" font-family="Helvetica,sans-Serif" font-size="10.00">Modules/Common/include</text>
<text text-anchor="middle" x="1424" y="-74.5" font-family="Helvetica,sans-Serif" font-size="10.00">/Common/MeanIsAbove.h</text>
</a>
</g>
</g>
<!-- Node1&#45;&gt;Node12 -->
<g id="edge11" class="edge"><title>Node1&#45;&gt;Node12</title>
<path fill="none" stroke="midnightblue" d="M1474.2,-127.598C1463.03,-117.783 1450.01,-106.344 1440.03,-97.5765"/>
<polygon fill="midnightblue" stroke="midnightblue" points="1472.12,-130.426 1481.94,-134.396 1476.74,-125.167 1472.12,-130.426"/>
</g>
<!-- Node15 -->
<g id="node15" class="node"><title>Node15</title>
<g id="a_node15"><a xlink:href="NonEmpty_8h.html" target="_top" xlink:title="Modules/Common/include\l/Common/NonEmpty.h">
<polygon fill="none" stroke="black" points="1508,-67.5 1508,-97.5 1638,-97.5 1638,-67.5 1508,-67.5"/>
<text text-anchor="start" x="1516" y="-85.5" font-family="Helvetica,sans-Serif" font-size="10.00">Modules/Common/include</text>
<text text-anchor="middle" x="1573" y="-74.5" font-family="Helvetica,sans-Serif" font-size="10.00">/Common/NonEmpty.h</text>
</a>
</g>
</g>
<!-- Node1&#45;&gt;Node15 -->
<g id="edge14" class="edge"><title>Node1&#45;&gt;Node15</title>
<path fill="none" stroke="midnightblue" d="M1522.12,-127.598C1533.44,-117.783 1546.64,-106.344 1556.76,-97.5765"/>
<polygon fill="midnightblue" stroke="midnightblue" points="1519.54,-125.202 1514.27,-134.396 1524.12,-130.492 1519.54,-125.202"/>
</g>
<!-- Node18 -->
<g id="node18" class="node"><title>Node18</title>
<g id="a_node18"><a xlink:href="EverIncreasingGraph_8h.html" target="_top" xlink:title="Modules/Daq/include\l/Daq/EverIncreasingGraph.h">
<polygon fill="none" stroke="black" points="1668,-67.5 1668,-97.5 1808,-97.5 1808,-67.5 1668,-67.5"/>
<text text-anchor="start" x="1676" y="-85.5" font-family="Helvetica,sans-Serif" font-size="10.00">Modules/Daq/include</text>
<text text-anchor="middle" x="1738" y="-74.5" font-family="Helvetica,sans-Serif" font-size="10.00">/Daq/EverIncreasingGraph.h</text>
</a>
</g>
</g>
<!-- Node1&#45;&gt;Node18 -->
<g id="edge17" class="edge"><title>Node1&#45;&gt;Node18</title>
<path fill="none" stroke="midnightblue" d="M1559.48,-131.85C1598.61,-121.252 1648.73,-107.677 1685.9,-97.6109"/>
<polygon fill="midnightblue" stroke="midnightblue" points="1558.52,-128.483 1549.78,-134.476 1560.35,-135.24 1558.52,-128.483"/>
</g>
<!-- Node20 -->
<g id="node20" class="node"><title>Node20</title>
<g id="a_node20"><a xlink:href="FakeCheck_8h.html" target="_top" xlink:title="Modules/Example/include\l/Example/FakeCheck.h">
<polygon fill="none" stroke="black" points="1851,-67.5 1851,-97.5 1979,-97.5 1979,-67.5 1851,-67.5"/>
<text text-anchor="start" x="1859" y="-85.5" font-family="Helvetica,sans-Serif" font-size="10.00">Modules/Example/include</text>
<text text-anchor="middle" x="1915" y="-74.5" font-family="Helvetica,sans-Serif" font-size="10.00">/Example/FakeCheck.h</text>
</a>
</g>
</g>
<!-- Node1&#45;&gt;Node20 -->
<g id="edge19" class="edge"><title>Node1&#45;&gt;Node20</title>
<path fill="none" stroke="midnightblue" d="M1574.46,-136.581C1653.75,-124.223 1776.31,-105.118 1850.76,-93.5141"/>
<polygon fill="midnightblue" stroke="midnightblue" points="1573.88,-133.13 1564.54,-138.129 1574.96,-140.047 1573.88,-133.13"/>
</g>
<!-- Node22 -->
<g id="node22" class="node"><title>Node22</title>
<g id="a_node22"><a xlink:href="SkeletonCheck_8h.html" target="_top" xlink:title="Modules/Skeleton/include\l/Skeleton/SkeletonCheck.h">
<polygon fill="none" stroke="black" points="2046,-67.5 2046,-97.5 2182,-97.5 2182,-67.5 2046,-67.5"/>
<text text-anchor="start" x="2054" y="-85.5" font-family="Helvetica,sans-Serif" font-size="10.00">Modules/Skeleton/include</text>
<text text-anchor="middle" x="2114" y="-74.5" font-family="Helvetica,sans-Serif" font-size="10.00">/Skeleton/SkeletonCheck.h</text>
</a>
</g>
</g>
<!-- Node1&#45;&gt;Node22 -->
<g id="edge21" class="edge"><title>Node1&#45;&gt;Node22</title>
<path fill="none" stroke="midnightblue" d="M1574.56,-140.894C1671.01,-131.246 1841.84,-113.941 1988,-98 2006.72,-95.9588 2026.98,-93.6636 2045.68,-91.5118"/>
<polygon fill="midnightblue" stroke="midnightblue" points="1574.2,-137.412 1564.6,-141.889 1574.9,-144.377 1574.2,-137.412"/>
</g>
<!-- Node3 -->
<g id="node3" class="node"><title>Node3</title>
<g id="a_node3"><a xlink:href="Checker_8cxx.html" target="_top" xlink:title="Framework/src/Checker.cxx">
<polygon fill="none" stroke="black" points="0,-6 0,-25 140,-25 140,-6 0,-6"/>
<text text-anchor="middle" x="70" y="-13" font-family="Helvetica,sans-Serif" font-size="10.00">Framework/src/Checker.cxx</text>
</a>
</g>
</g>
<!-- Node2&#45;&gt;Node3 -->
<g id="edge2" class="edge"><title>Node2&#45;&gt;Node3</title>
<path fill="none" stroke="midnightblue" d="M606.089,-76.3437C502.1,-68.8895 311.017,-53.4859 149,-31 137.122,-29.3514 124.309,-27.1741 112.529,-25.0094"/>
<polygon fill="midnightblue" stroke="midnightblue" points="605.96,-79.8433 616.183,-77.0619 606.457,-72.861 605.96,-79.8433"/>
</g>
<!-- Node4 -->
<g id="node4" class="node"><title>Node4</title>
<g id="a_node4"><a xlink:href="CheckerFactory_8cxx.html" target="_top" xlink:title="Framework/src/CheckerFactory.cxx">
<polygon fill="none" stroke="black" points="158.5,-6 158.5,-25 331.5,-25 331.5,-6 158.5,-6"/>
<text text-anchor="middle" x="245" y="-13" font-family="Helvetica,sans-Serif" font-size="10.00">Framework/src/CheckerFactory.cxx</text>
</a>
</g>
</g>
<!-- Node2&#45;&gt;Node4 -->
<g id="edge3" class="edge"><title>Node2&#45;&gt;Node4</title>
<path fill="none" stroke="midnightblue" d="M606.505,-70.2786C537.187,-60.0924 432.232,-44.6256 341,-31 328.08,-29.0704 314.185,-26.9802 301.088,-25.0035"/>
<polygon fill="midnightblue" stroke="midnightblue" points="606.065,-73.7514 616.468,-71.7423 607.083,-66.8258 606.065,-73.7514"/>
</g>
<!-- Node5 -->
<g id="node5" class="node"><title>Node5</title>
<g id="a_node5"><a xlink:href="runBasic_8cxx.html" target="_top" xlink:title="This is an executable showing QC Task&#39;s usage in Data Processing Layer. ">
<polygon fill="none" stroke="black" points="350,-6 350,-25 492,-25 492,-6 350,-6"/>
<text text-anchor="middle" x="421" y="-13" font-family="Helvetica,sans-Serif" font-size="10.00">Framework/src/runBasic.cxx</text>
</a>
</g>
</g>
<!-- Node2&#45;&gt;Node5 -->
<g id="edge4" class="edge"><title>Node2&#45;&gt;Node5</title>
<path fill="none" stroke="midnightblue" d="M616.452,-64.9899C565.106,-52.2516 496.167,-35.1484 455.377,-25.0287"/>
<polygon fill="midnightblue" stroke="midnightblue" points="615.924,-68.465 626.472,-67.476 617.609,-61.671 615.924,-68.465"/>
</g>
<!-- Node6 -->
<g id="node6" class="node"><title>Node6</title>
<g id="a_node6"><a xlink:href="runMergerTest_8cxx.html" target="_top" xlink:title="This is DPL workflow to see HistoMerger in action. ">
<polygon fill="none" stroke="black" points="510.5,-6 510.5,-25 677.5,-25 677.5,-6 510.5,-6"/>
<text text-anchor="middle" x="594" y="-13" font-family="Helvetica,sans-Serif" font-size="10.00">Framework/src/runMergerTest.cxx</text>
</a>
</g>
</g>
<!-- Node2&#45;&gt;Node6 -->
<g id="edge5" class="edge"><title>Node2&#45;&gt;Node6</title>
<path fill="none" stroke="midnightblue" d="M655.349,-61.3056C638.637,-49.0999 618.204,-34.1772 605.648,-25.007"/>
<polygon fill="midnightblue" stroke="midnightblue" points="653.548,-64.3245 663.688,-67.396 657.677,-58.6716 653.548,-64.3245"/>
</g>
<!-- Node7 -->
<g id="node7" class="node"><title>Node7</title>
<g id="a_node7"><a xlink:href="runReadout_8cxx.html" target="_top" xlink:title="This is an executable showing QC Task&#39;s usage in Data Processing Layer with Readout as external data ...">
<polygon fill="none" stroke="black" points="696,-6 696,-25 850,-25 850,-6 696,-6"/>
<text text-anchor="middle" x="773" y="-13" font-family="Helvetica,sans-Serif" font-size="10.00">Framework/src/runReadout.cxx</text>
</a>
</g>
</g>
<!-- Node2&#45;&gt;Node7 -->
<g id="edge6" class="edge"><title>Node2&#45;&gt;Node7</title>
<path fill="none" stroke="midnightblue" d="M710.961,-61.3056C727.862,-49.0999 748.524,-34.1772 761.221,-25.007"/>
<polygon fill="midnightblue" stroke="midnightblue" points="708.586,-58.7036 702.529,-67.396 712.685,-64.3784 708.586,-58.7036"/>
</g>
<!-- Node8 -->
<g id="node8" class="node"><title>Node8</title>
<g id="a_node8"><a xlink:href="testChecker_8cxx.html" target="_top" xlink:title="Framework/test/testChecker.cxx">
<polygon fill="none" stroke="black" points="868,-6 868,-25 1028,-25 1028,-6 868,-6"/>
<text text-anchor="middle" x="948" y="-13" font-family="Helvetica,sans-Serif" font-size="10.00">Framework/test/testChecker.cxx</text>
</a>
</g>
</g>
<!-- Node2&#45;&gt;Node8 -->
<g id="edge7" class="edge"><title>Node2&#45;&gt;Node8</title>
<path fill="none" stroke="midnightblue" d="M749.986,-65.0694C801.953,-52.3228 871.886,-35.1694 913.229,-25.0287"/>
<polygon fill="midnightblue" stroke="midnightblue" points="749.053,-61.6945 740.175,-67.476 750.721,-68.4929 749.053,-61.6945"/>
</g>
<!-- Node9 -->
<g id="node9" class="node"><title>Node9</title>
<g id="a_node9"><a xlink:href="testWorkflow_8cxx.html" target="_top" xlink:title="Framework/test/testWorkflow.cxx">
<polygon fill="none" stroke="black" points="1046,-6 1046,-25 1210,-25 1210,-6 1046,-6"/>
<text text-anchor="middle" x="1128" y="-13" font-family="Helvetica,sans-Serif" font-size="10.00">Framework/test/testWorkflow.cxx</text>
</a>
</g>
</g>
<!-- Node2&#45;&gt;Node9 -->
<g id="edge8" class="edge"><title>Node2&#45;&gt;Node9</title>
<path fill="none" stroke="midnightblue" d="M759.898,-70.8985C831.641,-60.9203 941.633,-45.3992 1037,-31 1049.5,-29.1132 1062.95,-27.01 1075.57,-25.0037"/>
<polygon fill="midnightblue" stroke="midnightblue" points="759.02,-67.4868 749.597,-72.3297 759.984,-74.4202 759.02,-67.4868"/>
</g>
<!-- Node13 -->
<g id="node13" class="node"><title>Node13</title>
<g id="a_node13"><a xlink:href="MeanIsAbove_8cxx.html" target="_top" xlink:title="Modules/Common/src\l/MeanIsAbove.cxx">
<polygon fill="none" stroke="black" points="1228.5,-0.5 1228.5,-30.5 1341.5,-30.5 1341.5,-0.5 1228.5,-0.5"/>
<text text-anchor="start" x="1236.5" y="-18.5" font-family="Helvetica,sans-Serif" font-size="10.00">Modules/Common/src</text>
<text text-anchor="middle" x="1285" y="-7.5" font-family="Helvetica,sans-Serif" font-size="10.00">/MeanIsAbove.cxx</text>
</a>
</g>
</g>
<!-- Node12&#45;&gt;Node13 -->
<g id="edge12" class="edge"><title>Node12&#45;&gt;Node13</title>
<path fill="none" stroke="midnightblue" d="M1384.72,-63.1305C1362.63,-52.8025 1335.49,-40.1103 1315.1,-30.5765"/>
<polygon fill="midnightblue" stroke="midnightblue" points="1383.3,-66.3304 1393.84,-67.396 1386.26,-59.9894 1383.3,-66.3304"/>
</g>
<!-- Node14 -->
<g id="node14" class="node"><title>Node14</title>
<polygon fill="none" stroke="#bfbfbf" points="1360,-0.5 1360,-30.5 1476,-30.5 1476,-0.5 1360,-0.5"/>
<text text-anchor="start" x="1368" y="-18.5" font-family="Helvetica,sans-Serif" font-size="10.00">Modules/Common/test</text>
<text text-anchor="middle" x="1418" y="-7.5" font-family="Helvetica,sans-Serif" font-size="10.00">/testMeanIsAbove.cxx</text>
</g>
<!-- Node12&#45;&gt;Node14 -->
<g id="edge13" class="edge"><title>Node12&#45;&gt;Node14</title>
<path fill="none" stroke="midnightblue" d="M1421.78,-57.4029C1420.94,-48.3703 1420.02,-38.4078 1419.3,-30.5765"/>
<polygon fill="midnightblue" stroke="midnightblue" points="1418.29,-57.76 1422.7,-67.396 1425.26,-57.1166 1418.29,-57.76"/>
</g>
<!-- Node16 -->
<g id="node16" class="node"><title>Node16</title>
<g id="a_node16"><a xlink:href="NonEmpty_8cxx.html" target="_top" xlink:title="Modules/Common/src\l/NonEmpty.cxx">
<polygon fill="none" stroke="black" points="1494.5,-0.5 1494.5,-30.5 1607.5,-30.5 1607.5,-0.5 1494.5,-0.5"/>
<text text-anchor="start" x="1502.5" y="-18.5" font-family="Helvetica,sans-Serif" font-size="10.00">Modules/Common/src</text>
<text text-anchor="middle" x="1551" y="-7.5" font-family="Helvetica,sans-Serif" font-size="10.00">/NonEmpty.cxx</text>
</a>
</g>
</g>
<!-- Node15&#45;&gt;Node16 -->
<g id="edge15" class="edge"><title>Node15&#45;&gt;Node16</title>
<path fill="none" stroke="midnightblue" d="M1564.94,-57.6971C1561.86,-48.5871 1558.44,-38.4929 1555.76,-30.5765"/>
<polygon fill="midnightblue" stroke="midnightblue" points="1561.71,-59.0459 1568.23,-67.396 1568.34,-56.8017 1561.71,-59.0459"/>
</g>
<!-- Node17 -->
<g id="node17" class="node"><title>Node17</title>
<g id="a_node17"><a xlink:href="testNonEmpty_8cxx.html" target="_top" xlink:title="Modules/Common/test\l/testNonEmpty.cxx">
<polygon fill="none" stroke="black" points="1626,-0.5 1626,-30.5 1742,-30.5 1742,-0.5 1626,-0.5"/>
<text text-anchor="start" x="1634" y="-18.5" font-family="Helvetica,sans-Serif" font-size="10.00">Modules/Common/test</text>
<text text-anchor="middle" x="1684" y="-7.5" font-family="Helvetica,sans-Serif" font-size="10.00">/testNonEmpty.cxx</text>
</a>
</g>
</g>
<!-- Node15&#45;&gt;Node17 -->
<g id="edge16" class="edge"><title>Node15&#45;&gt;Node17</title>
<path fill="none" stroke="midnightblue" d="M1605.8,-62.2956C1623.16,-52.1248 1644.12,-39.8549 1659.96,-30.5765"/>
<polygon fill="midnightblue" stroke="midnightblue" points="1603.95,-59.3224 1597.09,-67.396 1607.48,-65.363 1603.95,-59.3224"/>
</g>
<!-- Node19 -->
<g id="node19" class="node"><title>Node19</title>
<g id="a_node19"><a xlink:href="EverIncreasingGraph_8cxx.html" target="_top" xlink:title="Modules/Daq/src/EverIncreasing\lGraph.cxx">
<polygon fill="none" stroke="black" points="1759.5,-0.5 1759.5,-30.5 1918.5,-30.5 1918.5,-0.5 1759.5,-0.5"/>
<text text-anchor="start" x="1767.5" y="-18.5" font-family="Helvetica,sans-Serif" font-size="10.00">Modules/Daq/src/EverIncreasing</text>
<text text-anchor="middle" x="1839" y="-7.5" font-family="Helvetica,sans-Serif" font-size="10.00">Graph.cxx</text>
</a>
</g>
</g>
<!-- Node18&#45;&gt;Node19 -->
<g id="edge18" class="edge"><title>Node18&#45;&gt;Node19</title>
<path fill="none" stroke="midnightblue" d="M1768.71,-61.7337C1784.34,-51.6755 1802.97,-39.6847 1817.13,-30.5765"/>
<polygon fill="midnightblue" stroke="midnightblue" points="1766.43,-59.041 1759.92,-67.396 1770.22,-64.9273 1766.43,-59.041"/>
</g>
<!-- Node21 -->
<g id="node21" class="node"><title>Node21</title>
<g id="a_node21"><a xlink:href="FakeCheck_8cxx.html" target="_top" xlink:title="Modules/Example/src\l/FakeCheck.cxx">
<polygon fill="none" stroke="black" points="1936.5,-0.5 1936.5,-30.5 2047.5,-30.5 2047.5,-0.5 1936.5,-0.5"/>
<text text-anchor="start" x="1944.5" y="-18.5" font-family="Helvetica,sans-Serif" font-size="10.00">Modules/Example/src</text>
<text text-anchor="middle" x="1992" y="-7.5" font-family="Helvetica,sans-Serif" font-size="10.00">/FakeCheck.cxx</text>
</a>
</g>
</g>
<!-- Node20&#45;&gt;Node21 -->
<g id="edge20" class="edge"><title>Node20&#45;&gt;Node21</title>
<path fill="none" stroke="midnightblue" d="M1939.42,-60.8832C1951.12,-51.0054 1964.84,-39.4293 1975.32,-30.5765"/>
<polygon fill="midnightblue" stroke="midnightblue" points="1937.09,-58.2709 1931.71,-67.396 1941.61,-63.6199 1937.09,-58.2709"/>
</g>
<!-- Node23 -->
<g id="node23" class="node"><title>Node23</title>
<g id="a_node23"><a xlink:href="SkeletonCheck_8cxx.html" target="_top" xlink:title="Modules/Skeleton/src\l/SkeletonCheck.cxx">
<polygon fill="none" stroke="black" points="2065.5,-0.5 2065.5,-30.5 2176.5,-30.5 2176.5,-0.5 2065.5,-0.5"/>
<text text-anchor="start" x="2073.5" y="-18.5" font-family="Helvetica,sans-Serif" font-size="10.00">Modules/Skeleton/src</text>
<text text-anchor="middle" x="2121" y="-7.5" font-family="Helvetica,sans-Serif" font-size="10.00">/SkeletonCheck.cxx</text>
</a>
</g>
</g>
<!-- Node22&#45;&gt;Node23 -->
<g id="edge22" class="edge"><title>Node22&#45;&gt;Node23</title>
<path fill="none" stroke="midnightblue" d="M2116.6,-57.4029C2117.57,-48.3703 2118.64,-38.4078 2119.48,-30.5765"/>
<polygon fill="midnightblue" stroke="midnightblue" points="2113.11,-57.0787 2115.52,-67.396 2120.07,-57.8282 2113.11,-57.0787"/>
</g>
</g>
</svg>
