<?xml version="1.0" encoding="UTF-8" standalone="no"?>
<!DOCTYPE svg PUBLIC "-//W3C//DTD SVG 1.1//EN"
 "http://www.w3.org/Graphics/SVG/1.1/DTD/svg11.dtd">
<!-- Generated by graphviz version 2.38.0 (20140413.2041)
 -->
<!-- Title: Framework/include/QualityControl/Checker.h Pages: 1 -->
<svg width="1218pt" height="95pt"
 viewBox="0.00 0.00 1218.00 95.00" xmlns="http://www.w3.org/2000/svg" xmlns:xlink="http://www.w3.org/1999/xlink">
<g id="graph0" class="graph" transform="scale(1 1) rotate(0) translate(4 91)">
<title>Framework/include/QualityControl/Checker.h</title>
<!-- Node1 -->
<g id="node1" class="node"><title>Node1</title>
<polygon fill="#bfbfbf" stroke="black" points="527.5,-56.5 527.5,-86.5 660.5,-86.5 660.5,-56.5 527.5,-56.5"/>
<text text-anchor="start" x="535.5" y="-74.5" font-family="Helvetica,sans-Serif" font-size="10.00">Framework/include/Quality</text>
<text text-anchor="middle" x="594" y="-63.5" font-family="Helvetica,sans-Serif" font-size="10.00">Control/Checker.h</text>
</g>
<!-- Node2 -->
<g id="node2" class="node"><title>Node2</title>
<g id="a_node2"><a xlink:href="Checker_8cxx.html" target="_top" xlink:title="Framework/src/Checker.cxx">
<polygon fill="none" stroke="black" points="0,-0.5 0,-19.5 140,-19.5 140,-0.5 0,-0.5"/>
<text text-anchor="middle" x="70" y="-7.5" font-family="Helvetica,sans-Serif" font-size="10.00">Framework/src/Checker.cxx</text>
</a>
</g>
</g>
<!-- Node1&#45;&gt;Node2 -->
<g id="edge1" class="edge"><title>Node1&#45;&gt;Node2</title>
<path fill="none" stroke="midnightblue" d="M517.304,-61.8066C428.62,-51.7519 278.249,-34.6961 149,-20 146.12,-19.6725 143.18,-19.3382 140.211,-19.0003"/>
<polygon fill="midnightblue" stroke="midnightblue" points="516.948,-65.2885 527.278,-62.9374 517.736,-58.3331 516.948,-65.2885"/>
</g>
<!-- Node3 -->
<g id="node3" class="node"><title>Node3</title>
<g id="a_node3"><a xlink:href="CheckerFactory_8cxx.html" target="_top" xlink:title="Framework/src/CheckerFactory.cxx">
<polygon fill="none" stroke="black" points="158.5,-0.5 158.5,-19.5 331.5,-19.5 331.5,-0.5 158.5,-0.5"/>
<text text-anchor="middle" x="245" y="-7.5" font-family="Helvetica,sans-Serif" font-size="10.00">Framework/src/CheckerFactory.cxx</text>
</a>
</g>
</g>
<!-- Node1&#45;&gt;Node3 -->
<g id="edge2" class="edge"><title>Node1&#45;&gt;Node3</title>
<path fill="none" stroke="midnightblue" d="M516.947,-57.3634C449.342,-45.8376 353.014,-29.4149 294.998,-19.5241"/>
<polygon fill="midnightblue" stroke="midnightblue" points="516.676,-60.8677 527.122,-59.0982 517.853,-53.9673 516.676,-60.8677"/>
</g>
<!-- Node4 -->
<g id="node4" class="node"><title>Node4</title>
<g id="a_node4"><a xlink:href="runBasic_8cxx.html" target="_top" xlink:title="This is an executable showing QC Task&#39;s usage in Data Processing Layer. ">
<polygon fill="none" stroke="black" points="350,-0.5 350,-19.5 492,-19.5 492,-0.5 350,-0.5"/>
<text text-anchor="middle" x="421" y="-7.5" font-family="Helvetica,sans-Serif" font-size="10.00">Framework/src/runBasic.cxx</text>
</a>
</g>
</g>
<!-- Node1&#45;&gt;Node4 -->
<g id="edge3" class="edge"><title>Node1&#45;&gt;Node4</title>
<path fill="none" stroke="midnightblue" d="M543.337,-53.0756C511.292,-42.0543 471.276,-28.2914 445.92,-19.5709"/>
<polygon fill="midnightblue" stroke="midnightblue" points="542.407,-56.4567 553.001,-56.3993 544.683,-49.8372 542.407,-56.4567"/>
</g>
<!-- Node5 -->
<g id="node5" class="node"><title>Node5</title>
<g id="a_node5"><a xlink:href="runMergerTest_8cxx.html" target="_top" xlink:title="This is DPL workflow to see HistoMerger in action. ">
<polygon fill="none" stroke="black" points="510.5,-0.5 510.5,-19.5 677.5,-19.5 677.5,-0.5 510.5,-0.5"/>
<text text-anchor="middle" x="594" y="-7.5" font-family="Helvetica,sans-Serif" font-size="10.00">Framework/src/runMergerTest.cxx</text>
</a>
</g>
</g>
<!-- Node1&#45;&gt;Node5 -->
<g id="edge4" class="edge"><title>Node1&#45;&gt;Node5</title>
<path fill="none" stroke="midnightblue" d="M594,-46.2892C594,-36.857 594,-26.6548 594,-19.6578"/>
<polygon fill="midnightblue" stroke="midnightblue" points="590.5,-46.3993 594,-56.3993 597.5,-46.3994 590.5,-46.3993"/>
</g>
<!-- Node6 -->
<g id="node6" class="node"><title>Node6</title>
<g id="a_node6"><a xlink:href="runReadout_8cxx.html" target="_top" xlink:title="This is an executable showing QC Task&#39;s usage in Data Processing Layer with Readout as external data ...">
<polygon fill="none" stroke="black" points="696,-0.5 696,-19.5 850,-19.5 850,-0.5 696,-0.5"/>
<text text-anchor="middle" x="773" y="-7.5" font-family="Helvetica,sans-Serif" font-size="10.00">Framework/src/runReadout.cxx</text>
</a>
</g>
</g>
<!-- Node1&#45;&gt;Node6 -->
<g id="edge5" class="edge"><title>Node1&#45;&gt;Node6</title>
<path fill="none" stroke="midnightblue" d="M645.991,-53.2179C679.219,-42.173 720.868,-28.3289 747.215,-19.5709"/>
<polygon fill="midnightblue" stroke="midnightblue" points="644.806,-49.9236 636.421,-56.3993 647.014,-56.5663 644.806,-49.9236"/>
</g>
<!-- Node7 -->
<g id="node7" class="node"><title>Node7</title>
<g id="a_node7"><a xlink:href="testChecker_8cxx.html" target="_top" xlink:title="Framework/test/testChecker.cxx">
<polygon fill="none" stroke="black" points="868,-0.5 868,-19.5 1028,-19.5 1028,-0.5 868,-0.5"/>
<text text-anchor="middle" x="948" y="-7.5" font-family="Helvetica,sans-Serif" font-size="10.00">Framework/test/testChecker.cxx</text>
</a>
</g>
</g>
<!-- Node1&#45;&gt;Node7 -->
<g id="edge6" class="edge"><title>Node1&#45;&gt;Node7</title>
<path fill="none" stroke="midnightblue" d="M670.481,-57.6452C739.091,-46.1133 837.845,-29.5148 897.183,-19.5412"/>
<polygon fill="midnightblue" stroke="midnightblue" points="669.866,-54.1993 660.585,-59.3085 671.027,-61.1025 669.866,-54.1993"/>
</g>
<!-- Node8 -->
<g id="node8" class="node"><title>Node8</title>
<g id="a_node8"><a xlink:href="testWorkflow_8cxx.html" target="_top" xlink:title="Framework/test/testWorkflow.cxx">
<polygon fill="none" stroke="black" points="1046,-0.5 1046,-19.5 1210,-19.5 1210,-0.5 1046,-0.5"/>
<text text-anchor="middle" x="1128" y="-7.5" font-family="Helvetica,sans-Serif" font-size="10.00">Framework/test/testWorkflow.cxx</text>
</a>
</g>
</g>
<!-- Node1&#45;&gt;Node8 -->
<g id="edge7" class="edge"><title>Node1&#45;&gt;Node8</title>
<path fill="none" stroke="midnightblue" d="M670.735,-61.95C772.254,-50.6383 950.153,-30.8163 1051.54,-19.5198"/>
<polygon fill="midnightblue" stroke="midnightblue" points="670.103,-58.4986 660.552,-63.0846 670.878,-65.4556 670.103,-58.4986"/>
</g>
</g>
</svg>
