<?xml version="1.0" encoding="UTF-8" standalone="no"?>
<!DOCTYPE svg PUBLIC "-//W3C//DTD SVG 1.1//EN"
 "http://www.w3.org/Graphics/SVG/1.1/DTD/svg11.dtd">
<!-- Generated by graphviz version 2.38.0 (20140413.2041)
 -->
<!-- Title: Framework/include/QualityControl/DatabaseInterface.h Pages: 1 -->
<svg width="2640pt" height="240pt"
 viewBox="0.00 0.00 2639.50 240.00" xmlns="http://www.w3.org/2000/svg" xmlns:xlink="http://www.w3.org/1999/xlink">
<g id="graph0" class="graph" transform="scale(1 1) rotate(0) translate(4 236)">
<title>Framework/include/QualityControl/DatabaseInterface.h</title>
<!-- Node1 -->
<g id="node1" class="node"><title>Node1</title>
<polygon fill="#bfbfbf" stroke="black" points="1295,-201.5 1295,-231.5 1435,-231.5 1435,-201.5 1295,-201.5"/>
<text text-anchor="start" x="1303" y="-219.5" font-family="Helvetica,sans-Serif" font-size="10.00">Framework/include/Quality</text>
<text text-anchor="middle" x="1365" y="-208.5" font-family="Helvetica,sans-Serif" font-size="10.00">Control/DatabaseInterface.h</text>
</g>
<!-- Node2 -->
<g id="node2" class="node"><title>Node2</title>
<g id="a_node2"><a xlink:href="CcdbDatabase_8h.html" target="_top" xlink:title="Framework/include/Quality\lControl/CcdbDatabase.h">
<polygon fill="none" stroke="black" points="525.5,-134.5 525.5,-164.5 658.5,-164.5 658.5,-134.5 525.5,-134.5"/>
<text text-anchor="start" x="533.5" y="-152.5" font-family="Helvetica,sans-Serif" font-size="10.00">Framework/include/Quality</text>
<text text-anchor="middle" x="592" y="-141.5" font-family="Helvetica,sans-Serif" font-size="10.00">Control/CcdbDatabase.h</text>
</a>
</g>
</g>
<!-- Node1&#45;&gt;Node2 -->
<g id="edge1" class="edge"><title>Node1&#45;&gt;Node2</title>
<path fill="none" stroke="midnightblue" d="M1284.42,-208.724C1131.18,-195.838 800.433,-168.027 658.693,-156.108"/>
<polygon fill="midnightblue" stroke="midnightblue" points="1284.44,-212.238 1294.7,-209.588 1285.02,-205.263 1284.44,-212.238"/>
</g>
<!-- Node11 -->
<g id="node11" class="node"><title>Node11</title>
<g id="a_node11"><a xlink:href="Checker_8h.html" target="_top" xlink:title="Framework/include/Quality\lControl/Checker.h">
<polygon fill="none" stroke="black" points="1670.5,-134.5 1670.5,-164.5 1803.5,-164.5 1803.5,-134.5 1670.5,-134.5"/>
<text text-anchor="start" x="1678.5" y="-152.5" font-family="Helvetica,sans-Serif" font-size="10.00">Framework/include/Quality</text>
<text text-anchor="middle" x="1737" y="-141.5" font-family="Helvetica,sans-Serif" font-size="10.00">Control/Checker.h</text>
</a>
</g>
</g>
<!-- Node1&#45;&gt;Node11 -->
<g id="edge11" class="edge"><title>Node1&#45;&gt;Node11</title>
<path fill="none" stroke="midnightblue" d="M1445.53,-201.429C1512.71,-189.69 1607.32,-173.159 1670.32,-162.151"/>
<polygon fill="midnightblue" stroke="midnightblue" points="1444.66,-198.029 1435.41,-203.198 1445.86,-204.924 1444.66,-198.029"/>
</g>
<!-- Node19 -->
<g id="node19" class="node"><title>Node19</title>
<g id="a_node19"><a xlink:href="DatabaseFactory_8h.html" target="_top" xlink:title="Framework/include/Quality\lControl/DatabaseFactory.h">
<polygon fill="none" stroke="black" points="1013,-134.5 1013,-164.5 1147,-164.5 1147,-134.5 1013,-134.5"/>
<text text-anchor="start" x="1021" y="-152.5" font-family="Helvetica,sans-Serif" font-size="10.00">Framework/include/Quality</text>
<text text-anchor="middle" x="1080" y="-141.5" font-family="Helvetica,sans-Serif" font-size="10.00">Control/DatabaseFactory.h</text>
</a>
</g>
</g>
<!-- Node1&#45;&gt;Node19 -->
<g id="edge19" class="edge"><title>Node1&#45;&gt;Node19</title>
<path fill="none" stroke="midnightblue" d="M1293.47,-199.186C1246.79,-188.54 1186.48,-174.784 1141.87,-164.611"/>
<polygon fill="midnightblue" stroke="midnightblue" points="1292.98,-202.665 1303.51,-201.476 1294.54,-195.84 1292.98,-202.665"/>
</g>
<!-- Node20 -->
<g id="node20" class="node"><title>Node20</title>
<g id="a_node20"><a xlink:href="MySqlDatabase_8h.html" target="_top" xlink:title="Framework/include/Quality\lControl/MySqlDatabase.h">
<polygon fill="none" stroke="black" points="2192.5,-134.5 2192.5,-164.5 2325.5,-164.5 2325.5,-134.5 2192.5,-134.5"/>
<text text-anchor="start" x="2200.5" y="-152.5" font-family="Helvetica,sans-Serif" font-size="10.00">Framework/include/Quality</text>
<text text-anchor="middle" x="2259" y="-141.5" font-family="Helvetica,sans-Serif" font-size="10.00">Control/MySqlDatabase.h</text>
</a>
</g>
</g>
<!-- Node1&#45;&gt;Node20 -->
<g id="edge26" class="edge"><title>Node1&#45;&gt;Node20</title>
<path fill="none" stroke="midnightblue" d="M1445.29,-209.662C1619.77,-196.976 2030.78,-167.093 2192.23,-155.355"/>
<polygon fill="midnightblue" stroke="midnightblue" points="1444.87,-206.184 1435.15,-210.4 1445.38,-213.165 1444.87,-206.184"/>
</g>
<!-- Node3 -->
<g id="node3" class="node"><title>Node3</title>
<g id="a_node3"><a xlink:href="CcdbDatabase_8cxx.html" target="_top" xlink:title="Framework/src/CcdbDatabase.cxx">
<polygon fill="none" stroke="black" points="225.5,-73 225.5,-92 394.5,-92 394.5,-73 225.5,-73"/>
<text text-anchor="middle" x="310" y="-80" font-family="Helvetica,sans-Serif" font-size="10.00">Framework/src/CcdbDatabase.cxx</text>
</a>
</g>
</g>
<!-- Node2&#45;&gt;Node3 -->
<g id="edge2" class="edge"><title>Node2&#45;&gt;Node3</title>
<path fill="none" stroke="midnightblue" d="M521.405,-132.228C466.035,-119.466 391.18,-102.212 347.001,-92.0287"/>
<polygon fill="midnightblue" stroke="midnightblue" points="520.627,-135.64 531.157,-134.476 522.199,-128.819 520.627,-135.64"/>
</g>
<!-- Node4 -->
<g id="node4" class="node"><title>Node4</title>
<g id="a_node4"><a xlink:href="DatabaseFactory_8cxx.html" target="_top" xlink:title="Framework/src/DatabaseFactory.cxx">
<polygon fill="none" stroke="black" points="788.5,-73 788.5,-92 967.5,-92 967.5,-73 788.5,-73"/>
<text text-anchor="middle" x="878" y="-80" font-family="Helvetica,sans-Serif" font-size="10.00">Framework/src/DatabaseFactory.cxx</text>
</a>
</g>
</g>
<!-- Node2&#45;&gt;Node4 -->
<g id="edge3" class="edge"><title>Node2&#45;&gt;Node4</title>
<path fill="none" stroke="midnightblue" d="M663.596,-132.228C719.751,-119.466 795.669,-102.212 840.474,-92.0287"/>
<polygon fill="midnightblue" stroke="midnightblue" points="662.681,-128.847 653.706,-134.476 664.233,-135.673 662.681,-128.847"/>
</g>
<!-- Node5 -->
<g id="node5" class="node"><title>Node5</title>
<g id="a_node5"><a xlink:href="RepositoryBenchmark_8h.html" target="_top" xlink:title="Framework/src/Repository\lBenchmark.h">
<polygon fill="none" stroke="black" points="38,-67.5 38,-97.5 170,-97.5 170,-67.5 38,-67.5"/>
<text text-anchor="start" x="46" y="-85.5" font-family="Helvetica,sans-Serif" font-size="10.00">Framework/src/Repository</text>
<text text-anchor="middle" x="104" y="-74.5" font-family="Helvetica,sans-Serif" font-size="10.00">Benchmark.h</text>
</a>
</g>
</g>
<!-- Node2&#45;&gt;Node5 -->
<g id="edge4" class="edge"><title>Node2&#45;&gt;Node5</title>
<path fill="none" stroke="midnightblue" d="M515.414,-140.32C433.289,-131.245 299.148,-115.547 184,-98 179.535,-97.3195 174.936,-96.5826 170.306,-95.814"/>
<polygon fill="midnightblue" stroke="midnightblue" points="515.091,-143.805 525.414,-141.42 515.857,-136.847 515.091,-143.805"/>
</g>
<!-- Node6 -->
<g id="node6" class="node"><title>Node6</title>
<g id="a_node6"><a xlink:href="RepositoryBenchmark_8cxx.html" target="_top" xlink:title="Framework/src/Repository\lBenchmark.cxx">
<polygon fill="none" stroke="black" points="164,-0.5 164,-30.5 296,-30.5 296,-0.5 164,-0.5"/>
<text text-anchor="start" x="172" y="-18.5" font-family="Helvetica,sans-Serif" font-size="10.00">Framework/src/Repository</text>
<text text-anchor="middle" x="230" y="-7.5" font-family="Helvetica,sans-Serif" font-size="10.00">Benchmark.cxx</text>
</a>
</g>
</g>
<!-- Node2&#45;&gt;Node6 -->
<g id="edge7" class="edge"><title>Node2&#45;&gt;Node6</title>
<path fill="none" stroke="midnightblue" d="M515.324,-143.538C411.101,-135.999 235.383,-120.16 216,-98 199.648,-79.3053 211.79,-48.6582 221.383,-30.7506"/>
<polygon fill="midnightblue" stroke="midnightblue" points="515.266,-147.042 525.489,-144.263 515.764,-140.06 515.266,-147.042"/>
</g>
<!-- Node8 -->
<g id="node8" class="node"><title>Node8</title>
<g id="a_node8"><a xlink:href="testCcdbDatabase_8cxx.html" target="_top" xlink:title="Framework/test/testCcdbDatabase.cxx">
<polygon fill="none" stroke="black" points="986,-73 986,-92 1174,-92 1174,-73 986,-73"/>
<text text-anchor="middle" x="1080" y="-80" font-family="Helvetica,sans-Serif" font-size="10.00">Framework/test/testCcdbDatabase.cxx</text>
</a>
</g>
</g>
<!-- Node2&#45;&gt;Node8 -->
<g id="edge8" class="edge"><title>Node2&#45;&gt;Node8</title>
<path fill="none" stroke="midnightblue" d="M668.779,-138.581C746.312,-128.523 869.506,-112.426 976,-98 990.091,-96.0912 1005.25,-93.9995 1019.52,-92.0135"/>
<polygon fill="midnightblue" stroke="midnightblue" points="668.084,-135.142 658.617,-139.899 668.985,-142.084 668.084,-135.142"/>
</g>
<!-- Node9 -->
<g id="node9" class="node"><title>Node9</title>
<polygon fill="none" stroke="#bfbfbf" points="413,-67.5 413,-97.5 583,-97.5 583,-67.5 413,-67.5"/>
<text text-anchor="start" x="421" y="-85.5" font-family="Helvetica,sans-Serif" font-size="10.00">Framework/test/testCcdbDatabase</text>
<text text-anchor="middle" x="498" y="-74.5" font-family="Helvetica,sans-Serif" font-size="10.00">Extra.cxx</text>
</g>
<!-- Node2&#45;&gt;Node9 -->
<g id="edge9" class="edge"><title>Node2&#45;&gt;Node9</title>
<path fill="none" stroke="midnightblue" d="M563.006,-128.451C548.545,-118.452 531.405,-106.6 518.357,-97.5765"/>
<polygon fill="midnightblue" stroke="midnightblue" points="561.388,-131.587 571.603,-134.396 565.369,-125.83 561.388,-131.587"/>
</g>
<!-- Node10 -->
<g id="node10" class="node"><title>Node10</title>
<g id="a_node10"><a xlink:href="testDbFactory_8cxx.html" target="_top" xlink:title="Framework/test/testDbFactory.cxx">
<polygon fill="none" stroke="black" points="601.5,-73 601.5,-92 770.5,-92 770.5,-73 601.5,-73"/>
<text text-anchor="middle" x="686" y="-80" font-family="Helvetica,sans-Serif" font-size="10.00">Framework/test/testDbFactory.cxx</text>
</a>
</g>
</g>
<!-- Node2&#45;&gt;Node10 -->
<g id="edge10" class="edge"><title>Node2&#45;&gt;Node10</title>
<path fill="none" stroke="midnightblue" d="M620.719,-128.641C638.459,-116.374 660.314,-101.261 673.698,-92.007"/>
<polygon fill="midnightblue" stroke="midnightblue" points="618.631,-125.83 612.397,-134.396 622.612,-131.587 618.631,-125.83"/>
</g>
<!-- Node5&#45;&gt;Node6 -->
<g id="edge5" class="edge"><title>Node5&#45;&gt;Node6</title>
<path fill="none" stroke="midnightblue" d="M140.415,-62.7143C160.287,-52.4631 184.48,-39.9826 202.713,-30.5765"/>
<polygon fill="midnightblue" stroke="midnightblue" points="138.623,-59.7008 131.34,-67.396 141.832,-65.9218 138.623,-59.7008"/>
</g>
<!-- Node7 -->
<g id="node7" class="node"><title>Node7</title>
<g id="a_node7"><a xlink:href="runRepositoryBenchmark_8cxx.html" target="_top" xlink:title="Framework/src/runRepository\lBenchmark.cxx">
<polygon fill="none" stroke="black" points="0,-0.5 0,-30.5 146,-30.5 146,-0.5 0,-0.5"/>
<text text-anchor="start" x="8" y="-18.5" font-family="Helvetica,sans-Serif" font-size="10.00">Framework/src/runRepository</text>
<text text-anchor="middle" x="73" y="-7.5" font-family="Helvetica,sans-Serif" font-size="10.00">Benchmark.cxx</text>
</a>
</g>
</g>
<!-- Node5&#45;&gt;Node7 -->
<g id="edge6" class="edge"><title>Node5&#45;&gt;Node7</title>
<path fill="none" stroke="midnightblue" d="M92.9275,-58.2835C88.5106,-49.0223 83.5701,-38.6632 79.7134,-30.5765"/>
<polygon fill="midnightblue" stroke="midnightblue" points="89.8096,-59.8766 97.2735,-67.396 96.1278,-56.8632 89.8096,-59.8766"/>
</g>
<!-- Node12 -->
<g id="node12" class="node"><title>Node12</title>
<g id="a_node12"><a xlink:href="Checker_8cxx.html" target="_top" xlink:title="Framework/src/Checker.cxx">
<polygon fill="none" stroke="black" points="1230,-73 1230,-92 1370,-92 1370,-73 1230,-73"/>
<text text-anchor="middle" x="1300" y="-80" font-family="Helvetica,sans-Serif" font-size="10.00">Framework/src/Checker.cxx</text>
</a>
</g>
</g>
<!-- Node11&#45;&gt;Node12 -->
<g id="edge12" class="edge"><title>Node11&#45;&gt;Node12</title>
<path fill="none" stroke="midnightblue" d="M1660.26,-138.61C1587.67,-129.033 1475.75,-113.696 1379,-98 1367.85,-96.1912 1355.85,-94.0755 1344.65,-92.028"/>
<polygon fill="midnightblue" stroke="midnightblue" points="1659.86,-142.088 1670.23,-139.922 1660.78,-135.147 1659.86,-142.088"/>
</g>
<!-- Node13 -->
<g id="node13" class="node"><title>Node13</title>
<g id="a_node13"><a xlink:href="CheckerFactory_8cxx.html" target="_top" xlink:title="Framework/src/CheckerFactory.cxx">
<polygon fill="none" stroke="black" points="1388.5,-73 1388.5,-92 1561.5,-92 1561.5,-73 1388.5,-73"/>
<text text-anchor="middle" x="1475" y="-80" font-family="Helvetica,sans-Serif" font-size="10.00">Framework/src/CheckerFactory.cxx</text>
</a>
</g>
</g>
<!-- Node11&#45;&gt;Node13 -->
<g id="edge13" class="edge"><title>Node11&#45;&gt;Node13</title>
<path fill="none" stroke="midnightblue" d="M1670.45,-131.99C1619.11,-119.252 1550.17,-102.148 1509.38,-92.0287"/>
<polygon fill="midnightblue" stroke="midnightblue" points="1669.92,-135.465 1680.47,-134.476 1671.61,-128.671 1669.92,-135.465"/>
</g>
<!-- Node14 -->
<g id="node14" class="node"><title>Node14</title>
<g id="a_node14"><a xlink:href="runBasic_8cxx.html" target="_top" xlink:title="This is an executable showing QC Task&#39;s usage in Data Processing Layer. ">
<polygon fill="none" stroke="black" points="1580,-73 1580,-92 1722,-92 1722,-73 1580,-73"/>
<text text-anchor="middle" x="1651" y="-80" font-family="Helvetica,sans-Serif" font-size="10.00">Framework/src/runBasic.cxx</text>
</a>
</g>
</g>
<!-- Node11&#45;&gt;Node14 -->
<g id="edge14" class="edge"><title>Node11&#45;&gt;Node14</title>
<path fill="none" stroke="midnightblue" d="M1710.33,-128.343C1694.28,-116.213 1674.67,-101.389 1662.5,-92.1945"/>
<polygon fill="midnightblue" stroke="midnightblue" points="1708.25,-131.158 1718.34,-134.396 1712.47,-125.574 1708.25,-131.158"/>
</g>
<!-- Node15 -->
<g id="node15" class="node"><title>Node15</title>
<g id="a_node15"><a xlink:href="runMergerTest_8cxx.html" target="_top" xlink:title="This is DPL workflow to see HistoMerger in action. ">
<polygon fill="none" stroke="black" points="1740.5,-73 1740.5,-92 1907.5,-92 1907.5,-73 1740.5,-73"/>
<text text-anchor="middle" x="1824" y="-80" font-family="Helvetica,sans-Serif" font-size="10.00">Framework/src/runMergerTest.cxx</text>
</a>
</g>
</g>
<!-- Node11&#45;&gt;Node15 -->
<g id="edge15" class="edge"><title>Node11&#45;&gt;Node15</title>
<path fill="none" stroke="midnightblue" d="M1763.98,-128.343C1780.22,-116.213 1800.06,-101.389 1812.36,-92.1945"/>
<polygon fill="midnightblue" stroke="midnightblue" points="1761.79,-125.607 1755.88,-134.396 1765.98,-131.215 1761.79,-125.607"/>
</g>
<!-- Node16 -->
<g id="node16" class="node"><title>Node16</title>
<g id="a_node16"><a xlink:href="runReadout_8cxx.html" target="_top" xlink:title="This is an executable showing QC Task&#39;s usage in Data Processing Layer with Readout as external data ...">
<polygon fill="none" stroke="black" points="1926,-73 1926,-92 2080,-92 2080,-73 1926,-73"/>
<text text-anchor="middle" x="2003" y="-80" font-family="Helvetica,sans-Serif" font-size="10.00">Framework/src/runReadout.cxx</text>
</a>
</g>
</g>
<!-- Node11&#45;&gt;Node16 -->
<g id="edge16" class="edge"><title>Node11&#45;&gt;Node16</title>
<path fill="none" stroke="midnightblue" d="M1804.24,-132.069C1856.4,-119.323 1926.6,-102.169 1968.1,-92.0287"/>
<polygon fill="midnightblue" stroke="midnightblue" points="1803.27,-128.702 1794.39,-134.476 1804.94,-135.502 1803.27,-128.702"/>
</g>
<!-- Node17 -->
<g id="node17" class="node"><title>Node17</title>
<g id="a_node17"><a xlink:href="testChecker_8cxx.html" target="_top" xlink:title="Framework/test/testChecker.cxx">
<polygon fill="none" stroke="black" points="2098,-73 2098,-92 2258,-92 2258,-73 2098,-73"/>
<text text-anchor="middle" x="2178" y="-80" font-family="Helvetica,sans-Serif" font-size="10.00">Framework/test/testChecker.cxx</text>
</a>
</g>
</g>
<!-- Node11&#45;&gt;Node17 -->
<g id="edge17" class="edge"><title>Node11&#45;&gt;Node17</title>
<path fill="none" stroke="midnightblue" d="M1813.8,-137.91C1885.15,-127.97 1994.34,-112.5 2089,-98 2101.22,-96.1274 2114.38,-94.0297 2126.73,-92.0242"/>
<polygon fill="midnightblue" stroke="midnightblue" points="1812.98,-134.491 1803.56,-139.336 1813.94,-141.424 1812.98,-134.491"/>
</g>
<!-- Node18 -->
<g id="node18" class="node"><title>Node18</title>
<g id="a_node18"><a xlink:href="testWorkflow_8cxx.html" target="_top" xlink:title="Framework/test/testWorkflow.cxx">
<polygon fill="none" stroke="black" points="2276,-73 2276,-92 2440,-92 2440,-73 2276,-73"/>
<text text-anchor="middle" x="2358" y="-80" font-family="Helvetica,sans-Serif" font-size="10.00">Framework/test/testWorkflow.cxx</text>
</a>
</g>
</g>
<!-- Node11&#45;&gt;Node18 -->
<g id="edge18" class="edge"><title>Node11&#45;&gt;Node18</title>
<path fill="none" stroke="midnightblue" d="M1813.69,-142.719C1916.91,-134.588 2106.16,-118.456 2267,-98 2280.33,-96.3045 2294.71,-94.1606 2308.02,-92.045"/>
<polygon fill="midnightblue" stroke="midnightblue" points="1813.36,-139.233 1803.67,-143.504 1813.91,-146.212 1813.36,-139.233"/>
</g>
<!-- Node19&#45;&gt;Node4 -->
<g id="edge21" class="edge"><title>Node19&#45;&gt;Node4</title>
<path fill="none" stroke="midnightblue" d="M1026.45,-131.269C987.09,-118.603 935.288,-101.934 904.437,-92.007"/>
<polygon fill="midnightblue" stroke="midnightblue" points="1025.58,-134.665 1036.17,-134.396 1027.72,-128.001 1025.58,-134.665"/>
</g>
<!-- Node19&#45;&gt;Node6 -->
<g id="edge22" class="edge"><title>Node19&#45;&gt;Node6</title>
<path fill="none" stroke="midnightblue" d="M1131.41,-130.519C1167.8,-115.125 1206.34,-91.6044 1183,-67 1152.5,-34.8423 507.044,-21.1593 296.075,-17.5351"/>
<polygon fill="midnightblue" stroke="midnightblue" points="1129.69,-127.438 1121.75,-134.446 1132.33,-133.922 1129.69,-127.438"/>
</g>
<!-- Node19&#45;&gt;Node8 -->
<g id="edge23" class="edge"><title>Node19&#45;&gt;Node8</title>
<path fill="none" stroke="midnightblue" d="M1080,-124.25C1080,-113.017 1080,-100.377 1080,-92.1945"/>
<polygon fill="midnightblue" stroke="midnightblue" points="1076.5,-124.396 1080,-134.396 1083.5,-124.396 1076.5,-124.396"/>
</g>
<!-- Node19&#45;&gt;Node9 -->
<g id="edge24" class="edge"><title>Node19&#45;&gt;Node9</title>
<path fill="none" stroke="midnightblue" d="M1002.54,-141.688C906.179,-132.936 736.675,-116.632 592,-98 589.052,-97.6203 586.054,-97.2224 583.027,-96.8106"/>
<polygon fill="midnightblue" stroke="midnightblue" points="1002.51,-145.199 1012.78,-142.614 1003.14,-138.227 1002.51,-145.199"/>
</g>
<!-- Node19&#45;&gt;Node10 -->
<g id="edge25" class="edge"><title>Node19&#45;&gt;Node10</title>
<path fill="none" stroke="midnightblue" d="M1002.41,-135.7C924.022,-122.768 805.124,-103.152 737.61,-92.0144"/>
<polygon fill="midnightblue" stroke="midnightblue" points="1002.28,-139.225 1012.72,-137.4 1003.42,-132.319 1002.28,-139.225"/>
</g>
<!-- Node19&#45;&gt;Node12 -->
<g id="edge20" class="edge"><title>Node19&#45;&gt;Node12</title>
<path fill="none" stroke="midnightblue" d="M1137.23,-131.59C1180.2,-118.896 1237.24,-102.043 1271.13,-92.0287"/>
<polygon fill="midnightblue" stroke="midnightblue" points="1136.06,-128.286 1127.47,-134.476 1138.05,-134.999 1136.06,-128.286"/>
</g>
<!-- Node21 -->
<g id="node21" class="node"><title>Node21</title>
<g id="a_node21"><a xlink:href="MySqlDatabase_8cxx.html" target="_top" xlink:title="Framework/src/MySqlDatabase.cxx">
<polygon fill="none" stroke="black" points="2458.5,-73 2458.5,-92 2631.5,-92 2631.5,-73 2458.5,-73"/>
<text text-anchor="middle" x="2545" y="-80" font-family="Helvetica,sans-Serif" font-size="10.00">Framework/src/MySqlDatabase.cxx</text>
</a>
</g>
</g>
<!-- Node20&#45;&gt;Node21 -->
<g id="edge27" class="edge"><title>Node20&#45;&gt;Node21</title>
<path fill="none" stroke="midnightblue" d="M2330.6,-132.228C2386.75,-119.466 2462.67,-102.212 2507.47,-92.0287"/>
<polygon fill="midnightblue" stroke="midnightblue" points="2329.68,-128.847 2320.71,-134.476 2331.23,-135.673 2329.68,-128.847"/>
</g>
</g>
</svg>
