<?xml version="1.0" encoding="UTF-8" standalone="no"?>
<!DOCTYPE svg PUBLIC "-//W3C//DTD SVG 1.1//EN"
 "http://www.w3.org/Graphics/SVG/1.1/DTD/svg11.dtd">
<!-- Generated by graphviz version 2.38.0 (20140413.2041)
 -->
<!-- Title: Graphical Class Hierarchy Pages: 1 -->
<svg width="342pt" height="305pt"
 viewBox="0.00 0.00 342.00 304.50" xmlns="http://www.w3.org/2000/svg" xmlns:xlink="http://www.w3.org/1999/xlink">
<g id="graph0" class="graph" transform="scale(1 1) rotate(0) translate(4 300.5)">
<title>Graphical Class Hierarchy</title>
<!-- Node1 -->
<g id="node1" class="node"><title>Node1</title>
<g id="a_node1"><a xlink:href="classo2_1_1quality__control_1_1checker_1_1CheckInterface.html" target="_top" xlink:title="Skeleton of a check. ">
<polygon fill="none" stroke="black" points="0,-141 0,-171 130,-171 130,-141 0,-141"/>
<text text-anchor="start" x="8" y="-159" font-family="Helvetica,sans-Serif" font-size="10.00">o2::quality_control</text>
<text text-anchor="middle" x="65" y="-148" font-family="Helvetica,sans-Serif" font-size="10.00">::checker::CheckInterface</text>
</a>
</g>
</g>
<!-- Node2 -->
<g id="node2" class="node"><title>Node2</title>
<g id="a_node2"><a xlink:href="classo2_1_1quality__control_1_1test_1_1TestCheck.html" target="_top" xlink:title="o2::quality_control\l::test::TestCheck">
<polygon fill="none" stroke="black" points="202,-266 202,-296 298,-296 298,-266 202,-266"/>
<text text-anchor="start" x="210" y="-284" font-family="Helvetica,sans-Serif" font-size="10.00">o2::quality_control</text>
<text text-anchor="middle" x="250" y="-273" font-family="Helvetica,sans-Serif" font-size="10.00">::test::TestCheck</text>
</a>
</g>
</g>
<!-- Node1&#45;&gt;Node2 -->
<g id="edge1" class="edge"><title>Node1&#45;&gt;Node2</title>
<path fill="none" stroke="midnightblue" d="M83.1514,-179.239C101.289,-202.213 131.949,-236.777 166,-257 176.833,-263.434 189.494,-268.23 201.616,-271.77"/>
<polygon fill="midnightblue" stroke="midnightblue" points="85.7142,-176.831 76.8322,-171.055 80.1737,-181.109 85.7142,-176.831"/>
</g>
<!-- Node3 -->
<g id="node3" class="node"><title>Node3</title>
<g id="a_node3"><a xlink:href="classo2_1_1quality__control__modules_1_1common_1_1MeanIsAbove.html" target="_top" xlink:title="Check whether the mean of the plot is above a certain limit. ">
<polygon fill="none" stroke="black" points="166,-217 166,-247 334,-247 334,-217 166,-217"/>
<text text-anchor="start" x="174" y="-235" font-family="Helvetica,sans-Serif" font-size="10.00">o2::quality_control</text>
<text text-anchor="middle" x="250" y="-224" font-family="Helvetica,sans-Serif" font-size="10.00">_modules::common::MeanIsAbove</text>
</a>
</g>
</g>
<!-- Node1&#45;&gt;Node3 -->
<g id="edge2" class="edge"><title>Node1&#45;&gt;Node3</title>
<path fill="none" stroke="midnightblue" d="M100.488,-176.094C119.403,-186.557 143.516,-199.007 166,-208 174.078,-211.231 182.756,-214.23 191.347,-216.936"/>
<polygon fill="midnightblue" stroke="midnightblue" points="102.085,-172.977 91.6507,-171.141 98.663,-179.083 102.085,-172.977"/>
</g>
<!-- Node4 -->
<g id="node4" class="node"><title>Node4</title>
<g id="a_node4"><a xlink:href="classo2_1_1quality__control__modules_1_1common_1_1NonEmpty.html" target="_top" xlink:title="Check whether a plot is empty or not. ">
<polygon fill="none" stroke="black" points="172.5,-168 172.5,-198 327.5,-198 327.5,-168 172.5,-168"/>
<text text-anchor="start" x="180.5" y="-186" font-family="Helvetica,sans-Serif" font-size="10.00">o2::quality_control</text>
<text text-anchor="middle" x="250" y="-175" font-family="Helvetica,sans-Serif" font-size="10.00">_modules::common::NonEmpty</text>
</a>
</g>
</g>
<!-- Node1&#45;&gt;Node4 -->
<g id="edge3" class="edge"><title>Node1&#45;&gt;Node4</title>
<path fill="none" stroke="midnightblue" d="M140.104,-166.933C150.764,-168.506 161.75,-170.127 172.456,-171.707"/>
<polygon fill="midnightblue" stroke="midnightblue" points="140.408,-163.44 130.005,-165.443 139.387,-170.365 140.408,-163.44"/>
</g>
<!-- Node5 -->
<g id="node5" class="node"><title>Node5</title>
<g id="a_node5"><a xlink:href="classo2_1_1quality__control__modules_1_1daq_1_1EverIncreasingGraph.html" target="_top" xlink:title="Check whether a plot is empty or not. ">
<polygon fill="none" stroke="black" points="174,-108.5 174,-149.5 326,-149.5 326,-108.5 174,-108.5"/>
<text text-anchor="start" x="182" y="-137.5" font-family="Helvetica,sans-Serif" font-size="10.00">o2::quality_control</text>
<text text-anchor="start" x="182" y="-126.5" font-family="Helvetica,sans-Serif" font-size="10.00">_modules::daq::EverIncreasing</text>
<text text-anchor="middle" x="250" y="-115.5" font-family="Helvetica,sans-Serif" font-size="10.00">Graph</text>
</a>
</g>
</g>
<!-- Node1&#45;&gt;Node5 -->
<g id="edge4" class="edge"><title>Node1&#45;&gt;Node5</title>
<path fill="none" stroke="midnightblue" d="M140.072,-145.071C151.165,-143.435 162.612,-141.746 173.729,-140.106"/>
<polygon fill="midnightblue" stroke="midnightblue" points="139.387,-141.635 130.005,-146.557 140.408,-148.56 139.387,-141.635"/>
</g>
<!-- Node6 -->
<g id="node6" class="node"><title>Node6</title>
<g id="a_node6"><a xlink:href="classo2_1_1quality__control__modules_1_1example_1_1FakeCheck.html" target="_top" xlink:title="Check whether a plot is empty or not. ">
<polygon fill="none" stroke="black" points="171,-60 171,-90 329,-90 329,-60 171,-60"/>
<text text-anchor="start" x="179" y="-78" font-family="Helvetica,sans-Serif" font-size="10.00">o2::quality_control</text>
<text text-anchor="middle" x="250" y="-67" font-family="Helvetica,sans-Serif" font-size="10.00">_modules::example::FakeCheck</text>
</a>
</g>
</g>
<!-- Node1&#45;&gt;Node6 -->
<g id="edge5" class="edge"><title>Node1&#45;&gt;Node6</title>
<path fill="none" stroke="midnightblue" d="M97.6627,-135.377C116.855,-123.538 142.163,-109.072 166,-99 173.738,-95.7306 182.062,-92.7432 190.346,-90.0707"/>
<polygon fill="midnightblue" stroke="midnightblue" points="95.6551,-132.504 89.0345,-140.776 99.3683,-138.438 95.6551,-132.504"/>
</g>
<!-- Node7 -->
<g id="node7" class="node"><title>Node7</title>
<g id="a_node7"><a xlink:href="classo2_1_1quality__control__modules_1_1skeleton_1_1SkeletonCheck.html" target="_top" xlink:title="Check whether a plot is empty or not. ">
<polygon fill="none" stroke="black" points="196.5,-0.5 196.5,-41.5 303.5,-41.5 303.5,-0.5 196.5,-0.5"/>
<text text-anchor="start" x="204.5" y="-29.5" font-family="Helvetica,sans-Serif" font-size="10.00">o2::quality_control</text>
<text text-anchor="start" x="204.5" y="-18.5" font-family="Helvetica,sans-Serif" font-size="10.00">_modules::skeleton::</text>
<text text-anchor="middle" x="250" y="-7.5" font-family="Helvetica,sans-Serif" font-size="10.00">SkeletonCheck</text>
</a>
</g>
</g>
<!-- Node1&#45;&gt;Node7 -->
<g id="edge6" class="edge"><title>Node1&#45;&gt;Node7</title>
<path fill="none" stroke="midnightblue" d="M83.0024,-132.594C101.181,-109.063 132.018,-73.1817 166,-51 175.238,-44.9699 185.845,-39.9586 196.32,-35.8702"/>
<polygon fill="midnightblue" stroke="midnightblue" points="80.1434,-130.572 76.8955,-140.657 85.7234,-134.799 80.1434,-130.572"/>
</g>
</g>
</svg>
