<?xml version="1.0" encoding="UTF-8" standalone="no"?>
<!DOCTYPE svg PUBLIC "-//W3C//DTD SVG 1.1//EN"
 "http://www.w3.org/Graphics/SVG/1.1/DTD/svg11.dtd">
<!-- Generated by graphviz version 2.38.0 (20140413.2041)
 -->
<!-- Title: Framework/include/QualityControl/ObjectsManager.h Pages: 1 -->
<svg width="2874pt" height="307pt"
 viewBox="0.00 0.00 2874.00 307.00" xmlns="http://www.w3.org/2000/svg" xmlns:xlink="http://www.w3.org/1999/xlink">
<g id="graph0" class="graph" transform="scale(1 1) rotate(0) translate(4 303)">
<title>Framework/include/QualityControl/ObjectsManager.h</title>
<!-- Node1 -->
<g id="node1" class="node"><title>Node1</title>
<polygon fill="#bfbfbf" stroke="black" points="1962.5,-268.5 1962.5,-298.5 2095.5,-298.5 2095.5,-268.5 1962.5,-268.5"/>
<text text-anchor="start" x="1970.5" y="-286.5" font-family="Helvetica,sans-Serif" font-size="10.00">Framework/include/Quality</text>
<text text-anchor="middle" x="2029" y="-275.5" font-family="Helvetica,sans-Serif" font-size="10.00">Control/ObjectsManager.h</text>
</g>
<!-- Node2 -->
<g id="node2" class="node"><title>Node2</title>
<g id="a_node2"><a xlink:href="TaskInterface_8h.html" target="_top" xlink:title="Framework/include/Quality\lControl/TaskInterface.h">
<polygon fill="none" stroke="black" points="1557.5,-201.5 1557.5,-231.5 1690.5,-231.5 1690.5,-201.5 1557.5,-201.5"/>
<text text-anchor="start" x="1565.5" y="-219.5" font-family="Helvetica,sans-Serif" font-size="10.00">Framework/include/Quality</text>
<text text-anchor="middle" x="1624" y="-208.5" font-family="Helvetica,sans-Serif" font-size="10.00">Control/TaskInterface.h</text>
</a>
</g>
</g>
<!-- Node1&#45;&gt;Node2 -->
<g id="edge1" class="edge"><title>Node1&#45;&gt;Node2</title>
<path fill="none" stroke="midnightblue" d="M1952.19,-270.172C1876.63,-258.046 1762.47,-239.724 1690.64,-228.195"/>
<polygon fill="midnightblue" stroke="midnightblue" points="1951.69,-273.638 1962.12,-271.767 1952.8,-266.726 1951.69,-273.638"/>
</g>
<!-- Node16 -->
<g id="node16" class="node"><title>Node16</title>
<polygon fill="none" stroke="#bfbfbf" points="0,-0.5 0,-30.5 114,-30.5 114,-0.5 0,-0.5"/>
<text text-anchor="start" x="8" y="-18.5" font-family="Helvetica,sans-Serif" font-size="10.00">Modules/Example/test</text>
<text text-anchor="middle" x="57" y="-7.5" font-family="Helvetica,sans-Serif" font-size="10.00">/testFactory.cxx</text>
</g>
<!-- Node1&#45;&gt;Node16 -->
<g id="edge54" class="edge"><title>Node1&#45;&gt;Node16</title>
<path fill="none" stroke="midnightblue" d="M1952.22,-280.4C1601.21,-270.478 163.208,-226.208 91,-165 51.053,-131.138 52.56,-60.8229 55.2934,-30.6994"/>
<polygon fill="midnightblue" stroke="midnightblue" points="1952.19,-283.901 1962.29,-280.684 1952.39,-276.903 1952.19,-283.901"/>
</g>
<!-- Node23 -->
<g id="node23" class="node"><title>Node23</title>
<g id="a_node23"><a xlink:href="ObjectsManager_8cxx.html" target="_top" xlink:title="Framework/src/ObjectsManager.cxx">
<polygon fill="none" stroke="black" points="1981.5,-73 1981.5,-92 2156.5,-92 2156.5,-73 1981.5,-73"/>
<text text-anchor="middle" x="2069" y="-80" font-family="Helvetica,sans-Serif" font-size="10.00">Framework/src/ObjectsManager.cxx</text>
</a>
</g>
</g>
<!-- Node1&#45;&gt;Node23 -->
<g id="edge51" class="edge"><title>Node1&#45;&gt;Node23</title>
<path fill="none" stroke="midnightblue" d="M2033.88,-258.244C2042.8,-213.823 2061.4,-121.314 2067.22,-92.3601"/>
<polygon fill="midnightblue" stroke="midnightblue" points="2030.42,-257.695 2031.88,-268.188 2037.28,-259.074 2030.42,-257.695"/>
</g>
<!-- Node39 -->
<g id="node39" class="node"><title>Node39</title>
<polygon fill="none" stroke="#bfbfbf" points="2057,-201.5 2057,-231.5 2195,-231.5 2195,-201.5 2057,-201.5"/>
<text text-anchor="start" x="2065" y="-219.5" font-family="Helvetica,sans-Serif" font-size="10.00">Framework/test/testObjects</text>
<text text-anchor="middle" x="2126" y="-208.5" font-family="Helvetica,sans-Serif" font-size="10.00">Manager.cxx</text>
</g>
<!-- Node1&#45;&gt;Node39 -->
<g id="edge52" class="edge"><title>Node1&#45;&gt;Node39</title>
<path fill="none" stroke="midnightblue" d="M2058.5,-262.734C2073.51,-252.676 2091.4,-240.685 2104.99,-231.577"/>
<polygon fill="midnightblue" stroke="midnightblue" points="2056.41,-259.922 2050.05,-268.396 2060.3,-265.737 2056.41,-259.922"/>
</g>
<!-- Node40 -->
<g id="node40" class="node"><title>Node40</title>
<g id="a_node40"><a xlink:href="testPublisher_8cxx.html" target="_top" xlink:title="Framework/test/testPublisher.cxx">
<polygon fill="none" stroke="black" points="2213,-207 2213,-226 2377,-226 2377,-207 2213,-207"/>
<text text-anchor="middle" x="2295" y="-214" font-family="Helvetica,sans-Serif" font-size="10.00">Framework/test/testPublisher.cxx</text>
</a>
</g>
</g>
<!-- Node1&#45;&gt;Node40 -->
<g id="edge53" class="edge"><title>Node1&#45;&gt;Node40</title>
<path fill="none" stroke="midnightblue" d="M2096.24,-266.069C2148.4,-253.323 2218.6,-236.169 2260.1,-226.029"/>
<polygon fill="midnightblue" stroke="midnightblue" points="2095.27,-262.702 2086.39,-268.476 2096.94,-269.502 2095.27,-262.702"/>
</g>
<!-- Node3 -->
<g id="node3" class="node"><title>Node3</title>
<g id="a_node3"><a xlink:href="QcInfoLogger_8h.html" target="_top" xlink:title="Framework/include/Quality\lControl/QcInfoLogger.h">
<polygon fill="none" stroke="black" points="1169.5,-134.5 1169.5,-164.5 1302.5,-164.5 1302.5,-134.5 1169.5,-134.5"/>
<text text-anchor="start" x="1177.5" y="-152.5" font-family="Helvetica,sans-Serif" font-size="10.00">Framework/include/Quality</text>
<text text-anchor="middle" x="1236" y="-141.5" font-family="Helvetica,sans-Serif" font-size="10.00">Control/QcInfoLogger.h</text>
</a>
</g>
</g>
<!-- Node2&#45;&gt;Node3 -->
<g id="edge2" class="edge"><title>Node2&#45;&gt;Node3</title>
<path fill="none" stroke="midnightblue" d="M1547.03,-202.606C1475.7,-190.657 1370.68,-173.062 1302.8,-161.691"/>
<polygon fill="midnightblue" stroke="midnightblue" points="1546.86,-206.126 1557.3,-204.326 1548.02,-199.222 1546.86,-206.126"/>
</g>
<!-- Node14 -->
<g id="node14" class="node"><title>Node14</title>
<g id="a_node14"><a xlink:href="testTaskInterface_8cxx.html" target="_top" xlink:title="Framework/test/testTaskInterface.cxx">
<polygon fill="none" stroke="black" points="1480.5,-6 1480.5,-25 1663.5,-25 1663.5,-6 1480.5,-6"/>
<text text-anchor="middle" x="1572" y="-13" font-family="Helvetica,sans-Serif" font-size="10.00">Framework/test/testTaskInterface.cxx</text>
</a>
</g>
</g>
<!-- Node2&#45;&gt;Node14 -->
<g id="edge38" class="edge"><title>Node2&#45;&gt;Node14</title>
<path fill="none" stroke="midnightblue" d="M1700.67,-213.968C1782.58,-210.519 1904.63,-199.545 1934,-165 1944.5,-152.654 1954.15,-90.9199 1933,-67 1894.36,-23.3047 1730.76,-39.1445 1673,-31 1659.41,-29.083 1644.79,-26.9979 1631.01,-25.022"/>
<polygon fill="midnightblue" stroke="midnightblue" points="1700.5,-210.472 1690.64,-214.362 1700.77,-217.467 1700.5,-210.472"/>
</g>
<!-- Node20 -->
<g id="node20" class="node"><title>Node20</title>
<g id="a_node20"><a xlink:href="DatabaseFactory_8cxx.html" target="_top" xlink:title="Framework/src/DatabaseFactory.cxx">
<polygon fill="none" stroke="black" points="1616.5,-73 1616.5,-92 1795.5,-92 1795.5,-73 1616.5,-73"/>
<text text-anchor="middle" x="1706" y="-80" font-family="Helvetica,sans-Serif" font-size="10.00">Framework/src/DatabaseFactory.cxx</text>
</a>
</g>
</g>
<!-- Node2&#45;&gt;Node20 -->
<g id="edge36" class="edge"><title>Node2&#45;&gt;Node20</title>
<path fill="none" stroke="midnightblue" d="M1605.22,-193.095C1593.3,-175.994 1582.16,-152.334 1594,-134 1608.47,-111.605 1635.51,-99.0401 1659.4,-92.0448"/>
<polygon fill="midnightblue" stroke="midnightblue" points="1602.62,-195.46 1611.41,-201.376 1608.23,-191.27 1602.62,-195.46"/>
</g>
<!-- Node30 -->
<g id="node30" class="node"><title>Node30</title>
<g id="a_node30"><a xlink:href="TaskRunner_8h.html" target="_top" xlink:title="Framework/include/Quality\lControl/TaskRunner.h">
<polygon fill="none" stroke="black" points="2305.5,-67.5 2305.5,-97.5 2438.5,-97.5 2438.5,-67.5 2305.5,-67.5"/>
<text text-anchor="start" x="2313.5" y="-85.5" font-family="Helvetica,sans-Serif" font-size="10.00">Framework/include/Quality</text>
<text text-anchor="middle" x="2372" y="-74.5" font-family="Helvetica,sans-Serif" font-size="10.00">Control/TaskRunner.h</text>
</a>
</g>
</g>
<!-- Node2&#45;&gt;Node30 -->
<g id="edge30" class="edge"><title>Node2&#45;&gt;Node30</title>
<path fill="none" stroke="midnightblue" d="M1700.57,-205.397C1770.2,-195.931 1875.72,-180.892 1967,-165 2087.83,-143.963 2227.94,-114.666 2307.66,-97.5306"/>
<polygon fill="midnightblue" stroke="midnightblue" points="1700,-201.942 1690.56,-206.752 1700.94,-208.878 1700,-201.942"/>
</g>
<!-- Node34 -->
<g id="node34" class="node"><title>Node34</title>
<g id="a_node34"><a xlink:href="TaskInterface_8cxx.html" target="_top" xlink:title="Framework/src/TaskInterface.cxx">
<polygon fill="none" stroke="black" points="1761,-140 1761,-159 1925,-159 1925,-140 1761,-140"/>
<text text-anchor="middle" x="1843" y="-147" font-family="Helvetica,sans-Serif" font-size="10.00">Framework/src/TaskInterface.cxx</text>
</a>
</g>
</g>
<!-- Node2&#45;&gt;Node34 -->
<g id="edge37" class="edge"><title>Node2&#45;&gt;Node34</title>
<path fill="none" stroke="midnightblue" d="M1680.97,-198.59C1723.74,-185.896 1780.52,-169.043 1814.26,-159.029"/>
<polygon fill="midnightblue" stroke="midnightblue" points="1679.84,-195.275 1671.25,-201.476 1681.83,-201.986 1679.84,-195.275"/>
</g>
<!-- Node35 -->
<g id="node35" class="node"><title>Node35</title>
<g id="a_node35"><a xlink:href="DaqTask_8h.html" target="_top" xlink:title="Modules/Daq/include\l/Daq/DaqTask.h">
<polygon fill="none" stroke="black" points="313,-134.5 313,-164.5 421,-164.5 421,-134.5 313,-134.5"/>
<text text-anchor="start" x="321" y="-152.5" font-family="Helvetica,sans-Serif" font-size="10.00">Modules/Daq/include</text>
<text text-anchor="middle" x="367" y="-141.5" font-family="Helvetica,sans-Serif" font-size="10.00">/Daq/DaqTask.h</text>
</a>
</g>
</g>
<!-- Node2&#45;&gt;Node35 -->
<g id="edge39" class="edge"><title>Node2&#45;&gt;Node35</title>
<path fill="none" stroke="midnightblue" d="M1547.07,-214.287C1362.74,-210.904 881.369,-199.248 481,-165 461.42,-163.325 440.03,-160.792 421.122,-158.31"/>
<polygon fill="midnightblue" stroke="midnightblue" points="1547.14,-217.789 1557.2,-214.47 1547.27,-210.79 1547.14,-217.789"/>
</g>
<!-- Node36 -->
<g id="node36" class="node"><title>Node36</title>
<g id="a_node36"><a xlink:href="BenchmarkTask_8h.html" target="_top" xlink:title="Modules/Example/include\l/Example/BenchmarkTask.h">
<polygon fill="none" stroke="black" points="1603,-134.5 1603,-164.5 1743,-164.5 1743,-134.5 1603,-134.5"/>
<text text-anchor="start" x="1611" y="-152.5" font-family="Helvetica,sans-Serif" font-size="10.00">Modules/Example/include</text>
<text text-anchor="middle" x="1673" y="-141.5" font-family="Helvetica,sans-Serif" font-size="10.00">/Example/BenchmarkTask.h</text>
</a>
</g>
</g>
<!-- Node2&#45;&gt;Node36 -->
<g id="edge42" class="edge"><title>Node2&#45;&gt;Node36</title>
<path fill="none" stroke="midnightblue" d="M1640.84,-193.157C1647.99,-183.679 1656.1,-172.919 1662.39,-164.577"/>
<polygon fill="midnightblue" stroke="midnightblue" points="1637.86,-191.304 1634.63,-201.396 1643.45,-195.518 1637.86,-191.304"/>
</g>
<!-- Node37 -->
<g id="node37" class="node"><title>Node37</title>
<g id="a_node37"><a xlink:href="ExampleTask_8h.html" target="_top" xlink:title="Modules/Example/include\l/Example/ExampleTask.h">
<polygon fill="none" stroke="black" points="100.5,-134.5 100.5,-164.5 229.5,-164.5 229.5,-134.5 100.5,-134.5"/>
<text text-anchor="start" x="108.5" y="-152.5" font-family="Helvetica,sans-Serif" font-size="10.00">Modules/Example/include</text>
<text text-anchor="middle" x="165" y="-141.5" font-family="Helvetica,sans-Serif" font-size="10.00">/Example/ExampleTask.h</text>
</a>
</g>
</g>
<!-- Node2&#45;&gt;Node37 -->
<g id="edge44" class="edge"><title>Node2&#45;&gt;Node37</title>
<path fill="none" stroke="midnightblue" d="M1547.03,-214.322C1343.72,-210.828 775.614,-198.584 304,-165 279.677,-163.268 253.029,-160.661 229.631,-158.133"/>
<polygon fill="midnightblue" stroke="midnightblue" points="1547.24,-217.826 1557.3,-214.496 1547.36,-210.827 1547.24,-217.826"/>
</g>
<!-- Node38 -->
<g id="node38" class="node"><title>Node38</title>
<g id="a_node38"><a xlink:href="SkeletonTask_8h.html" target="_top" xlink:title="Modules/Skeleton/include\l/Skeleton/SkeletonTask.h">
<polygon fill="none" stroke="black" points="490.5,-134.5 490.5,-164.5 619.5,-164.5 619.5,-134.5 490.5,-134.5"/>
<text text-anchor="start" x="498.5" y="-152.5" font-family="Helvetica,sans-Serif" font-size="10.00">Modules/Skeleton/include</text>
<text text-anchor="middle" x="555" y="-141.5" font-family="Helvetica,sans-Serif" font-size="10.00">/Skeleton/SkeletonTask.h</text>
</a>
</g>
</g>
<!-- Node2&#45;&gt;Node38 -->
<g id="edge48" class="edge"><title>Node2&#45;&gt;Node38</title>
<path fill="none" stroke="midnightblue" d="M1546.94,-210.814C1345.62,-198.573 806.601,-165.798 619.803,-154.44"/>
<polygon fill="midnightblue" stroke="midnightblue" points="1546.94,-214.32 1557.13,-211.434 1547.36,-207.333 1546.94,-214.32"/>
</g>
<!-- Node4 -->
<g id="node4" class="node"><title>Node4</title>
<g id="a_node4"><a xlink:href="Checker_8h.html" target="_top" xlink:title="Framework/include/Quality\lControl/Checker.h">
<polygon fill="none" stroke="black" points="1312.5,-67.5 1312.5,-97.5 1445.5,-97.5 1445.5,-67.5 1312.5,-67.5"/>
<text text-anchor="start" x="1320.5" y="-85.5" font-family="Helvetica,sans-Serif" font-size="10.00">Framework/include/Quality</text>
<text text-anchor="middle" x="1379" y="-74.5" font-family="Helvetica,sans-Serif" font-size="10.00">Control/Checker.h</text>
</a>
</g>
</g>
<!-- Node3&#45;&gt;Node4 -->
<g id="edge3" class="edge"><title>Node3&#45;&gt;Node4</title>
<path fill="none" stroke="midnightblue" d="M1276.41,-130.131C1299.13,-119.802 1327.06,-107.11 1348.03,-97.5765"/>
<polygon fill="midnightblue" stroke="midnightblue" points="1274.68,-127.072 1267.03,-134.396 1277.58,-133.444 1274.68,-127.072"/>
</g>
<!-- Node12 -->
<g id="node12" class="node"><title>Node12</title>
<g id="a_node12"><a xlink:href="TaskFactory_8h.html" target="_top" xlink:title="Framework/include/Quality\lControl/TaskFactory.h">
<polygon fill="none" stroke="black" points="1122.5,-67.5 1122.5,-97.5 1255.5,-97.5 1255.5,-67.5 1122.5,-67.5"/>
<text text-anchor="start" x="1130.5" y="-85.5" font-family="Helvetica,sans-Serif" font-size="10.00">Framework/include/Quality</text>
<text text-anchor="middle" x="1189" y="-74.5" font-family="Helvetica,sans-Serif" font-size="10.00">Control/TaskFactory.h</text>
</a>
</g>
</g>
<!-- Node3&#45;&gt;Node12 -->
<g id="edge11" class="edge"><title>Node3&#45;&gt;Node12</title>
<path fill="none" stroke="midnightblue" d="M1219.84,-126.157C1212.99,-116.679 1205.21,-105.919 1199.18,-97.5765"/>
<polygon fill="midnightblue" stroke="midnightblue" points="1217.11,-128.343 1225.8,-134.396 1222.78,-124.242 1217.11,-128.343"/>
</g>
<!-- Node13 -->
<g id="node13" class="node"><title>Node13</title>
<g id="a_node13"><a xlink:href="TaskRunner_8cxx.html" target="_top" xlink:title="Framework/src/TaskRunner.cxx">
<polygon fill="none" stroke="black" points="768.5,-6 768.5,-25 925.5,-25 925.5,-6 768.5,-6"/>
<text text-anchor="middle" x="847" y="-13" font-family="Helvetica,sans-Serif" font-size="10.00">Framework/src/TaskRunner.cxx</text>
</a>
</g>
</g>
<!-- Node3&#45;&gt;Node13 -->
<g id="edge24" class="edge"><title>Node3&#45;&gt;Node13</title>
<path fill="none" stroke="midnightblue" d="M1254.47,-126.268C1267.01,-108.372 1278.85,-83.559 1264,-67 1214.75,-12.0822 1007.08,-41.0677 934,-31 921.41,-29.2655 907.838,-27.1314 895.245,-25.0393"/>
<polygon fill="midnightblue" stroke="midnightblue" points="1251.55,-124.324 1248.37,-134.43 1257.16,-128.514 1251.55,-124.324"/>
</g>
<!-- Node3&#45;&gt;Node20 -->
<g id="edge19" class="edge"><title>Node3&#45;&gt;Node20</title>
<path fill="none" stroke="midnightblue" d="M1313.02,-138.248C1388.08,-128.202 1505.42,-112.353 1607,-98 1620.42,-96.1045 1634.85,-94.0179 1648.43,-92.0328"/>
<polygon fill="midnightblue" stroke="midnightblue" points="1312.16,-134.832 1302.71,-139.626 1313.09,-141.77 1312.16,-134.832"/>
</g>
<!-- Node21 -->
<g id="node21" class="node"><title>Node21</title>
<g id="a_node21"><a xlink:href="InformationService_8cxx.html" target="_top" xlink:title="Framework/src/Information\lService.cxx">
<polygon fill="none" stroke="black" points="1464,-67.5 1464,-97.5 1598,-97.5 1598,-67.5 1464,-67.5"/>
<text text-anchor="start" x="1472" y="-85.5" font-family="Helvetica,sans-Serif" font-size="10.00">Framework/src/Information</text>
<text text-anchor="middle" x="1531" y="-74.5" font-family="Helvetica,sans-Serif" font-size="10.00">Service.cxx</text>
</a>
</g>
</g>
<!-- Node3&#45;&gt;Node21 -->
<g id="edge20" class="edge"><title>Node3&#45;&gt;Node21</title>
<path fill="none" stroke="midnightblue" d="M1309.45,-132.316C1357.94,-121.633 1420.83,-107.775 1467.21,-97.5549"/>
<polygon fill="midnightblue" stroke="midnightblue" points="1308.66,-128.906 1299.65,-134.476 1310.17,-135.742 1308.66,-128.906"/>
</g>
<!-- Node22 -->
<g id="node22" class="node"><title>Node22</title>
<g id="a_node22"><a xlink:href="MySqlDatabase_8cxx.html" target="_top" xlink:title="Framework/src/MySqlDatabase.cxx">
<polygon fill="none" stroke="black" points="628.5,-73 628.5,-92 801.5,-92 801.5,-73 628.5,-73"/>
<text text-anchor="middle" x="715" y="-80" font-family="Helvetica,sans-Serif" font-size="10.00">Framework/src/MySqlDatabase.cxx</text>
</a>
</g>
</g>
<!-- Node3&#45;&gt;Node22 -->
<g id="edge21" class="edge"><title>Node3&#45;&gt;Node22</title>
<path fill="none" stroke="midnightblue" d="M1159.19,-140.113C1074,-130.639 932.531,-114.394 811,-98 797.469,-96.1748 782.89,-94.0529 769.281,-92.0049"/>
<polygon fill="midnightblue" stroke="midnightblue" points="1158.97,-143.61 1169.3,-141.235 1159.75,-136.653 1158.97,-143.61"/>
</g>
<!-- Node3&#45;&gt;Node23 -->
<g id="edge22" class="edge"><title>Node3&#45;&gt;Node23</title>
<path fill="none" stroke="midnightblue" d="M1313,-143.777C1441.55,-135.7 1707.99,-118.141 1933,-98 1952.63,-96.2429 1973.83,-94.101 1993.51,-92.0085"/>
<polygon fill="midnightblue" stroke="midnightblue" points="1312.62,-140.294 1302.86,-144.412 1313.06,-147.28 1312.62,-140.294"/>
</g>
<!-- Node24 -->
<g id="node24" class="node"><title>Node24</title>
<g id="a_node24"><a xlink:href="RepositoryBenchmark_8cxx.html" target="_top" xlink:title="Framework/src/Repository\lBenchmark.cxx">
<polygon fill="none" stroke="black" points="820,-67.5 820,-97.5 952,-97.5 952,-67.5 820,-67.5"/>
<text text-anchor="start" x="828" y="-85.5" font-family="Helvetica,sans-Serif" font-size="10.00">Framework/src/Repository</text>
<text text-anchor="middle" x="886" y="-74.5" font-family="Helvetica,sans-Serif" font-size="10.00">Benchmark.cxx</text>
</a>
</g>
</g>
<!-- Node3&#45;&gt;Node24 -->
<g id="edge23" class="edge"><title>Node3&#45;&gt;Node24</title>
<path fill="none" stroke="midnightblue" d="M1159.23,-134.602C1104.06,-124.564 1027.91,-110.611 961,-98 958.133,-97.4596 955.205,-96.905 952.247,-96.3426"/>
<polygon fill="midnightblue" stroke="midnightblue" points="1158.82,-138.084 1169.28,-136.429 1160.07,-131.197 1158.82,-138.084"/>
</g>
<!-- Node25 -->
<g id="node25" class="node"><title>Node25</title>
<g id="a_node25"><a xlink:href="testQcInfoLogger_8cxx.html" target="_top" xlink:title="Framework/test/testQcInfo\lLogger.cxx">
<polygon fill="none" stroke="black" points="970,-67.5 970,-97.5 1104,-97.5 1104,-67.5 970,-67.5"/>
<text text-anchor="start" x="978" y="-85.5" font-family="Helvetica,sans-Serif" font-size="10.00">Framework/test/testQcInfo</text>
<text text-anchor="middle" x="1037" y="-74.5" font-family="Helvetica,sans-Serif" font-size="10.00">Logger.cxx</text>
</a>
</g>
</g>
<!-- Node3&#45;&gt;Node25 -->
<g id="edge25" class="edge"><title>Node3&#45;&gt;Node25</title>
<path fill="none" stroke="midnightblue" d="M1183.12,-131.228C1150.93,-120.713 1110.33,-107.451 1080.1,-97.5765"/>
<polygon fill="midnightblue" stroke="midnightblue" points="1182.23,-134.618 1192.82,-134.396 1184.4,-127.964 1182.23,-134.618"/>
</g>
<!-- Node26 -->
<g id="node26" class="node"><title>Node26</title>
<g id="a_node26"><a xlink:href="DaqTask_8cxx.html" target="_top" xlink:title="Modules/Daq/src/DaqTask.cxx">
<polygon fill="none" stroke="black" points="291,-73 291,-92 443,-92 443,-73 291,-73"/>
<text text-anchor="middle" x="367" y="-80" font-family="Helvetica,sans-Serif" font-size="10.00">Modules/Daq/src/DaqTask.cxx</text>
</a>
</g>
</g>
<!-- Node3&#45;&gt;Node26 -->
<g id="edge26" class="edge"><title>Node3&#45;&gt;Node26</title>
<path fill="none" stroke="midnightblue" d="M1159.03,-144.555C1023.59,-137.332 733.917,-120.619 490,-98 471.801,-96.3124 452.128,-94.1469 433.965,-92.007"/>
<polygon fill="midnightblue" stroke="midnightblue" points="1159.12,-148.065 1169.29,-145.1 1159.49,-141.075 1159.12,-148.065"/>
</g>
<!-- Node27 -->
<g id="node27" class="node"><title>Node27</title>
<g id="a_node27"><a xlink:href="BenchmarkTask_8cxx.html" target="_top" xlink:title="Modules/Example/src\l/BenchmarkTask.cxx">
<polygon fill="none" stroke="black" points="1813.5,-67.5 1813.5,-97.5 1924.5,-97.5 1924.5,-67.5 1813.5,-67.5"/>
<text text-anchor="start" x="1821.5" y="-85.5" font-family="Helvetica,sans-Serif" font-size="10.00">Modules/Example/src</text>
<text text-anchor="middle" x="1869" y="-74.5" font-family="Helvetica,sans-Serif" font-size="10.00">/BenchmarkTask.cxx</text>
</a>
</g>
</g>
<!-- Node3&#45;&gt;Node27 -->
<g id="edge27" class="edge"><title>Node3&#45;&gt;Node27</title>
<path fill="none" stroke="midnightblue" d="M1313.1,-144.849C1422.7,-138.934 1629.62,-125.083 1804,-98 1807.08,-97.5209 1810.24,-96.9816 1813.42,-96.4"/>
<polygon fill="midnightblue" stroke="midnightblue" points="1312.6,-141.371 1302.8,-145.397 1312.97,-148.361 1312.6,-141.371"/>
</g>
<!-- Node28 -->
<g id="node28" class="node"><title>Node28</title>
<g id="a_node28"><a xlink:href="ExampleTask_8cxx.html" target="_top" xlink:title="Modules/Example/src\l/ExampleTask.cxx">
<polygon fill="none" stroke="black" points="161.5,-67.5 161.5,-97.5 272.5,-97.5 272.5,-67.5 161.5,-67.5"/>
<text text-anchor="start" x="169.5" y="-85.5" font-family="Helvetica,sans-Serif" font-size="10.00">Modules/Example/src</text>
<text text-anchor="middle" x="217" y="-74.5" font-family="Helvetica,sans-Serif" font-size="10.00">/ExampleTask.cxx</text>
</a>
</g>
</g>
<!-- Node3&#45;&gt;Node28 -->
<g id="edge28" class="edge"><title>Node3&#45;&gt;Node28</title>
<path fill="none" stroke="midnightblue" d="M1159.04,-148.758C996.342,-148.355 605.793,-142.37 282,-98 278.907,-97.5762 275.744,-97.0805 272.559,-96.5327"/>
<polygon fill="midnightblue" stroke="midnightblue" points="1159.42,-152.259 1169.43,-148.777 1159.43,-145.259 1159.42,-152.259"/>
</g>
<!-- Node29 -->
<g id="node29" class="node"><title>Node29</title>
<g id="a_node29"><a xlink:href="SkeletonTask_8cxx.html" target="_top" xlink:title="Modules/Skeleton/src\l/SkeletonTask.cxx">
<polygon fill="none" stroke="black" points="499.5,-67.5 499.5,-97.5 610.5,-97.5 610.5,-67.5 499.5,-67.5"/>
<text text-anchor="start" x="507.5" y="-85.5" font-family="Helvetica,sans-Serif" font-size="10.00">Modules/Skeleton/src</text>
<text text-anchor="middle" x="555" y="-74.5" font-family="Helvetica,sans-Serif" font-size="10.00">/SkeletonTask.cxx</text>
</a>
</g>
</g>
<!-- Node3&#45;&gt;Node29 -->
<g id="edge29" class="edge"><title>Node3&#45;&gt;Node29</title>
<path fill="none" stroke="midnightblue" d="M1159.15,-145.697C1042.03,-140.639 812.094,-127.625 619,-98 616.297,-97.5854 613.539,-97.121 610.759,-96.62"/>
<polygon fill="midnightblue" stroke="midnightblue" points="1159.3,-149.206 1169.44,-146.133 1159.6,-142.212 1159.3,-149.206"/>
</g>
<!-- Node5 -->
<g id="node5" class="node"><title>Node5</title>
<g id="a_node5"><a xlink:href="Checker_8cxx.html" target="_top" xlink:title="Framework/src/Checker.cxx">
<polygon fill="none" stroke="black" points="2214,-6 2214,-25 2354,-25 2354,-6 2214,-6"/>
<text text-anchor="middle" x="2284" y="-13" font-family="Helvetica,sans-Serif" font-size="10.00">Framework/src/Checker.cxx</text>
</a>
</g>
</g>
<!-- Node4&#45;&gt;Node5 -->
<g id="edge4" class="edge"><title>Node4&#45;&gt;Node5</title>
<path fill="none" stroke="midnightblue" d="M1456.05,-67.0125C1788.2,-28.4763 1876.88,-68.8161 2205,-31 2217.47,-29.5631 2230.93,-27.3444 2243.15,-25.0712"/>
<polygon fill="midnightblue" stroke="midnightblue" points="1455.17,-63.5918 1445.65,-68.2358 1455.99,-70.5439 1455.17,-63.5918"/>
</g>
<!-- Node6 -->
<g id="node6" class="node"><title>Node6</title>
<g id="a_node6"><a xlink:href="CheckerFactory_8cxx.html" target="_top" xlink:title="Framework/src/CheckerFactory.cxx">
<polygon fill="none" stroke="black" points="943.5,-6 943.5,-25 1116.5,-25 1116.5,-6 943.5,-6"/>
<text text-anchor="middle" x="1030" y="-13" font-family="Helvetica,sans-Serif" font-size="10.00">Framework/src/CheckerFactory.cxx</text>
</a>
</g>
</g>
<!-- Node4&#45;&gt;Node6 -->
<g id="edge5" class="edge"><title>Node4&#45;&gt;Node6</title>
<path fill="none" stroke="midnightblue" d="M1302.13,-67.1832C1232.86,-54.2813 1133.32,-35.7422 1075.79,-25.0291"/>
<polygon fill="midnightblue" stroke="midnightblue" points="1301.65,-70.654 1312.12,-69.0443 1302.93,-63.7724 1301.65,-70.654"/>
</g>
<!-- Node7 -->
<g id="node7" class="node"><title>Node7</title>
<g id="a_node7"><a xlink:href="runBasic_8cxx.html" target="_top" xlink:title="This is an executable showing QC Task&#39;s usage in Data Processing Layer. ">
<polygon fill="none" stroke="black" points="1135,-6 1135,-25 1277,-25 1277,-6 1135,-6"/>
<text text-anchor="middle" x="1206" y="-13" font-family="Helvetica,sans-Serif" font-size="10.00">Framework/src/runBasic.cxx</text>
</a>
</g>
</g>
<!-- Node4&#45;&gt;Node7 -->
<g id="edge6" class="edge"><title>Node4&#45;&gt;Node7</title>
<path fill="none" stroke="midnightblue" d="M1331.85,-63.7838C1298.3,-51.1807 1254.73,-34.8082 1228.64,-25.007"/>
<polygon fill="midnightblue" stroke="midnightblue" points="1330.87,-67.1551 1341.46,-67.396 1333.33,-60.6024 1330.87,-67.1551"/>
</g>
<!-- Node8 -->
<g id="node8" class="node"><title>Node8</title>
<g id="a_node8"><a xlink:href="runMergerTest_8cxx.html" target="_top" xlink:title="This is DPL workflow to see HistoMerger in action. ">
<polygon fill="none" stroke="black" points="1295.5,-6 1295.5,-25 1462.5,-25 1462.5,-6 1295.5,-6"/>
<text text-anchor="middle" x="1379" y="-13" font-family="Helvetica,sans-Serif" font-size="10.00">Framework/src/runMergerTest.cxx</text>
</a>
</g>
</g>
<!-- Node4&#45;&gt;Node8 -->
<g id="edge7" class="edge"><title>Node4&#45;&gt;Node8</title>
<path fill="none" stroke="midnightblue" d="M1379,-57.2495C1379,-46.017 1379,-33.3767 1379,-25.1945"/>
<polygon fill="midnightblue" stroke="midnightblue" points="1375.5,-57.3959 1379,-67.396 1382.5,-57.396 1375.5,-57.3959"/>
</g>
<!-- Node9 -->
<g id="node9" class="node"><title>Node9</title>
<g id="a_node9"><a xlink:href="runReadout_8cxx.html" target="_top" xlink:title="This is an executable showing QC Task&#39;s usage in Data Processing Layer with Readout as external data ...">
<polygon fill="none" stroke="black" points="1682,-6 1682,-25 1836,-25 1836,-6 1682,-6"/>
<text text-anchor="middle" x="1759" y="-13" font-family="Helvetica,sans-Serif" font-size="10.00">Framework/src/runReadout.cxx</text>
</a>
</g>
</g>
<!-- Node4&#45;&gt;Node9 -->
<g id="edge8" class="edge"><title>Node4&#45;&gt;Node9</title>
<path fill="none" stroke="midnightblue" d="M1455.67,-66.9055C1552.89,-49.6436 1578.67,-46.5193 1672,-31 1683.63,-29.066 1696.14,-26.9836 1707.94,-25.017"/>
<polygon fill="midnightblue" stroke="midnightblue" points="1454.94,-63.4791 1445.71,-68.6779 1456.17,-70.3707 1454.94,-63.4791"/>
</g>
<!-- Node10 -->
<g id="node10" class="node"><title>Node10</title>
<g id="a_node10"><a xlink:href="testChecker_8cxx.html" target="_top" xlink:title="Framework/test/testChecker.cxx">
<polygon fill="none" stroke="black" points="1854,-6 1854,-25 2014,-25 2014,-6 1854,-6"/>
<text text-anchor="middle" x="1934" y="-13" font-family="Helvetica,sans-Serif" font-size="10.00">Framework/test/testChecker.cxx</text>
</a>
</g>
</g>
<!-- Node4&#45;&gt;Node10 -->
<g id="edge9" class="edge"><title>Node4&#45;&gt;Node10</title>
<path fill="none" stroke="midnightblue" d="M1455.64,-67.0075C1629.07,-43.0334 1675.53,-52.6003 1845,-31 1858.2,-29.3175 1872.45,-27.1538 1885.59,-25.0138"/>
<polygon fill="midnightblue" stroke="midnightblue" points="1455.09,-63.5511 1445.67,-68.4036 1456.06,-70.4835 1455.09,-63.5511"/>
</g>
<!-- Node11 -->
<g id="node11" class="node"><title>Node11</title>
<g id="a_node11"><a xlink:href="testWorkflow_8cxx.html" target="_top" xlink:title="Framework/test/testWorkflow.cxx">
<polygon fill="none" stroke="black" points="2032,-6 2032,-25 2196,-25 2196,-6 2032,-6"/>
<text text-anchor="middle" x="2114" y="-13" font-family="Helvetica,sans-Serif" font-size="10.00">Framework/test/testWorkflow.cxx</text>
</a>
</g>
</g>
<!-- Node4&#45;&gt;Node11 -->
<g id="edge10" class="edge"><title>Node4&#45;&gt;Node11</title>
<path fill="none" stroke="midnightblue" d="M1455.85,-67.0161C1707.71,-35.851 1774.91,-58.5647 2023,-31 2036.99,-29.4454 2052.12,-27.2462 2065.94,-25.0292"/>
<polygon fill="midnightblue" stroke="midnightblue" points="1455.14,-63.5773 1445.65,-68.2943 1456.01,-70.5229 1455.14,-63.5773"/>
</g>
<!-- Node12&#45;&gt;Node13 -->
<g id="edge12" class="edge"><title>Node12&#45;&gt;Node13</title>
<path fill="none" stroke="midnightblue" d="M1112.34,-66.8747C1028.6,-50.9408 943.094,-34.7188 892.185,-25.0655"/>
<polygon fill="midnightblue" stroke="midnightblue" points="1111.79,-70.3343 1122.27,-68.7656 1113.1,-63.4577 1111.79,-70.3343"/>
</g>
<!-- Node12&#45;&gt;Node14 -->
<g id="edge13" class="edge"><title>Node12&#45;&gt;Node14</title>
<path fill="none" stroke="midnightblue" d="M1265.74,-68.4759C1341.98,-55.5372 1456.67,-36.0735 1521.9,-25.0018"/>
<polygon fill="midnightblue" stroke="midnightblue" points="1264.99,-65.0539 1255.71,-70.1779 1266.16,-71.9552 1264.99,-65.0539"/>
</g>
<!-- Node15 -->
<g id="node15" class="node"><title>Node15</title>
<g id="a_node15"><a xlink:href="testQcDaq_8cxx.html" target="_top" xlink:title="Modules/Daq/test/testQcDaq.cxx">
<polygon fill="none" stroke="black" points="301.5,-6 301.5,-25 464.5,-25 464.5,-6 301.5,-6"/>
<text text-anchor="middle" x="383" y="-13" font-family="Helvetica,sans-Serif" font-size="10.00">Modules/Daq/test/testQcDaq.cxx</text>
</a>
</g>
</g>
<!-- Node12&#45;&gt;Node15 -->
<g id="edge14" class="edge"><title>Node12&#45;&gt;Node15</title>
<path fill="none" stroke="midnightblue" d="M1112.4,-67.052C835.151,-33.438 761.675,-57.7355 488,-31 471.883,-29.4255 454.439,-27.2201 438.485,-25.0036"/>
<polygon fill="midnightblue" stroke="midnightblue" points="1112,-70.5287 1122.35,-68.2723 1112.85,-63.5808 1112,-70.5287"/>
</g>
<!-- Node12&#45;&gt;Node16 -->
<g id="edge15" class="edge"><title>Node12&#45;&gt;Node16</title>
<path fill="none" stroke="midnightblue" d="M1112.35,-67.0709C677.281,-18.8846 561.566,-80.7646 131,-31 125.538,-30.3687 119.876,-29.5542 114.228,-28.6337"/>
<polygon fill="midnightblue" stroke="midnightblue" points="1112.03,-70.5571 1122.36,-68.1927 1112.81,-63.6007 1112.03,-70.5571"/>
</g>
<!-- Node17 -->
<g id="node17" class="node"><title>Node17</title>
<g id="a_node17"><a xlink:href="testQcExample_8cxx.html" target="_top" xlink:title="Modules/Example/test\l/testQcExample.cxx">
<polygon fill="none" stroke="black" points="140,-0.5 140,-30.5 254,-30.5 254,-0.5 140,-0.5"/>
<text text-anchor="start" x="148" y="-18.5" font-family="Helvetica,sans-Serif" font-size="10.00">Modules/Example/test</text>
<text text-anchor="middle" x="197" y="-7.5" font-family="Helvetica,sans-Serif" font-size="10.00">/testQcExample.cxx</text>
</a>
</g>
</g>
<!-- Node12&#45;&gt;Node17 -->
<g id="edge16" class="edge"><title>Node12&#45;&gt;Node17</title>
<path fill="none" stroke="midnightblue" d="M1112.34,-67.0605C748.489,-25.416 652.216,-66.2844 292,-31 279.713,-29.7964 266.591,-28.0771 254.144,-26.2407"/>
<polygon fill="midnightblue" stroke="midnightblue" points="1112.02,-70.5469 1122.36,-68.22 1112.83,-63.5933 1112.02,-70.5469"/>
</g>
<!-- Node18 -->
<g id="node18" class="node"><title>Node18</title>
<polygon fill="none" stroke="#bfbfbf" points="636,-0.5 636,-30.5 750,-30.5 750,-0.5 636,-0.5"/>
<text text-anchor="start" x="644" y="-18.5" font-family="Helvetica,sans-Serif" font-size="10.00">Modules/Skeleton/test</text>
<text text-anchor="middle" x="693" y="-7.5" font-family="Helvetica,sans-Serif" font-size="10.00">/.testEmpty.cxx</text>
</g>
<!-- Node12&#45;&gt;Node18 -->
<g id="edge17" class="edge"><title>Node12&#45;&gt;Node18</title>
<path fill="none" stroke="midnightblue" d="M1112.28,-66.9902C954.769,-44.6299 911.952,-55.4957 759,-31 756.104,-30.5362 753.144,-30.0247 750.161,-29.4792"/>
<polygon fill="midnightblue" stroke="midnightblue" points="1111.93,-70.4757 1122.33,-68.439 1112.93,-63.5474 1111.93,-70.4757"/>
</g>
<!-- Node19 -->
<g id="node19" class="node"><title>Node19</title>
<g id="a_node19"><a xlink:href="testQcSkeleton_8cxx.html" target="_top" xlink:title="Modules/Skeleton/test\l/testQcSkeleton.cxx">
<polygon fill="none" stroke="black" points="497,-0.5 497,-30.5 611,-30.5 611,-0.5 497,-0.5"/>
<text text-anchor="start" x="505" y="-18.5" font-family="Helvetica,sans-Serif" font-size="10.00">Modules/Skeleton/test</text>
<text text-anchor="middle" x="554" y="-7.5" font-family="Helvetica,sans-Serif" font-size="10.00">/testQcSkeleton.cxx</text>
</a>
</g>
</g>
<!-- Node12&#45;&gt;Node19 -->
<g id="edge18" class="edge"><title>Node12&#45;&gt;Node19</title>
<path fill="none" stroke="midnightblue" d="M1112.28,-67.022C896.519,-39.297 838.372,-59.7117 627,-31 621.879,-30.3043 616.575,-29.4721 611.272,-28.5628"/>
<polygon fill="midnightblue" stroke="midnightblue" points="1111.97,-70.5114 1122.34,-68.3348 1112.88,-63.5702 1111.97,-70.5114"/>
</g>
<!-- Node30&#45;&gt;Node5 -->
<g id="edge31" class="edge"><title>Node30&#45;&gt;Node5</title>
<path fill="none" stroke="midnightblue" d="M2344.66,-61.3056C2328.14,-49.0999 2307.93,-34.1772 2295.52,-25.007"/>
<polygon fill="midnightblue" stroke="midnightblue" points="2342.78,-64.2699 2352.91,-67.396 2346.94,-58.6393 2342.78,-64.2699"/>
</g>
<!-- Node30&#45;&gt;Node13 -->
<g id="edge33" class="edge"><title>Node30&#45;&gt;Node13</title>
<path fill="none" stroke="midnightblue" d="M2295.17,-75.3704C2256.19,-72.4513 2208.1,-69.1391 2165,-67 1618.33,-39.8709 1478.76,-84.1141 934,-31 919.979,-29.633 904.799,-27.3758 891.105,-25.0448"/>
<polygon fill="midnightblue" stroke="midnightblue" points="2295.15,-78.8791 2305.39,-76.1424 2295.68,-71.899 2295.15,-78.8791"/>
</g>
<!-- Node31 -->
<g id="node31" class="node"><title>Node31</title>
<polygon fill="none" stroke="#bfbfbf" points="2566.5,-0.5 2566.5,-30.5 2709.5,-30.5 2709.5,-0.5 2566.5,-0.5"/>
<text text-anchor="start" x="2574.5" y="-18.5" font-family="Helvetica,sans-Serif" font-size="10.00">Framework/src/Infrastructure</text>
<text text-anchor="middle" x="2638" y="-7.5" font-family="Helvetica,sans-Serif" font-size="10.00">Generator.cxx</text>
</g>
<!-- Node30&#45;&gt;Node31 -->
<g id="edge32" class="edge"><title>Node30&#45;&gt;Node31</title>
<path fill="none" stroke="midnightblue" d="M2439.31,-65.0515C2482.8,-54.425 2538.8,-40.7414 2580.25,-30.6109"/>
<polygon fill="midnightblue" stroke="midnightblue" points="2438.27,-61.7022 2429.39,-67.476 2439.94,-68.5021 2438.27,-61.7022"/>
</g>
<!-- Node32 -->
<g id="node32" class="node"><title>Node32</title>
<g id="a_node32"><a xlink:href="TaskRunnerFactory_8cxx.html" target="_top" xlink:title="Framework/src/TaskRunner\lFactory.cxx">
<polygon fill="none" stroke="black" points="2728,-0.5 2728,-30.5 2866,-30.5 2866,-0.5 2728,-0.5"/>
<text text-anchor="start" x="2736" y="-18.5" font-family="Helvetica,sans-Serif" font-size="10.00">Framework/src/TaskRunner</text>
<text text-anchor="middle" x="2797" y="-7.5" font-family="Helvetica,sans-Serif" font-size="10.00">Factory.cxx</text>
</a>
</g>
</g>
<!-- Node30&#45;&gt;Node32 -->
<g id="edge34" class="edge"><title>Node30&#45;&gt;Node32</title>
<path fill="none" stroke="midnightblue" d="M2448.85,-71.1045C2519.05,-61.414 2625.65,-46.2085 2718,-31 2721.16,-30.4788 2724.4,-29.9342 2727.66,-29.3747"/>
<polygon fill="midnightblue" stroke="midnightblue" points="2448.19,-67.662 2438.77,-72.4936 2449.15,-74.5966 2448.19,-67.662"/>
</g>
<!-- Node33 -->
<g id="node33" class="node"><title>Node33</title>
<g id="a_node33"><a xlink:href="testTaskRunner_8cxx.html" target="_top" xlink:title="Framework/test/testTaskRunner.cxx">
<polygon fill="none" stroke="black" points="2372,-6 2372,-25 2548,-25 2548,-6 2372,-6"/>
<text text-anchor="middle" x="2460" y="-13" font-family="Helvetica,sans-Serif" font-size="10.00">Framework/test/testTaskRunner.cxx</text>
</a>
</g>
</g>
<!-- Node30&#45;&gt;Node33 -->
<g id="edge35" class="edge"><title>Node30&#45;&gt;Node33</title>
<path fill="none" stroke="midnightblue" d="M2399.34,-61.3056C2415.86,-49.0999 2436.07,-34.1772 2448.48,-25.007"/>
<polygon fill="midnightblue" stroke="midnightblue" points="2397.06,-58.6393 2391.09,-67.396 2401.22,-64.2699 2397.06,-58.6393"/>
</g>
<!-- Node35&#45;&gt;Node15 -->
<g id="edge41" class="edge"><title>Node35&#45;&gt;Node15</title>
<path fill="none" stroke="midnightblue" d="M302.849,-142.15C246.47,-135.088 170.588,-121.46 152,-98 143.444,-87.2011 143.36,-77.7324 152,-67 162.989,-53.3496 262.086,-35.4423 326.867,-25.0294"/>
<polygon fill="midnightblue" stroke="midnightblue" points="302.429,-145.625 312.777,-143.352 303.27,-138.676 302.429,-145.625"/>
</g>
<!-- Node35&#45;&gt;Node26 -->
<g id="edge40" class="edge"><title>Node35&#45;&gt;Node26</title>
<path fill="none" stroke="midnightblue" d="M367,-124.25C367,-113.017 367,-100.377 367,-92.1945"/>
<polygon fill="midnightblue" stroke="midnightblue" points="363.5,-124.396 367,-134.396 370.5,-124.396 363.5,-124.396"/>
</g>
<!-- Node36&#45;&gt;Node27 -->
<g id="edge43" class="edge"><title>Node36&#45;&gt;Node27</title>
<path fill="none" stroke="midnightblue" d="M1725.08,-131.228C1756.79,-120.713 1796.78,-107.451 1826.55,-97.5765"/>
<polygon fill="midnightblue" stroke="midnightblue" points="1723.92,-127.926 1715.53,-134.396 1726.12,-134.57 1723.92,-127.926"/>
</g>
<!-- Node37&#45;&gt;Node16 -->
<g id="edge46" class="edge"><title>Node37&#45;&gt;Node16</title>
<path fill="none" stroke="midnightblue" d="M147.036,-126.543C124.707,-99.2533 87.2581,-53.4821 68.4748,-30.5247"/>
<polygon fill="midnightblue" stroke="midnightblue" points="144.401,-128.85 153.442,-134.374 149.819,-124.418 144.401,-128.85"/>
</g>
<!-- Node37&#45;&gt;Node17 -->
<g id="edge47" class="edge"><title>Node37&#45;&gt;Node17</title>
<path fill="none" stroke="midnightblue" d="M150.093,-125.226C141.423,-108.593 133.694,-85.9027 142,-67 148.623,-51.9277 162.211,-39.3815 174.223,-30.5644"/>
<polygon fill="midnightblue" stroke="midnightblue" points="147.224,-127.264 155.193,-134.246 153.318,-123.818 147.224,-127.264"/>
</g>
<!-- Node37&#45;&gt;Node28 -->
<g id="edge45" class="edge"><title>Node37&#45;&gt;Node28</title>
<path fill="none" stroke="midnightblue" d="M182.642,-126.447C190.281,-116.899 198.997,-106.004 205.739,-97.5765"/>
<polygon fill="midnightblue" stroke="midnightblue" points="179.797,-124.401 176.283,-134.396 185.263,-128.774 179.797,-124.401"/>
</g>
<!-- Node38&#45;&gt;Node19 -->
<g id="edge50" class="edge"><title>Node38&#45;&gt;Node19</title>
<path fill="none" stroke="midnightblue" d="M518.051,-128.719C506.95,-120.762 496.107,-110.479 490,-98 483.943,-85.6248 483.99,-79.3979 490,-67 497.594,-51.3347 512.665,-39.0648 526.275,-30.5439"/>
<polygon fill="midnightblue" stroke="midnightblue" points="516.251,-131.725 526.516,-134.347 520.127,-125.896 516.251,-131.725"/>
</g>
<!-- Node38&#45;&gt;Node29 -->
<g id="edge49" class="edge"><title>Node38&#45;&gt;Node29</title>
<path fill="none" stroke="midnightblue" d="M555,-124.108C555,-115.154 555,-105.323 555,-97.5765"/>
<polygon fill="midnightblue" stroke="midnightblue" points="551.5,-124.396 555,-134.396 558.5,-124.396 551.5,-124.396"/>
</g>
</g>
</svg>
