<?xml version="1.0" encoding="UTF-8" standalone="no"?>
<!DOCTYPE svg PUBLIC "-//W3C//DTD SVG 1.1//EN"
 "http://www.w3.org/Graphics/SVG/1.1/DTD/svg11.dtd">
<!-- Generated by graphviz version 2.38.0 (20140413.2041)
 -->
<!-- Title: Framework/include/QualityControl/QcInfoLogger.h Pages: 1 -->
<!--zoomable 173 -->
<svg id="main" version="1.1" xmlns="http://www.w3.org/2000/svg" xmlns:xlink="http://www.w3.org/1999/xlink" xml:space="preserve" onload="init(evt)">
<style type="text/css"><![CDATA[
.edge:hover path { stroke: red; }
.edge:hover polygon { stroke: red; fill: red; }
]]></style>
<script type="text/javascript"><![CDATA[
var edges = document.getElementsByTagName('g');
if (edges && edges.length) {
  for (var i=0;i<edges.length;i++) {
    if (edges[i].id.substr(0,4)=='edge') {
      edges[i].setAttribute('class','edge');
    }
  }
}
]]></script>
        <defs>
                <circle id="rim" cx="0" cy="0" r="7"/>
                <circle id="rim2" cx="0" cy="0" r="3.5"/>
                <g id="zoomPlus">
                        <use xlink:href="#rim" fill="#404040">
                                <set attributeName="fill" to="#808080" begin="zoomplus.mouseover" end="zoomplus.mouseout"/>
                        </use>
                        <path d="M-4,0h8M0,-4v8" fill="none" stroke="white" stroke-width="1.5" pointer-events="none"/>
                </g>
                <g id="zoomMin">
                        <use xlink:href="#rim" fill="#404040">
                                <set attributeName="fill" to="#808080" begin="zoomminus.mouseover" end="zoomminus.mouseout"/>
                        </use>
                        <path d="M-4,0h8" fill="none" stroke="white" stroke-width="1.5" pointer-events="none"/>
                </g>
                <g id="dirArrow">
                        <path fill="none" stroke="white" stroke-width="1.5" d="M0,-3.0v7 M-2.5,-0.5L0,-3.0L2.5,-0.5"/>
                </g>
               <g id="resetDef">
                       <use xlink:href="#rim2" fill="#404040">
                               <set attributeName="fill" to="#808080" begin="reset.mouseover" end="reset.mouseout"/>
                       </use>
               </g>
        </defs>

<script type="text/javascript">
var viewWidth = 3355;
var viewHeight = 173;
var sectionId = 'dynsection-1';
</script>
<script xlink:href="svgpan.js"/>
<svg id="graph" class="graph">
<g id="viewport">
<title>Framework/include/QualityControl/QcInfoLogger.h</title>
<!-- Node1 -->
<g id="node1" class="node"><title>Node1</title>
<polygon fill="#bfbfbf" stroke="black" points="2332.5,-134.5 2332.5,-164.5 2465.5,-164.5 2465.5,-134.5 2332.5,-134.5"/>
<text text-anchor="start" x="2340.5" y="-152.5" font-family="Helvetica,sans-Serif" font-size="10.00">Framework/include/Quality</text>
<text text-anchor="middle" x="2399" y="-141.5" font-family="Helvetica,sans-Serif" font-size="10.00">Control/QcInfoLogger.h</text>
</g>
<!-- Node2 -->
<g id="node2" class="node"><title>Node2</title>
<g id="a_node2"><a xlink:href="Checker_8h.html" target="_top" xlink:title="Framework/include/Quality\lControl/Checker.h">
<polygon fill="none" stroke="black" points="616.5,-67.5 616.5,-97.5 749.5,-97.5 749.5,-67.5 616.5,-67.5"/>
<text text-anchor="start" x="624.5" y="-85.5" font-family="Helvetica,sans-Serif" font-size="10.00">Framework/include/Quality</text>
<text text-anchor="middle" x="683" y="-74.5" font-family="Helvetica,sans-Serif" font-size="10.00">Control/Checker.h</text>
</a>
</g>
</g>
<!-- Node1&#45;&gt;Node2 -->
<g id="edge1" class="edge"><title>Node1&#45;&gt;Node2</title>
<path fill="none" stroke="midnightblue" d="M2321.9,-145.579C2033.42,-134.652 1020.46,-96.2827 749.875,-86.0331"/>
<polygon fill="midnightblue" stroke="midnightblue" points="2322.13,-149.091 2332.26,-145.972 2322.4,-142.096 2322.13,-149.091"/>
</g>
<!-- Node10 -->
<g id="node10" class="node"><title>Node10</title>
<g id="a_node10"><a xlink:href="TaskFactory_8h.html" target="_top" xlink:title="Framework/include/Quality\lControl/TaskFactory.h">
<polygon fill="none" stroke="black" points="1619.5,-67.5 1619.5,-97.5 1752.5,-97.5 1752.5,-67.5 1619.5,-67.5"/>
<text text-anchor="start" x="1627.5" y="-85.5" font-family="Helvetica,sans-Serif" font-size="10.00">Framework/include/Quality</text>
<text text-anchor="middle" x="1686" y="-74.5" font-family="Helvetica,sans-Serif" font-size="10.00">Control/TaskFactory.h</text>
</a>
</g>
</g>
<!-- Node1&#45;&gt;Node10 -->
<g id="edge9" class="edge"><title>Node1&#45;&gt;Node10</title>
<path fill="none" stroke="midnightblue" d="M2322.07,-145.122C2202.04,-139.241 1963.11,-125.074 1762,-98 1758.94,-97.5878 1755.81,-97.1326 1752.66,-96.6455"/>
<polygon fill="midnightblue" stroke="midnightblue" points="2322.1,-148.628 2332.26,-145.616 2322.44,-141.636 2322.1,-148.628"/>
</g>
<!-- Node11 -->
<g id="node11" class="node"><title>Node11</title>
<g id="a_node11"><a xlink:href="TaskRunner_8cxx.html" target="_top" xlink:title="Framework/src/TaskRunner.cxx">
<polygon fill="none" stroke="black" points="1228.5,-6 1228.5,-25 1385.5,-25 1385.5,-6 1228.5,-6"/>
<text text-anchor="middle" x="1307" y="-13" font-family="Helvetica,sans-Serif" font-size="10.00">Framework/src/TaskRunner.cxx</text>
</a>
</g>
</g>
<!-- Node1&#45;&gt;Node11 -->
<g id="edge22" class="edge"><title>Node1&#45;&gt;Node11</title>
<path fill="none" stroke="midnightblue" d="M2322.03,-148.6C2180.35,-147.672 1869.16,-140.448 1611,-98 1505.59,-80.6683 1383.89,-42.2777 1332.25,-25.1001"/>
<polygon fill="midnightblue" stroke="midnightblue" points="2322.32,-152.102 2332.34,-148.659 2322.36,-145.102 2322.32,-152.102"/>
</g>
<!-- Node18 -->
<g id="node18" class="node"><title>Node18</title>
<g id="a_node18"><a xlink:href="DatabaseFactory_8cxx.html" target="_top" xlink:title="Framework/src/DatabaseFactory.cxx">
<polygon fill="none" stroke="black" points="1770.5,-73 1770.5,-92 1949.5,-92 1949.5,-73 1770.5,-73"/>
<text text-anchor="middle" x="1860" y="-80" font-family="Helvetica,sans-Serif" font-size="10.00">Framework/src/DatabaseFactory.cxx</text>
</a>
</g>
</g>
<!-- Node1&#45;&gt;Node18 -->
<g id="edge17" class="edge"><title>Node1&#45;&gt;Node18</title>
<path fill="none" stroke="midnightblue" d="M2322.05,-140.403C2234.16,-130.983 2086.06,-114.592 1959,-98 1945.05,-96.1781 1930.01,-94.0574 1915.98,-92.0095"/>
<polygon fill="midnightblue" stroke="midnightblue" points="2321.89,-143.905 2332.21,-141.489 2322.63,-136.945 2321.89,-143.905"/>
</g>
<!-- Node19 -->
<g id="node19" class="node"><title>Node19</title>
<g id="a_node19"><a xlink:href="InformationService_8cxx.html" target="_top" xlink:title="Framework/src/Information\lService.cxx">
<polygon fill="none" stroke="black" points="1968,-67.5 1968,-97.5 2102,-97.5 2102,-67.5 1968,-67.5"/>
<text text-anchor="start" x="1976" y="-85.5" font-family="Helvetica,sans-Serif" font-size="10.00">Framework/src/Information</text>
<text text-anchor="middle" x="2035" y="-74.5" font-family="Helvetica,sans-Serif" font-size="10.00">Service.cxx</text>
</a>
</g>
</g>
<!-- Node1&#45;&gt;Node19 -->
<g id="edge18" class="edge"><title>Node1&#45;&gt;Node19</title>
<path fill="none" stroke="midnightblue" d="M2322.11,-135.228C2264.29,-125.185 2183.14,-110.956 2112,-98 2108.79,-97.415 2105.5,-96.8123 2102.18,-96.2003"/>
<polygon fill="midnightblue" stroke="midnightblue" points="2321.82,-138.729 2332.27,-136.991 2323.02,-131.832 2321.82,-138.729"/>
</g>
<!-- Node20 -->
<g id="node20" class="node"><title>Node20</title>
<g id="a_node20"><a xlink:href="MySqlDatabase_8cxx.html" target="_top" xlink:title="Framework/src/MySqlDatabase.cxx">
<polygon fill="none" stroke="black" points="2120.5,-73 2120.5,-92 2293.5,-92 2293.5,-73 2120.5,-73"/>
<text text-anchor="middle" x="2207" y="-80" font-family="Helvetica,sans-Serif" font-size="10.00">Framework/src/MySqlDatabase.cxx</text>
</a>
</g>
</g>
<!-- Node1&#45;&gt;Node20 -->
<g id="edge19" class="edge"><title>Node1&#45;&gt;Node20</title>
<path fill="none" stroke="midnightblue" d="M2347.63,-131.108C2310.27,-118.462 2261.33,-101.892 2232.13,-92.007"/>
<polygon fill="midnightblue" stroke="midnightblue" points="2346.74,-134.504 2357.34,-134.396 2348.99,-127.874 2346.74,-134.504"/>
</g>
<!-- Node21 -->
<g id="node21" class="node"><title>Node21</title>
<g id="a_node21"><a xlink:href="ObjectsManager_8cxx.html" target="_top" xlink:title="Framework/src/ObjectsManager.cxx">
<polygon fill="none" stroke="black" points="2311.5,-73 2311.5,-92 2486.5,-92 2486.5,-73 2311.5,-73"/>
<text text-anchor="middle" x="2399" y="-80" font-family="Helvetica,sans-Serif" font-size="10.00">Framework/src/ObjectsManager.cxx</text>
</a>
</g>
</g>
<!-- Node1&#45;&gt;Node21 -->
<g id="edge20" class="edge"><title>Node1&#45;&gt;Node21</title>
<path fill="none" stroke="midnightblue" d="M2399,-124.25C2399,-113.017 2399,-100.377 2399,-92.1945"/>
<polygon fill="midnightblue" stroke="midnightblue" points="2395.5,-124.396 2399,-134.396 2402.5,-124.396 2395.5,-124.396"/>
</g>
<!-- Node22 -->
<g id="node22" class="node"><title>Node22</title>
<g id="a_node22"><a xlink:href="RepositoryBenchmark_8cxx.html" target="_top" xlink:title="Framework/src/Repository\lBenchmark.cxx">
<polygon fill="none" stroke="black" points="2505,-67.5 2505,-97.5 2637,-97.5 2637,-67.5 2505,-67.5"/>
<text text-anchor="start" x="2513" y="-85.5" font-family="Helvetica,sans-Serif" font-size="10.00">Framework/src/Repository</text>
<text text-anchor="middle" x="2571" y="-74.5" font-family="Helvetica,sans-Serif" font-size="10.00">Benchmark.cxx</text>
</a>
</g>
</g>
<!-- Node1&#45;&gt;Node22 -->
<g id="edge21" class="edge"><title>Node1&#45;&gt;Node22</title>
<path fill="none" stroke="midnightblue" d="M2445.79,-130.819C2473.43,-120.371 2507.96,-107.323 2533.75,-97.5765"/>
<polygon fill="midnightblue" stroke="midnightblue" points="2444.44,-127.587 2436.32,-134.396 2446.91,-134.135 2444.44,-127.587"/>
</g>
<!-- Node23 -->
<g id="node23" class="node"><title>Node23</title>
<g id="a_node23"><a xlink:href="testQcInfoLogger_8cxx.html" target="_top" xlink:title="Framework/test/testQcInfo\lLogger.cxx">
<polygon fill="none" stroke="black" points="2655,-67.5 2655,-97.5 2789,-97.5 2789,-67.5 2655,-67.5"/>
<text text-anchor="start" x="2663" y="-85.5" font-family="Helvetica,sans-Serif" font-size="10.00">Framework/test/testQcInfo</text>
<text text-anchor="middle" x="2722" y="-74.5" font-family="Helvetica,sans-Serif" font-size="10.00">Logger.cxx</text>
</a>
</g>
</g>
<!-- Node1&#45;&gt;Node23 -->
<g id="edge23" class="edge"><title>Node1&#45;&gt;Node23</title>
<path fill="none" stroke="midnightblue" d="M2475.5,-133.105C2530.06,-122.126 2602.72,-107.504 2655,-96.9835"/>
<polygon fill="midnightblue" stroke="midnightblue" points="2474.65,-129.707 2465.53,-135.111 2476.03,-136.569 2474.65,-129.707"/>
</g>
<!-- Node24 -->
<g id="node24" class="node"><title>Node24</title>
<g id="a_node24"><a xlink:href="DaqTask_8cxx.html" target="_top" xlink:title="Modules/Daq/src/DaqTask.cxx">
<polygon fill="none" stroke="black" points="2807,-73 2807,-92 2959,-92 2959,-73 2807,-73"/>
<text text-anchor="middle" x="2883" y="-80" font-family="Helvetica,sans-Serif" font-size="10.00">Modules/Daq/src/DaqTask.cxx</text>
</a>
</g>
</g>
<!-- Node1&#45;&gt;Node24 -->
<g id="edge24" class="edge"><title>Node1&#45;&gt;Node24</title>
<path fill="none" stroke="midnightblue" d="M2475.88,-139.765C2556.33,-130.392 2686.23,-114.598 2798,-98 2809.99,-96.2188 2822.91,-94.1131 2834.96,-92.0666"/>
<polygon fill="midnightblue" stroke="midnightblue" points="2475.36,-136.301 2465.84,-140.932 2476.17,-143.255 2475.36,-136.301"/>
</g>
<!-- Node25 -->
<g id="node25" class="node"><title>Node25</title>
<g id="a_node25"><a xlink:href="BenchmarkTask_8cxx.html" target="_top" xlink:title="Modules/Example/src\l/BenchmarkTask.cxx">
<polygon fill="none" stroke="black" points="2977.5,-67.5 2977.5,-97.5 3088.5,-97.5 3088.5,-67.5 2977.5,-67.5"/>
<text text-anchor="start" x="2985.5" y="-85.5" font-family="Helvetica,sans-Serif" font-size="10.00">Modules/Example/src</text>
<text text-anchor="middle" x="3033" y="-74.5" font-family="Helvetica,sans-Serif" font-size="10.00">/BenchmarkTask.cxx</text>
</a>
</g>
</g>
<!-- Node1&#45;&gt;Node25 -->
<g id="edge25" class="edge"><title>Node1&#45;&gt;Node25</title>
<path fill="none" stroke="midnightblue" d="M2476.24,-144.859C2586.03,-138.954 2793.32,-125.116 2968,-98 2971.08,-97.5211 2974.24,-96.982 2977.42,-96.4006"/>
<polygon fill="midnightblue" stroke="midnightblue" points="2475.72,-141.381 2465.92,-145.405 2476.09,-148.371 2475.72,-141.381"/>
</g>
<!-- Node26 -->
<g id="node26" class="node"><title>Node26</title>
<g id="a_node26"><a xlink:href="ExampleTask_8cxx.html" target="_top" xlink:title="Modules/Example/src\l/ExampleTask.cxx">
<polygon fill="none" stroke="black" points="3106.5,-67.5 3106.5,-97.5 3217.5,-97.5 3217.5,-67.5 3106.5,-67.5"/>
<text text-anchor="start" x="3114.5" y="-85.5" font-family="Helvetica,sans-Serif" font-size="10.00">Modules/Example/src</text>
<text text-anchor="middle" x="3162" y="-74.5" font-family="Helvetica,sans-Serif" font-size="10.00">/ExampleTask.cxx</text>
</a>
</g>
</g>
<!-- Node1&#45;&gt;Node26 -->
<g id="edge26" class="edge"><title>Node1&#45;&gt;Node26</title>
<path fill="none" stroke="midnightblue" d="M2476.06,-146.724C2605.29,-142.899 2873.61,-131.331 3098,-98 3100.7,-97.5983 3103.46,-97.1444 3106.25,-96.6517"/>
<polygon fill="midnightblue" stroke="midnightblue" points="2475.76,-143.231 2465.87,-147.018 2475.96,-150.228 2475.76,-143.231"/>
</g>
<!-- Node27 -->
<g id="node27" class="node"><title>Node27</title>
<g id="a_node27"><a xlink:href="SkeletonTask_8cxx.html" target="_top" xlink:title="Modules/Skeleton/src\l/SkeletonTask.cxx">
<polygon fill="none" stroke="black" points="3235.5,-67.5 3235.5,-97.5 3346.5,-97.5 3346.5,-67.5 3235.5,-67.5"/>
<text text-anchor="start" x="3243.5" y="-85.5" font-family="Helvetica,sans-Serif" font-size="10.00">Modules/Skeleton/src</text>
<text text-anchor="middle" x="3291" y="-74.5" font-family="Helvetica,sans-Serif" font-size="10.00">/SkeletonTask.cxx</text>
</a>
</g>
</g>
<!-- Node1&#45;&gt;Node27 -->
<g id="edge27" class="edge"><title>Node1&#45;&gt;Node27</title>
<path fill="none" stroke="midnightblue" d="M2475.89,-147.955C2622.65,-146 2952.54,-137.197 3227,-98 3229.71,-97.6134 3232.47,-97.1719 3235.25,-96.6891"/>
<polygon fill="midnightblue" stroke="midnightblue" points="2475.6,-144.458 2465.64,-148.084 2475.69,-151.458 2475.6,-144.458"/>
</g>
<!-- Node3 -->
<g id="node3" class="node"><title>Node3</title>
<g id="a_node3"><a xlink:href="Checker_8cxx.html" target="_top" xlink:title="Framework/src/Checker.cxx">
<polygon fill="none" stroke="black" points="0,-6 0,-25 140,-25 140,-6 0,-6"/>
<text text-anchor="middle" x="70" y="-13" font-family="Helvetica,sans-Serif" font-size="10.00">Framework/src/Checker.cxx</text>
</a>
</g>
</g>
<!-- Node2&#45;&gt;Node3 -->
<g id="edge2" class="edge"><title>Node2&#45;&gt;Node3</title>
<path fill="none" stroke="midnightblue" d="M606.089,-76.3437C502.1,-68.8895 311.017,-53.4859 149,-31 137.122,-29.3514 124.309,-27.1741 112.529,-25.0094"/>
<polygon fill="midnightblue" stroke="midnightblue" points="605.96,-79.8433 616.183,-77.0619 606.457,-72.861 605.96,-79.8433"/>
</g>
<!-- Node4 -->
<g id="node4" class="node"><title>Node4</title>
<g id="a_node4"><a xlink:href="CheckerFactory_8cxx.html" target="_top" xlink:title="Framework/src/CheckerFactory.cxx">
<polygon fill="none" stroke="black" points="158.5,-6 158.5,-25 331.5,-25 331.5,-6 158.5,-6"/>
<text text-anchor="middle" x="245" y="-13" font-family="Helvetica,sans-Serif" font-size="10.00">Framework/src/CheckerFactory.cxx</text>
</a>
</g>
</g>
<!-- Node2&#45;&gt;Node4 -->
<g id="edge3" class="edge"><title>Node2&#45;&gt;Node4</title>
<path fill="none" stroke="midnightblue" d="M606.505,-70.2786C537.187,-60.0924 432.232,-44.6256 341,-31 328.08,-29.0704 314.185,-26.9802 301.088,-25.0035"/>
<polygon fill="midnightblue" stroke="midnightblue" points="606.065,-73.7514 616.468,-71.7423 607.083,-66.8258 606.065,-73.7514"/>
</g>
<!-- Node5 -->
<g id="node5" class="node"><title>Node5</title>
<g id="a_node5"><a xlink:href="runBasic_8cxx.html" target="_top" xlink:title="This is an executable showing QC Task&#39;s usage in Data Processing Layer. ">
<polygon fill="none" stroke="black" points="350,-6 350,-25 492,-25 492,-6 350,-6"/>
<text text-anchor="middle" x="421" y="-13" font-family="Helvetica,sans-Serif" font-size="10.00">Framework/src/runBasic.cxx</text>
</a>
</g>
</g>
<!-- Node2&#45;&gt;Node5 -->
<g id="edge4" class="edge"><title>Node2&#45;&gt;Node5</title>
<path fill="none" stroke="midnightblue" d="M616.452,-64.9899C565.106,-52.2516 496.167,-35.1484 455.377,-25.0287"/>
<polygon fill="midnightblue" stroke="midnightblue" points="615.924,-68.465 626.472,-67.476 617.609,-61.671 615.924,-68.465"/>
</g>
<!-- Node6 -->
<g id="node6" class="node"><title>Node6</title>
<g id="a_node6"><a xlink:href="runMergerTest_8cxx.html" target="_top" xlink:title="This is DPL workflow to see HistoMerger in action. ">
<polygon fill="none" stroke="black" points="510.5,-6 510.5,-25 677.5,-25 677.5,-6 510.5,-6"/>
<text text-anchor="middle" x="594" y="-13" font-family="Helvetica,sans-Serif" font-size="10.00">Framework/src/runMergerTest.cxx</text>
</a>
</g>
</g>
<!-- Node2&#45;&gt;Node6 -->
<g id="edge5" class="edge"><title>Node2&#45;&gt;Node6</title>
<path fill="none" stroke="midnightblue" d="M655.349,-61.3056C638.637,-49.0999 618.204,-34.1772 605.648,-25.007"/>
<polygon fill="midnightblue" stroke="midnightblue" points="653.548,-64.3245 663.688,-67.396 657.677,-58.6716 653.548,-64.3245"/>
</g>
<!-- Node7 -->
<g id="node7" class="node"><title>Node7</title>
<g id="a_node7"><a xlink:href="runReadout_8cxx.html" target="_top" xlink:title="This is an executable showing QC Task&#39;s usage in Data Processing Layer with Readout as external data ...">
<polygon fill="none" stroke="black" points="696,-6 696,-25 850,-25 850,-6 696,-6"/>
<text text-anchor="middle" x="773" y="-13" font-family="Helvetica,sans-Serif" font-size="10.00">Framework/src/runReadout.cxx</text>
</a>
</g>
</g>
<!-- Node2&#45;&gt;Node7 -->
<g id="edge6" class="edge"><title>Node2&#45;&gt;Node7</title>
<path fill="none" stroke="midnightblue" d="M710.961,-61.3056C727.862,-49.0999 748.524,-34.1772 761.221,-25.007"/>
<polygon fill="midnightblue" stroke="midnightblue" points="708.586,-58.7036 702.529,-67.396 712.685,-64.3784 708.586,-58.7036"/>
</g>
<!-- Node8 -->
<g id="node8" class="node"><title>Node8</title>
<g id="a_node8"><a xlink:href="testChecker_8cxx.html" target="_top" xlink:title="Framework/test/testChecker.cxx">
<polygon fill="none" stroke="black" points="868,-6 868,-25 1028,-25 1028,-6 868,-6"/>
<text text-anchor="middle" x="948" y="-13" font-family="Helvetica,sans-Serif" font-size="10.00">Framework/test/testChecker.cxx</text>
</a>
</g>
</g>
<!-- Node2&#45;&gt;Node8 -->
<g id="edge7" class="edge"><title>Node2&#45;&gt;Node8</title>
<path fill="none" stroke="midnightblue" d="M749.986,-65.0694C801.953,-52.3228 871.886,-35.1694 913.229,-25.0287"/>
<polygon fill="midnightblue" stroke="midnightblue" points="749.053,-61.6945 740.175,-67.476 750.721,-68.4929 749.053,-61.6945"/>
</g>
<!-- Node9 -->
<g id="node9" class="node"><title>Node9</title>
<g id="a_node9"><a xlink:href="testWorkflow_8cxx.html" target="_top" xlink:title="Framework/test/testWorkflow.cxx">
<polygon fill="none" stroke="black" points="1046,-6 1046,-25 1210,-25 1210,-6 1046,-6"/>
<text text-anchor="middle" x="1128" y="-13" font-family="Helvetica,sans-Serif" font-size="10.00">Framework/test/testWorkflow.cxx</text>
</a>
</g>
</g>
<!-- Node2&#45;&gt;Node9 -->
<g id="edge8" class="edge"><title>Node2&#45;&gt;Node9</title>
<path fill="none" stroke="midnightblue" d="M759.898,-70.8985C831.641,-60.9203 941.633,-45.3992 1037,-31 1049.5,-29.1132 1062.95,-27.01 1075.57,-25.0037"/>
<polygon fill="midnightblue" stroke="midnightblue" points="759.02,-67.4868 749.597,-72.3297 759.984,-74.4202 759.02,-67.4868"/>
</g>
<!-- Node10&#45;&gt;Node11 -->
<g id="edge10" class="edge"><title>Node10&#45;&gt;Node11</title>
<path fill="none" stroke="midnightblue" d="M1609.19,-68.3267C1533.76,-55.391 1420.93,-36.0401 1356.62,-25.0095"/>
<polygon fill="midnightblue" stroke="midnightblue" points="1608.67,-71.7881 1619.11,-70.0289 1609.85,-64.8889 1608.67,-71.7881"/>
</g>
<!-- Node12 -->
<g id="node12" class="node"><title>Node12</title>
<g id="a_node12"><a xlink:href="testTaskInterface_8cxx.html" target="_top" xlink:title="Framework/test/testTaskInterface.cxx">
<polygon fill="none" stroke="black" points="1403.5,-6 1403.5,-25 1586.5,-25 1586.5,-6 1403.5,-6"/>
<text text-anchor="middle" x="1495" y="-13" font-family="Helvetica,sans-Serif" font-size="10.00">Framework/test/testTaskInterface.cxx</text>
</a>
</g>
</g>
<!-- Node10&#45;&gt;Node12 -->
<g id="edge11" class="edge"><title>Node10&#45;&gt;Node12</title>
<path fill="none" stroke="midnightblue" d="M1634.89,-64.1075C1597.74,-51.4622 1549.05,-34.8923 1520,-25.007"/>
<polygon fill="midnightblue" stroke="midnightblue" points="1633.96,-67.4876 1644.56,-67.396 1636.22,-60.8608 1633.96,-67.4876"/>
</g>
<!-- Node13 -->
<g id="node13" class="node"><title>Node13</title>
<g id="a_node13"><a xlink:href="testQcDaq_8cxx.html" target="_top" xlink:title="Modules/Daq/test/testQcDaq.cxx">
<polygon fill="none" stroke="black" points="1604.5,-6 1604.5,-25 1767.5,-25 1767.5,-6 1604.5,-6"/>
<text text-anchor="middle" x="1686" y="-13" font-family="Helvetica,sans-Serif" font-size="10.00">Modules/Daq/test/testQcDaq.cxx</text>
</a>
</g>
</g>
<!-- Node10&#45;&gt;Node13 -->
<g id="edge12" class="edge"><title>Node10&#45;&gt;Node13</title>
<path fill="none" stroke="midnightblue" d="M1686,-57.2495C1686,-46.017 1686,-33.3767 1686,-25.1945"/>
<polygon fill="midnightblue" stroke="midnightblue" points="1682.5,-57.3959 1686,-67.396 1689.5,-57.396 1682.5,-57.3959"/>
</g>
<!-- Node14 -->
<g id="node14" class="node"><title>Node14</title>
<polygon fill="none" stroke="#bfbfbf" points="1786,-0.5 1786,-30.5 1900,-30.5 1900,-0.5 1786,-0.5"/>
<text text-anchor="start" x="1794" y="-18.5" font-family="Helvetica,sans-Serif" font-size="10.00">Modules/Example/test</text>
<text text-anchor="middle" x="1843" y="-7.5" font-family="Helvetica,sans-Serif" font-size="10.00">/testFactory.cxx</text>
</g>
<!-- Node10&#45;&gt;Node14 -->
<g id="edge13" class="edge"><title>Node10&#45;&gt;Node14</title>
<path fill="none" stroke="midnightblue" d="M1729.37,-63.5442C1754.49,-53.143 1785.66,-40.238 1809,-30.5765"/>
<polygon fill="midnightblue" stroke="midnightblue" points="1727.97,-60.3368 1720.07,-67.396 1730.64,-66.8045 1727.97,-60.3368"/>
</g>
<!-- Node15 -->
<g id="node15" class="node"><title>Node15</title>
<g id="a_node15"><a xlink:href="testQcExample_8cxx.html" target="_top" xlink:title="Modules/Example/test\l/testQcExample.cxx">
<polygon fill="none" stroke="black" points="1918,-0.5 1918,-30.5 2032,-30.5 2032,-0.5 1918,-0.5"/>
<text text-anchor="start" x="1926" y="-18.5" font-family="Helvetica,sans-Serif" font-size="10.00">Modules/Example/test</text>
<text text-anchor="middle" x="1975" y="-7.5" font-family="Helvetica,sans-Serif" font-size="10.00">/testQcExample.cxx</text>
</a>
</g>
</g>
<!-- Node10&#45;&gt;Node15 -->
<g id="edge14" class="edge"><title>Node10&#45;&gt;Node15</title>
<path fill="none" stroke="midnightblue" d="M1758.31,-65.2362C1807.58,-54.1539 1871.93,-39.6822 1917.67,-29.3949"/>
<polygon fill="midnightblue" stroke="midnightblue" points="1757.34,-61.8669 1748.35,-67.476 1758.88,-68.6963 1757.34,-61.8669"/>
</g>
<!-- Node16 -->
<g id="node16" class="node"><title>Node16</title>
<polygon fill="none" stroke="#bfbfbf" points="2050,-0.5 2050,-30.5 2164,-30.5 2164,-0.5 2050,-0.5"/>
<text text-anchor="start" x="2058" y="-18.5" font-family="Helvetica,sans-Serif" font-size="10.00">Modules/Skeleton/test</text>
<text text-anchor="middle" x="2107" y="-7.5" font-family="Helvetica,sans-Serif" font-size="10.00">/.testEmpty.cxx</text>
</g>
<!-- Node10&#45;&gt;Node16 -->
<g id="edge15" class="edge"><title>Node10&#45;&gt;Node16</title>
<path fill="none" stroke="midnightblue" d="M1762.61,-66.9717C1887.16,-47.5202 1920.95,-51.8907 2041,-31 2043.89,-30.4972 2046.84,-29.9543 2049.82,-29.3839"/>
<polygon fill="midnightblue" stroke="midnightblue" points="1762.02,-63.5218 1752.69,-68.5414 1763.11,-70.4358 1762.02,-63.5218"/>
</g>
<!-- Node17 -->
<g id="node17" class="node"><title>Node17</title>
<g id="a_node17"><a xlink:href="testQcSkeleton_8cxx.html" target="_top" xlink:title="Modules/Skeleton/test\l/testQcSkeleton.cxx">
<polygon fill="none" stroke="black" points="2182,-0.5 2182,-30.5 2296,-30.5 2296,-0.5 2182,-0.5"/>
<text text-anchor="start" x="2190" y="-18.5" font-family="Helvetica,sans-Serif" font-size="10.00">Modules/Skeleton/test</text>
<text text-anchor="middle" x="2239" y="-7.5" font-family="Helvetica,sans-Serif" font-size="10.00">/testQcSkeleton.cxx</text>
</a>
</g>
</g>
<!-- Node10&#45;&gt;Node17 -->
<g id="edge16" class="edge"><title>Node10&#45;&gt;Node17</title>
<path fill="none" stroke="midnightblue" d="M1762.6,-67.023C1945.36,-42.3675 1994.93,-58.2434 2173,-31 2175.9,-30.5565 2178.86,-30.0612 2181.85,-29.5287"/>
<polygon fill="midnightblue" stroke="midnightblue" points="1762.1,-63.5597 1752.66,-68.3859 1763.05,-70.4948 1762.1,-63.5597"/>
</g>
</g>
</svg>
        <g id="navigator" transform="translate(0 0)" fill="#404254">
                <rect fill="#f2f5e9" fill-opacity="0.5" stroke="#606060" stroke-width=".5" x="0" y="0" width="60" height="60"/>
                <use id="zoomplus" xlink:href="#zoomPlus" x="17" y="9" onmousedown="handleZoom(evt,'in')"/>
                <use id="zoomminus" xlink:href="#zoomMin" x="42" y="9" onmousedown="handleZoom(evt,'out')"/>
                <use id="reset" xlink:href="#resetDef" x="30" y="36" onmousedown="handleReset()"/>
                <g id="arrowUp" xlink:href="#dirArrow" transform="translate(30 24)" onmousedown="handlePan(0,-1)">
                  <use xlink:href="#rim" fill="#404040">
                        <set attributeName="fill" to="#808080" begin="arrowUp.mouseover" end="arrowUp.mouseout"/>
                  </use>
                  <path fill="none" stroke="white" stroke-width="1.5" d="M0,-3.0v7 M-2.5,-0.5L0,-3.0L2.5,-0.5"/>
                </g>
                <g id="arrowRight" xlink:href="#dirArrow" transform="rotate(90) translate(36 -43)" onmousedown="handlePan(1,0)">
                  <use xlink:href="#rim" fill="#404040">
                        <set attributeName="fill" to="#808080" begin="arrowRight.mouseover" end="arrowRight.mouseout"/>
                  </use>
                  <path fill="none" stroke="white" stroke-width="1.5" d="M0,-3.0v7 M-2.5,-0.5L0,-3.0L2.5,-0.5"/>
                </g>
                <g id="arrowDown" xlink:href="#dirArrow" transform="rotate(180) translate(-30 -48)" onmousedown="handlePan(0,1)">
                  <use xlink:href="#rim" fill="#404040">
                        <set attributeName="fill" to="#808080" begin="arrowDown.mouseover" end="arrowDown.mouseout"/>
                  </use>
                  <path fill="none" stroke="white" stroke-width="1.5" d="M0,-3.0v7 M-2.5,-0.5L0,-3.0L2.5,-0.5"/>
                </g>
                <g id="arrowLeft" xlink:href="#dirArrow" transform="rotate(270) translate(-36 17)" onmousedown="handlePan(-1,0)">
                  <use xlink:href="#rim" fill="#404040">
                        <set attributeName="fill" to="#808080" begin="arrowLeft.mouseover" end="arrowLeft.mouseout"/>
                  </use>
                  <path fill="none" stroke="white" stroke-width="1.5" d="M0,-3.0v7 M-2.5,-0.5L0,-3.0L2.5,-0.5"/>
                </g>
        </g>
        <svg viewBox="0 0 15 15" width="100%" height="30px" preserveAspectRatio="xMaxYMin meet">
         <g id="arrow_out" transform="scale(0.3 0.3)">
          <a xlink:href="QcInfoLogger_8h__dep__incl_org.svg" target="_base">
           <rect id="button" ry="5" rx="5" y="6" x="6" height="38" width="38"
                fill="#f2f5e9" fill-opacity="0.5" stroke="#606060" stroke-width="1.0"/>
           <path id="arrow"
             d="M 11.500037,31.436501 C 11.940474,20.09759 22.043105,11.32322 32.158766,21.979434 L 37.068811,17.246167 C 37.068811,17.246167 37.088388,32 37.088388,32 L 22.160133,31.978069 C 22.160133,31.978069 26.997745,27.140456 26.997745,27.140456 C 18.528582,18.264221 13.291696,25.230495 11.500037,31.436501 z"
             style="fill:#404040;"/>
          </a>
         </g>
        </svg>
</svg>
