<?xml version="1.0" encoding="UTF-8" standalone="no"?>
<!DOCTYPE svg PUBLIC "-//W3C//DTD SVG 1.1//EN"
 "http://www.w3.org/Graphics/SVG/1.1/DTD/svg11.dtd">
<!-- Generated by graphviz version 2.38.0 (20140413.2041)
 -->
<!-- Title: Framework/include/QualityControl/TaskInterface.h Pages: 1 -->
<!--zoomable 240 -->
<svg id="main" version="1.1" xmlns="http://www.w3.org/2000/svg" xmlns:xlink="http://www.w3.org/1999/xlink" xml:space="preserve" onload="init(evt)">
<style type="text/css"><![CDATA[
.edge:hover path { stroke: red; }
.edge:hover polygon { stroke: red; fill: red; }
]]></style>
<script type="text/javascript"><![CDATA[
var edges = document.getElementsByTagName('g');
if (edges && edges.length) {
  for (var i=0;i<edges.length;i++) {
    if (edges[i].id.substr(0,4)=='edge') {
      edges[i].setAttribute('class','edge');
    }
  }
}
]]></script>
        <defs>
                <circle id="rim" cx="0" cy="0" r="7"/>
                <circle id="rim2" cx="0" cy="0" r="3.5"/>
                <g id="zoomPlus">
                        <use xlink:href="#rim" fill="#404040">
                                <set attributeName="fill" to="#808080" begin="zoomplus.mouseover" end="zoomplus.mouseout"/>
                        </use>
                        <path d="M-4,0h8M0,-4v8" fill="none" stroke="white" stroke-width="1.5" pointer-events="none"/>
                </g>
                <g id="zoomMin">
                        <use xlink:href="#rim" fill="#404040">
                                <set attributeName="fill" to="#808080" begin="zoomminus.mouseover" end="zoomminus.mouseout"/>
                        </use>
                        <path d="M-4,0h8" fill="none" stroke="white" stroke-width="1.5" pointer-events="none"/>
                </g>
                <g id="dirArrow">
                        <path fill="none" stroke="white" stroke-width="1.5" d="M0,-3.0v7 M-2.5,-0.5L0,-3.0L2.5,-0.5"/>
                </g>
               <g id="resetDef">
                       <use xlink:href="#rim2" fill="#404040">
                               <set attributeName="fill" to="#808080" begin="reset.mouseover" end="reset.mouseout"/>
                       </use>
               </g>
        </defs>

<script type="text/javascript">
var viewWidth = 2816;
var viewHeight = 240;
var sectionId = 'dynsection-1';
</script>
<script xlink:href="svgpan.js"/>
<svg id="graph" class="graph">
<g id="viewport">
<title>Framework/include/QualityControl/TaskInterface.h</title>
<!-- Node1 -->
<g id="node1" class="node"><title>Node1</title>
<polygon fill="#bfbfbf" stroke="black" points="1205.5,-201.5 1205.5,-231.5 1338.5,-231.5 1338.5,-201.5 1205.5,-201.5"/>
<text text-anchor="start" x="1213.5" y="-219.5" font-family="Helvetica,sans-Serif" font-size="10.00">Framework/include/Quality</text>
<text text-anchor="middle" x="1272" y="-208.5" font-family="Helvetica,sans-Serif" font-size="10.00">Control/TaskInterface.h</text>
</g>
<!-- Node2 -->
<g id="node2" class="node"><title>Node2</title>
<g id="a_node2"><a xlink:href="QcInfoLogger_8h.html" target="_top" xlink:title="Framework/include/Quality\lControl/QcInfoLogger.h">
<polygon fill="none" stroke="black" points="1477.5,-134.5 1477.5,-164.5 1610.5,-164.5 1610.5,-134.5 1477.5,-134.5"/>
<text text-anchor="start" x="1485.5" y="-152.5" font-family="Helvetica,sans-Serif" font-size="10.00">Framework/include/Quality</text>
<text text-anchor="middle" x="1544" y="-141.5" font-family="Helvetica,sans-Serif" font-size="10.00">Control/QcInfoLogger.h</text>
</a>
</g>
</g>
<!-- Node1&#45;&gt;Node2 -->
<g id="edge1" class="edge"><title>Node1&#45;&gt;Node2</title>
<path fill="none" stroke="midnightblue" d="M1340.55,-199.119C1385.06,-188.483 1442.47,-174.763 1484.95,-164.611"/>
<polygon fill="midnightblue" stroke="midnightblue" points="1339.6,-195.748 1330.69,-201.476 1341.22,-202.556 1339.6,-195.748"/>
</g>
<!-- Node13 -->
<g id="node13" class="node"><title>Node13</title>
<g id="a_node13"><a xlink:href="testTaskInterface_8cxx.html" target="_top" xlink:title="Framework/test/testTaskInterface.cxx">
<polygon fill="none" stroke="black" points="511.5,-6 511.5,-25 694.5,-25 694.5,-6 511.5,-6"/>
<text text-anchor="middle" x="603" y="-13" font-family="Helvetica,sans-Serif" font-size="10.00">Framework/test/testTaskInterface.cxx</text>
</a>
</g>
</g>
<!-- Node1&#45;&gt;Node13 -->
<g id="edge37" class="edge"><title>Node1&#45;&gt;Node13</title>
<path fill="none" stroke="midnightblue" d="M1195.22,-215.031C1066.93,-213.135 815.333,-204.338 737,-165 671.211,-131.962 622.489,-51.8031 607.684,-25.2246"/>
<polygon fill="midnightblue" stroke="midnightblue" points="1195.32,-218.533 1205.36,-215.171 1195.41,-211.534 1195.32,-218.533"/>
</g>
<!-- Node19 -->
<g id="node19" class="node"><title>Node19</title>
<g id="a_node19"><a xlink:href="DatabaseFactory_8cxx.html" target="_top" xlink:title="Framework/src/DatabaseFactory.cxx">
<polygon fill="none" stroke="black" points="2447.5,-73 2447.5,-92 2626.5,-92 2626.5,-73 2447.5,-73"/>
<text text-anchor="middle" x="2537" y="-80" font-family="Helvetica,sans-Serif" font-size="10.00">Framework/src/DatabaseFactory.cxx</text>
</a>
</g>
</g>
<!-- Node1&#45;&gt;Node19 -->
<g id="edge35" class="edge"><title>Node1&#45;&gt;Node19</title>
<path fill="none" stroke="midnightblue" d="M1349.14,-215.669C1421.6,-213.237 1531.65,-202.762 1619,-165 1639.32,-156.213 1637.27,-141.777 1658,-134 1820.46,-73.0587 2265.28,-114.593 2438,-98 2453.48,-96.5133 2470.23,-94.2938 2485.48,-92.0356"/>
<polygon fill="midnightblue" stroke="midnightblue" points="1348.62,-212.183 1338.73,-215.972 1348.83,-219.18 1348.62,-212.183"/>
</g>
<!-- Node29 -->
<g id="node29" class="node"><title>Node29</title>
<g id="a_node29"><a xlink:href="TaskRunner_8h.html" target="_top" xlink:title="Framework/include/Quality\lControl/TaskRunner.h">
<polygon fill="none" stroke="black" points="404.5,-67.5 404.5,-97.5 537.5,-97.5 537.5,-67.5 404.5,-67.5"/>
<text text-anchor="start" x="412.5" y="-85.5" font-family="Helvetica,sans-Serif" font-size="10.00">Framework/include/Quality</text>
<text text-anchor="middle" x="471" y="-74.5" font-family="Helvetica,sans-Serif" font-size="10.00">Control/TaskRunner.h</text>
</a>
</g>
</g>
<!-- Node1&#45;&gt;Node29 -->
<g id="edge29" class="edge"><title>Node1&#45;&gt;Node29</title>
<path fill="none" stroke="midnightblue" d="M1195.37,-213.748C1046.25,-209.66 722.387,-197.263 616,-165 567.086,-150.166 516.495,-116.884 489.929,-97.7558"/>
<polygon fill="midnightblue" stroke="midnightblue" points="1195.27,-217.247 1205.36,-214.017 1195.46,-210.249 1195.27,-217.247"/>
</g>
<!-- Node33 -->
<g id="node33" class="node"><title>Node33</title>
<g id="a_node33"><a xlink:href="TaskInterface_8cxx.html" target="_top" xlink:title="Framework/src/TaskInterface.cxx">
<polygon fill="none" stroke="black" points="1825,-140 1825,-159 1989,-159 1989,-140 1825,-140"/>
<text text-anchor="middle" x="1907" y="-147" font-family="Helvetica,sans-Serif" font-size="10.00">Framework/src/TaskInterface.cxx</text>
</a>
</g>
</g>
<!-- Node1&#45;&gt;Node33 -->
<g id="edge36" class="edge"><title>Node1&#45;&gt;Node33</title>
<path fill="none" stroke="midnightblue" d="M1348.97,-209.95C1454.52,-201.976 1650.02,-185.905 1816,-165 1829.33,-163.321 1843.71,-161.182 1857.02,-159.067"/>
<polygon fill="midnightblue" stroke="midnightblue" points="1348.44,-206.48 1338.73,-210.72 1348.96,-213.46 1348.44,-206.48"/>
</g>
<!-- Node34 -->
<g id="node34" class="node"><title>Node34</title>
<g id="a_node34"><a xlink:href="DaqTask_8h.html" target="_top" xlink:title="Modules/Daq/include\l/Daq/DaqTask.h">
<polygon fill="none" stroke="black" points="746,-134.5 746,-164.5 854,-164.5 854,-134.5 746,-134.5"/>
<text text-anchor="start" x="754" y="-152.5" font-family="Helvetica,sans-Serif" font-size="10.00">Modules/Daq/include</text>
<text text-anchor="middle" x="800" y="-141.5" font-family="Helvetica,sans-Serif" font-size="10.00">/Daq/DaqTask.h</text>
</a>
</g>
</g>
<!-- Node1&#45;&gt;Node34 -->
<g id="edge38" class="edge"><title>Node1&#45;&gt;Node34</title>
<path fill="none" stroke="midnightblue" d="M1194.99,-205.185C1119.94,-195.092 1002.6,-179.208 901,-165 885.825,-162.878 869.373,-160.534 854.241,-158.361"/>
<polygon fill="midnightblue" stroke="midnightblue" points="1194.92,-208.706 1205.3,-206.569 1195.85,-201.768 1194.92,-208.706"/>
</g>
<!-- Node35 -->
<g id="node35" class="node"><title>Node35</title>
<g id="a_node35"><a xlink:href="BenchmarkTask_8h.html" target="_top" xlink:title="Modules/Example/include\l/Example/BenchmarkTask.h">
<polygon fill="none" stroke="black" points="1667,-134.5 1667,-164.5 1807,-164.5 1807,-134.5 1667,-134.5"/>
<text text-anchor="start" x="1675" y="-152.5" font-family="Helvetica,sans-Serif" font-size="10.00">Modules/Example/include</text>
<text text-anchor="middle" x="1737" y="-141.5" font-family="Helvetica,sans-Serif" font-size="10.00">/Example/BenchmarkTask.h</text>
</a>
</g>
</g>
<!-- Node1&#45;&gt;Node35 -->
<g id="edge41" class="edge"><title>Node1&#45;&gt;Node35</title>
<path fill="none" stroke="midnightblue" d="M1348.63,-206.238C1425.65,-196.718 1547.74,-181.055 1653,-165 1657.54,-164.308 1662.2,-163.571 1666.91,-162.811"/>
<polygon fill="midnightblue" stroke="midnightblue" points="1348.03,-202.786 1338.53,-207.483 1348.88,-209.733 1348.03,-202.786"/>
</g>
<!-- Node36 -->
<g id="node36" class="node"><title>Node36</title>
<g id="a_node36"><a xlink:href="ExampleTask_8h.html" target="_top" xlink:title="Modules/Example/include\l/Example/ExampleTask.h">
<polygon fill="none" stroke="black" points="910.5,-134.5 910.5,-164.5 1039.5,-164.5 1039.5,-134.5 910.5,-134.5"/>
<text text-anchor="start" x="918.5" y="-152.5" font-family="Helvetica,sans-Serif" font-size="10.00">Modules/Example/include</text>
<text text-anchor="middle" x="975" y="-141.5" font-family="Helvetica,sans-Serif" font-size="10.00">/Example/ExampleTask.h</text>
</a>
</g>
</g>
<!-- Node1&#45;&gt;Node36 -->
<g id="edge43" class="edge"><title>Node1&#45;&gt;Node36</title>
<path fill="none" stroke="midnightblue" d="M1198.05,-199.316C1149.24,-188.633 1085.92,-174.775 1039.22,-164.555"/>
<polygon fill="midnightblue" stroke="midnightblue" points="1197.4,-202.757 1207.92,-201.476 1198.9,-195.919 1197.4,-202.757"/>
</g>
<!-- Node37 -->
<g id="node37" class="node"><title>Node37</title>
<g id="a_node37"><a xlink:href="SkeletonTask_8h.html" target="_top" xlink:title="Modules/Skeleton/include\l/Skeleton/SkeletonTask.h">
<polygon fill="none" stroke="black" points="1207.5,-134.5 1207.5,-164.5 1336.5,-164.5 1336.5,-134.5 1207.5,-134.5"/>
<text text-anchor="start" x="1215.5" y="-152.5" font-family="Helvetica,sans-Serif" font-size="10.00">Modules/Skeleton/include</text>
<text text-anchor="middle" x="1272" y="-141.5" font-family="Helvetica,sans-Serif" font-size="10.00">/Skeleton/SkeletonTask.h</text>
</a>
</g>
</g>
<!-- Node1&#45;&gt;Node37 -->
<g id="edge47" class="edge"><title>Node1&#45;&gt;Node37</title>
<path fill="none" stroke="midnightblue" d="M1272,-191.108C1272,-182.154 1272,-172.323 1272,-164.577"/>
<polygon fill="midnightblue" stroke="midnightblue" points="1268.5,-191.396 1272,-201.396 1275.5,-191.396 1268.5,-191.396"/>
</g>
<!-- Node3 -->
<g id="node3" class="node"><title>Node3</title>
<g id="a_node3"><a xlink:href="Checker_8h.html" target="_top" xlink:title="Framework/include/Quality\lControl/Checker.h">
<polygon fill="none" stroke="black" points="1952.5,-67.5 1952.5,-97.5 2085.5,-97.5 2085.5,-67.5 1952.5,-67.5"/>
<text text-anchor="start" x="1960.5" y="-85.5" font-family="Helvetica,sans-Serif" font-size="10.00">Framework/include/Quality</text>
<text text-anchor="middle" x="2019" y="-74.5" font-family="Helvetica,sans-Serif" font-size="10.00">Control/Checker.h</text>
</a>
</g>
</g>
<!-- Node2&#45;&gt;Node3 -->
<g id="edge2" class="edge"><title>Node2&#45;&gt;Node3</title>
<path fill="none" stroke="midnightblue" d="M1620.59,-134.657C1622.07,-134.432 1623.54,-134.213 1625,-134 1765.74,-113.458 1802.37,-119.343 1943,-98 1946.05,-97.5364 1949.17,-97.0391 1952.32,-96.5178"/>
<polygon fill="midnightblue" stroke="midnightblue" points="1620.03,-131.202 1610.69,-136.211 1621.11,-138.117 1620.03,-131.202"/>
</g>
<!-- Node11 -->
<g id="node11" class="node"><title>Node11</title>
<g id="a_node11"><a xlink:href="TaskFactory_8h.html" target="_top" xlink:title="Framework/include/Quality\lControl/TaskFactory.h">
<polygon fill="none" stroke="black" points="1228.5,-67.5 1228.5,-97.5 1361.5,-97.5 1361.5,-67.5 1228.5,-67.5"/>
<text text-anchor="start" x="1236.5" y="-85.5" font-family="Helvetica,sans-Serif" font-size="10.00">Framework/include/Quality</text>
<text text-anchor="middle" x="1295" y="-74.5" font-family="Helvetica,sans-Serif" font-size="10.00">Control/TaskFactory.h</text>
</a>
</g>
</g>
<!-- Node2&#45;&gt;Node11 -->
<g id="edge10" class="edge"><title>Node2&#45;&gt;Node11</title>
<path fill="none" stroke="midnightblue" d="M1480.47,-131.917C1439.84,-121.31 1387.7,-107.699 1349.06,-97.6109"/>
<polygon fill="midnightblue" stroke="midnightblue" points="1479.72,-135.337 1490.28,-134.476 1481.49,-128.564 1479.72,-135.337"/>
</g>
<!-- Node12 -->
<g id="node12" class="node"><title>Node12</title>
<g id="a_node12"><a xlink:href="TaskRunner_8cxx.html" target="_top" xlink:title="Framework/src/TaskRunner.cxx">
<polygon fill="none" stroke="black" points="1290.5,-6 1290.5,-25 1447.5,-25 1447.5,-6 1290.5,-6"/>
<text text-anchor="middle" x="1369" y="-13" font-family="Helvetica,sans-Serif" font-size="10.00">Framework/src/TaskRunner.cxx</text>
</a>
</g>
</g>
<!-- Node2&#45;&gt;Node12 -->
<g id="edge23" class="edge"><title>Node2&#45;&gt;Node12</title>
<path fill="none" stroke="midnightblue" d="M1501.08,-129.918C1483.54,-121.387 1463.53,-110.402 1447,-98 1416.92,-75.4327 1388.09,-40.8726 1375.55,-25.003"/>
<polygon fill="midnightblue" stroke="midnightblue" points="1500,-133.278 1510.53,-134.398 1503,-126.952 1500,-133.278"/>
</g>
<!-- Node2&#45;&gt;Node19 -->
<g id="edge18" class="edge"><title>Node2&#45;&gt;Node19</title>
<path fill="none" stroke="midnightblue" d="M1620.57,-134.518C1622.06,-134.336 1623.54,-134.163 1625,-134 1984.47,-94.0451 2077.94,-132.251 2438,-98 2453.56,-96.5195 2470.42,-94.2878 2485.74,-92.0161"/>
<polygon fill="midnightblue" stroke="midnightblue" points="1620.09,-131.051 1610.64,-135.846 1621.02,-137.99 1620.09,-131.051"/>
</g>
<!-- Node20 -->
<g id="node20" class="node"><title>Node20</title>
<g id="a_node20"><a xlink:href="InformationService_8cxx.html" target="_top" xlink:title="Framework/src/Information\lService.cxx">
<polygon fill="none" stroke="black" points="2104,-67.5 2104,-97.5 2238,-97.5 2238,-67.5 2104,-67.5"/>
<text text-anchor="start" x="2112" y="-85.5" font-family="Helvetica,sans-Serif" font-size="10.00">Framework/src/Information</text>
<text text-anchor="middle" x="2171" y="-74.5" font-family="Helvetica,sans-Serif" font-size="10.00">Service.cxx</text>
</a>
</g>
</g>
<!-- Node2&#45;&gt;Node20 -->
<g id="edge19" class="edge"><title>Node2&#45;&gt;Node20</title>
<path fill="none" stroke="midnightblue" d="M1620.58,-134.584C1622.06,-134.381 1623.54,-134.186 1625,-134 1832.38,-107.547 1886.74,-125.385 2094,-98 2097.24,-97.5723 2100.54,-97.0974 2103.88,-96.5879"/>
<polygon fill="midnightblue" stroke="midnightblue" points="1620.06,-131.122 1610.66,-136.019 1621.06,-138.05 1620.06,-131.122"/>
</g>
<!-- Node21 -->
<g id="node21" class="node"><title>Node21</title>
<g id="a_node21"><a xlink:href="MySqlDatabase_8cxx.html" target="_top" xlink:title="Framework/src/MySqlDatabase.cxx">
<polygon fill="none" stroke="black" points="2256.5,-73 2256.5,-92 2429.5,-92 2429.5,-73 2256.5,-73"/>
<text text-anchor="middle" x="2343" y="-80" font-family="Helvetica,sans-Serif" font-size="10.00">Framework/src/MySqlDatabase.cxx</text>
</a>
</g>
</g>
<!-- Node2&#45;&gt;Node21 -->
<g id="edge20" class="edge"><title>Node2&#45;&gt;Node21</title>
<path fill="none" stroke="midnightblue" d="M1620.57,-134.546C1622.06,-134.355 1623.54,-134.173 1625,-134 1900,-101.545 1971.59,-126.708 2247,-98 2261.75,-96.4622 2277.71,-94.2683 2292.29,-92.051"/>
<polygon fill="midnightblue" stroke="midnightblue" points="1620.08,-131.081 1610.65,-135.919 1621.04,-138.015 1620.08,-131.081"/>
</g>
<!-- Node22 -->
<g id="node22" class="node"><title>Node22</title>
<g id="a_node22"><a xlink:href="ObjectsManager_8cxx.html" target="_top" xlink:title="Framework/src/ObjectsManager.cxx">
<polygon fill="none" stroke="black" points="1456.5,-73 1456.5,-92 1631.5,-92 1631.5,-73 1456.5,-73"/>
<text text-anchor="middle" x="1544" y="-80" font-family="Helvetica,sans-Serif" font-size="10.00">Framework/src/ObjectsManager.cxx</text>
</a>
</g>
</g>
<!-- Node2&#45;&gt;Node22 -->
<g id="edge21" class="edge"><title>Node2&#45;&gt;Node22</title>
<path fill="none" stroke="midnightblue" d="M1544,-124.25C1544,-113.017 1544,-100.377 1544,-92.1945"/>
<polygon fill="midnightblue" stroke="midnightblue" points="1540.5,-124.396 1544,-134.396 1547.5,-124.396 1540.5,-124.396"/>
</g>
<!-- Node23 -->
<g id="node23" class="node"><title>Node23</title>
<g id="a_node23"><a xlink:href="RepositoryBenchmark_8cxx.html" target="_top" xlink:title="Framework/src/Repository\lBenchmark.cxx">
<polygon fill="none" stroke="black" points="1650,-67.5 1650,-97.5 1782,-97.5 1782,-67.5 1650,-67.5"/>
<text text-anchor="start" x="1658" y="-85.5" font-family="Helvetica,sans-Serif" font-size="10.00">Framework/src/Repository</text>
<text text-anchor="middle" x="1716" y="-74.5" font-family="Helvetica,sans-Serif" font-size="10.00">Benchmark.cxx</text>
</a>
</g>
</g>
<!-- Node2&#45;&gt;Node23 -->
<g id="edge22" class="edge"><title>Node2&#45;&gt;Node23</title>
<path fill="none" stroke="midnightblue" d="M1590.79,-130.819C1618.43,-120.371 1652.96,-107.323 1678.75,-97.5765"/>
<polygon fill="midnightblue" stroke="midnightblue" points="1589.44,-127.587 1581.32,-134.396 1591.91,-134.135 1589.44,-127.587"/>
</g>
<!-- Node24 -->
<g id="node24" class="node"><title>Node24</title>
<g id="a_node24"><a xlink:href="testQcInfoLogger_8cxx.html" target="_top" xlink:title="Framework/test/testQcInfo\lLogger.cxx">
<polygon fill="none" stroke="black" points="1800,-67.5 1800,-97.5 1934,-97.5 1934,-67.5 1800,-67.5"/>
<text text-anchor="start" x="1808" y="-85.5" font-family="Helvetica,sans-Serif" font-size="10.00">Framework/test/testQcInfo</text>
<text text-anchor="middle" x="1867" y="-74.5" font-family="Helvetica,sans-Serif" font-size="10.00">Logger.cxx</text>
</a>
</g>
</g>
<!-- Node2&#45;&gt;Node24 -->
<g id="edge24" class="edge"><title>Node2&#45;&gt;Node24</title>
<path fill="none" stroke="midnightblue" d="M1620.5,-133.105C1675.06,-122.126 1747.72,-107.504 1800,-96.9835"/>
<polygon fill="midnightblue" stroke="midnightblue" points="1619.65,-129.707 1610.53,-135.111 1621.03,-136.569 1619.65,-129.707"/>
</g>
<!-- Node25 -->
<g id="node25" class="node"><title>Node25</title>
<g id="a_node25"><a xlink:href="DaqTask_8cxx.html" target="_top" xlink:title="Modules/Daq/src/DaqTask.cxx">
<polygon fill="none" stroke="black" points="724,-73 724,-92 876,-92 876,-73 724,-73"/>
<text text-anchor="middle" x="800" y="-80" font-family="Helvetica,sans-Serif" font-size="10.00">Modules/Daq/src/DaqTask.cxx</text>
</a>
</g>
</g>
<!-- Node2&#45;&gt;Node25 -->
<g id="edge25" class="edge"><title>Node2&#45;&gt;Node25</title>
<path fill="none" stroke="midnightblue" d="M1466.96,-141.911C1355.38,-132.349 1142.31,-114.017 961,-98 933.324,-95.5551 902.976,-92.8326 876.161,-90.413"/>
<polygon fill="midnightblue" stroke="midnightblue" points="1466.84,-145.414 1477.11,-142.78 1467.44,-138.439 1466.84,-145.414"/>
</g>
<!-- Node26 -->
<g id="node26" class="node"><title>Node26</title>
<g id="a_node26"><a xlink:href="BenchmarkTask_8cxx.html" target="_top" xlink:title="Modules/Example/src\l/BenchmarkTask.cxx">
<polygon fill="none" stroke="black" points="2644.5,-67.5 2644.5,-97.5 2755.5,-97.5 2755.5,-67.5 2644.5,-67.5"/>
<text text-anchor="start" x="2652.5" y="-85.5" font-family="Helvetica,sans-Serif" font-size="10.00">Modules/Example/src</text>
<text text-anchor="middle" x="2700" y="-74.5" font-family="Helvetica,sans-Serif" font-size="10.00">/BenchmarkTask.cxx</text>
</a>
</g>
</g>
<!-- Node2&#45;&gt;Node26 -->
<g id="edge26" class="edge"><title>Node2&#45;&gt;Node26</title>
<path fill="none" stroke="midnightblue" d="M1620.46,-137.816C1632.98,-136.342 1645.84,-134.995 1658,-134 2091.51,-98.5234 2204.7,-154.298 2636,-98 2638.71,-97.6461 2641.48,-97.2311 2644.26,-96.7696"/>
<polygon fill="midnightblue" stroke="midnightblue" points="1620.01,-134.345 1610.51,-139.021 1620.85,-141.294 1620.01,-134.345"/>
</g>
<!-- Node27 -->
<g id="node27" class="node"><title>Node27</title>
<g id="a_node27"><a xlink:href="ExampleTask_8cxx.html" target="_top" xlink:title="Modules/Example/src\l/ExampleTask.cxx">
<polygon fill="none" stroke="black" points="970.5,-67.5 970.5,-97.5 1081.5,-97.5 1081.5,-67.5 970.5,-67.5"/>
<text text-anchor="start" x="978.5" y="-85.5" font-family="Helvetica,sans-Serif" font-size="10.00">Modules/Example/src</text>
<text text-anchor="middle" x="1026" y="-74.5" font-family="Helvetica,sans-Serif" font-size="10.00">/ExampleTask.cxx</text>
</a>
</g>
</g>
<!-- Node2&#45;&gt;Node27 -->
<g id="edge27" class="edge"><title>Node2&#45;&gt;Node27</title>
<path fill="none" stroke="midnightblue" d="M1466.95,-142.578C1376.34,-135.002 1221.59,-120.154 1090,-98 1087.3,-97.5461 1084.55,-97.0498 1081.77,-96.5231"/>
<polygon fill="midnightblue" stroke="midnightblue" points="1466.88,-146.084 1477.13,-143.421 1467.45,-139.108 1466.88,-146.084"/>
</g>
<!-- Node28 -->
<g id="node28" class="node"><title>Node28</title>
<g id="a_node28"><a xlink:href="SkeletonTask_8cxx.html" target="_top" xlink:title="Modules/Skeleton/src\l/SkeletonTask.cxx">
<polygon fill="none" stroke="black" points="1099.5,-67.5 1099.5,-97.5 1210.5,-97.5 1210.5,-67.5 1099.5,-67.5"/>
<text text-anchor="start" x="1107.5" y="-85.5" font-family="Helvetica,sans-Serif" font-size="10.00">Modules/Skeleton/src</text>
<text text-anchor="middle" x="1155" y="-74.5" font-family="Helvetica,sans-Serif" font-size="10.00">/SkeletonTask.cxx</text>
</a>
</g>
</g>
<!-- Node2&#45;&gt;Node28 -->
<g id="edge28" class="edge"><title>Node2&#45;&gt;Node28</title>
<path fill="none" stroke="midnightblue" d="M1467.57,-138.135C1401.55,-128.821 1303.69,-114.155 1219,-98 1216.31,-97.4877 1213.57,-96.944 1210.8,-96.3793"/>
<polygon fill="midnightblue" stroke="midnightblue" points="1467.09,-141.602 1477.48,-139.527 1468.06,-134.67 1467.09,-141.602"/>
</g>
<!-- Node4 -->
<g id="node4" class="node"><title>Node4</title>
<g id="a_node4"><a xlink:href="Checker_8cxx.html" target="_top" xlink:title="Framework/src/Checker.cxx">
<polygon fill="none" stroke="black" points="1466,-6 1466,-25 1606,-25 1606,-6 1466,-6"/>
<text text-anchor="middle" x="1536" y="-13" font-family="Helvetica,sans-Serif" font-size="10.00">Framework/src/Checker.cxx</text>
</a>
</g>
</g>
<!-- Node3&#45;&gt;Node4 -->
<g id="edge3" class="edge"><title>Node3&#45;&gt;Node4</title>
<path fill="none" stroke="midnightblue" d="M1942.1,-66.9492C1796.21,-45.5415 1756.85,-51.7741 1615,-31 1603.41,-29.3026 1590.92,-27.158 1579.37,-25.0424"/>
<polygon fill="midnightblue" stroke="midnightblue" points="1941.92,-70.4609 1952.32,-68.4693 1942.95,-63.537 1941.92,-70.4609"/>
</g>
<!-- Node5 -->
<g id="node5" class="node"><title>Node5</title>
<g id="a_node5"><a xlink:href="CheckerFactory_8cxx.html" target="_top" xlink:title="Framework/src/CheckerFactory.cxx">
<polygon fill="none" stroke="black" points="2474.5,-6 2474.5,-25 2647.5,-25 2647.5,-6 2474.5,-6"/>
<text text-anchor="middle" x="2561" y="-13" font-family="Helvetica,sans-Serif" font-size="10.00">Framework/src/CheckerFactory.cxx</text>
</a>
</g>
</g>
<!-- Node3&#45;&gt;Node5 -->
<g id="edge4" class="edge"><title>Node3&#45;&gt;Node5</title>
<path fill="none" stroke="midnightblue" d="M2095.65,-66.9988C2260.25,-43.7894 2304.24,-50.9474 2465,-31 2478.97,-29.2669 2494.04,-27.1218 2508,-25.0177"/>
<polygon fill="midnightblue" stroke="midnightblue" points="2095.08,-63.5455 2085.67,-68.4224 2096.06,-70.4754 2095.08,-63.5455"/>
</g>
<!-- Node6 -->
<g id="node6" class="node"><title>Node6</title>
<g id="a_node6"><a xlink:href="runBasic_8cxx.html" target="_top" xlink:title="This is an executable showing QC Task&#39;s usage in Data Processing Layer. ">
<polygon fill="none" stroke="black" points="2666,-6 2666,-25 2808,-25 2808,-6 2666,-6"/>
<text text-anchor="middle" x="2737" y="-13" font-family="Helvetica,sans-Serif" font-size="10.00">Framework/src/runBasic.cxx</text>
</a>
</g>
</g>
<!-- Node3&#45;&gt;Node6 -->
<g id="edge5" class="edge"><title>Node3&#45;&gt;Node6</title>
<path fill="none" stroke="midnightblue" d="M2095.74,-67.0295C2345.05,-36.1583 2411.83,-60.969 2657,-31 2669.47,-29.4757 2682.94,-27.2587 2695.2,-25.0149"/>
<polygon fill="midnightblue" stroke="midnightblue" points="2095.14,-63.5778 2085.65,-68.2968 2096.01,-70.5233 2095.14,-63.5778"/>
</g>
<!-- Node7 -->
<g id="node7" class="node"><title>Node7</title>
<g id="a_node7"><a xlink:href="runMergerTest_8cxx.html" target="_top" xlink:title="This is DPL workflow to see HistoMerger in action. ">
<polygon fill="none" stroke="black" points="1756.5,-6 1756.5,-25 1923.5,-25 1923.5,-6 1756.5,-6"/>
<text text-anchor="middle" x="1840" y="-13" font-family="Helvetica,sans-Serif" font-size="10.00">Framework/src/runMergerTest.cxx</text>
</a>
</g>
</g>
<!-- Node3&#45;&gt;Node7 -->
<g id="edge6" class="edge"><title>Node3&#45;&gt;Node7</title>
<path fill="none" stroke="midnightblue" d="M1970.66,-63.9459C1935.89,-51.3213 1890.53,-34.8502 1863.43,-25.007"/>
<polygon fill="midnightblue" stroke="midnightblue" points="1969.57,-67.2725 1980.16,-67.396 1971.95,-60.6929 1969.57,-67.2725"/>
</g>
<!-- Node8 -->
<g id="node8" class="node"><title>Node8</title>
<g id="a_node8"><a xlink:href="runReadout_8cxx.html" target="_top" xlink:title="This is an executable showing QC Task&#39;s usage in Data Processing Layer with Readout as external data ...">
<polygon fill="none" stroke="black" points="1942,-6 1942,-25 2096,-25 2096,-6 1942,-6"/>
<text text-anchor="middle" x="2019" y="-13" font-family="Helvetica,sans-Serif" font-size="10.00">Framework/src/runReadout.cxx</text>
</a>
</g>
</g>
<!-- Node3&#45;&gt;Node8 -->
<g id="edge7" class="edge"><title>Node3&#45;&gt;Node8</title>
<path fill="none" stroke="midnightblue" d="M2019,-57.2495C2019,-46.017 2019,-33.3767 2019,-25.1945"/>
<polygon fill="midnightblue" stroke="midnightblue" points="2015.5,-57.3959 2019,-67.396 2022.5,-57.396 2015.5,-57.3959"/>
</g>
<!-- Node9 -->
<g id="node9" class="node"><title>Node9</title>
<g id="a_node9"><a xlink:href="testChecker_8cxx.html" target="_top" xlink:title="Framework/test/testChecker.cxx">
<polygon fill="none" stroke="black" points="2114,-6 2114,-25 2274,-25 2274,-6 2114,-6"/>
<text text-anchor="middle" x="2194" y="-13" font-family="Helvetica,sans-Serif" font-size="10.00">Framework/test/testChecker.cxx</text>
</a>
</g>
</g>
<!-- Node3&#45;&gt;Node9 -->
<g id="edge8" class="edge"><title>Node3&#45;&gt;Node9</title>
<path fill="none" stroke="midnightblue" d="M2066.7,-63.7838C2100.63,-51.1807 2144.71,-34.8082 2171.1,-25.007"/>
<polygon fill="midnightblue" stroke="midnightblue" points="2065.13,-60.633 2056.97,-67.396 2067.57,-67.195 2065.13,-60.633"/>
</g>
<!-- Node10 -->
<g id="node10" class="node"><title>Node10</title>
<g id="a_node10"><a xlink:href="testWorkflow_8cxx.html" target="_top" xlink:title="Framework/test/testWorkflow.cxx">
<polygon fill="none" stroke="black" points="2292,-6 2292,-25 2456,-25 2456,-6 2292,-6"/>
<text text-anchor="middle" x="2374" y="-13" font-family="Helvetica,sans-Serif" font-size="10.00">Framework/test/testWorkflow.cxx</text>
</a>
</g>
</g>
<!-- Node3&#45;&gt;Node10 -->
<g id="edge9" class="edge"><title>Node3&#45;&gt;Node10</title>
<path fill="none" stroke="midnightblue" d="M2095.79,-66.8624C2183.02,-50.6814 2272.55,-34.5935 2326.09,-25.0304"/>
<polygon fill="midnightblue" stroke="midnightblue" points="2094.91,-63.4658 2085.72,-68.7333 2096.19,-70.3481 2094.91,-63.4658"/>
</g>
<!-- Node11&#45;&gt;Node12 -->
<g id="edge11" class="edge"><title>Node11&#45;&gt;Node12</title>
<path fill="none" stroke="midnightblue" d="M1318.71,-60.6722C1332.37,-48.6707 1348.83,-34.2203 1359.1,-25.1945"/>
<polygon fill="midnightblue" stroke="midnightblue" points="1316.26,-58.1669 1311.06,-67.396 1320.88,-63.4261 1316.26,-58.1669"/>
</g>
<!-- Node11&#45;&gt;Node13 -->
<g id="edge12" class="edge"><title>Node11&#45;&gt;Node13</title>
<path fill="none" stroke="midnightblue" d="M1218.37,-67.0345C989.305,-37.9101 928.344,-55.1644 703,-31 687.912,-29.3821 671.603,-27.202 656.621,-25.0245"/>
<polygon fill="midnightblue" stroke="midnightblue" points="1217.98,-70.5132 1228.34,-68.3185 1218.87,-63.5704 1217.98,-70.5132"/>
</g>
<!-- Node14 -->
<g id="node14" class="node"><title>Node14</title>
<g id="a_node14"><a xlink:href="testQcDaq_8cxx.html" target="_top" xlink:title="Modules/Daq/test/testQcDaq.cxx">
<polygon fill="none" stroke="black" points="712.5,-6 712.5,-25 875.5,-25 875.5,-6 712.5,-6"/>
<text text-anchor="middle" x="794" y="-13" font-family="Helvetica,sans-Serif" font-size="10.00">Modules/Daq/test/testQcDaq.cxx</text>
</a>
</g>
</g>
<!-- Node11&#45;&gt;Node14 -->
<g id="edge13" class="edge"><title>Node11&#45;&gt;Node14</title>
<path fill="none" stroke="midnightblue" d="M1218.37,-66.9891C1069.63,-45.2272 1029.81,-50.3289 885,-31 871.838,-29.2433 857.646,-27.1014 844.474,-25.0089"/>
<polygon fill="midnightblue" stroke="midnightblue" points="1217.92,-70.4608 1228.32,-68.4619 1218.94,-63.5362 1217.92,-70.4608"/>
</g>
<!-- Node15 -->
<g id="node15" class="node"><title>Node15</title>
<polygon fill="none" stroke="#bfbfbf" points="1026,-0.5 1026,-30.5 1140,-30.5 1140,-0.5 1026,-0.5"/>
<text text-anchor="start" x="1034" y="-18.5" font-family="Helvetica,sans-Serif" font-size="10.00">Modules/Example/test</text>
<text text-anchor="middle" x="1083" y="-7.5" font-family="Helvetica,sans-Serif" font-size="10.00">/testFactory.cxx</text>
</g>
<!-- Node11&#45;&gt;Node15 -->
<g id="edge14" class="edge"><title>Node11&#45;&gt;Node15</title>
<path fill="none" stroke="midnightblue" d="M1239.37,-64.4442C1205.01,-53.9078 1161.44,-40.5495 1129.02,-30.6109"/>
<polygon fill="midnightblue" stroke="midnightblue" points="1238.67,-67.8908 1249.26,-67.476 1240.73,-61.1983 1238.67,-67.8908"/>
</g>
<!-- Node16 -->
<g id="node16" class="node"><title>Node16</title>
<g id="a_node16"><a xlink:href="testQcExample_8cxx.html" target="_top" xlink:title="Modules/Example/test\l/testQcExample.cxx">
<polygon fill="none" stroke="black" points="894,-0.5 894,-30.5 1008,-30.5 1008,-0.5 894,-0.5"/>
<text text-anchor="start" x="902" y="-18.5" font-family="Helvetica,sans-Serif" font-size="10.00">Modules/Example/test</text>
<text text-anchor="middle" x="951" y="-7.5" font-family="Helvetica,sans-Serif" font-size="10.00">/testQcExample.cxx</text>
</a>
</g>
</g>
<!-- Node11&#45;&gt;Node16 -->
<g id="edge15" class="edge"><title>Node11&#45;&gt;Node16</title>
<path fill="none" stroke="midnightblue" d="M1218.39,-66.9067C1127.68,-50.3218 1103.38,-48.1796 1017,-31 1014.12,-30.4279 1011.18,-29.8293 1008.21,-29.2148"/>
<polygon fill="midnightblue" stroke="midnightblue" points="1217.81,-70.3584 1228.28,-68.7231 1219.08,-63.4736 1217.81,-70.3584"/>
</g>
<!-- Node17 -->
<g id="node17" class="node"><title>Node17</title>
<polygon fill="none" stroke="#bfbfbf" points="1158,-0.5 1158,-30.5 1272,-30.5 1272,-0.5 1158,-0.5"/>
<text text-anchor="start" x="1166" y="-18.5" font-family="Helvetica,sans-Serif" font-size="10.00">Modules/Skeleton/test</text>
<text text-anchor="middle" x="1215" y="-7.5" font-family="Helvetica,sans-Serif" font-size="10.00">/.testEmpty.cxx</text>
</g>
<!-- Node11&#45;&gt;Node17 -->
<g id="edge16" class="edge"><title>Node11&#45;&gt;Node17</title>
<path fill="none" stroke="midnightblue" d="M1269.63,-60.8832C1257.47,-51.0054 1243.22,-39.4293 1232.32,-30.5765"/>
<polygon fill="midnightblue" stroke="midnightblue" points="1267.67,-63.8064 1277.64,-67.396 1272.09,-58.3736 1267.67,-63.8064"/>
</g>
<!-- Node18 -->
<g id="node18" class="node"><title>Node18</title>
<g id="a_node18"><a xlink:href="testQcSkeleton_8cxx.html" target="_top" xlink:title="Modules/Skeleton/test\l/testQcSkeleton.cxx">
<polygon fill="none" stroke="black" points="1624,-0.5 1624,-30.5 1738,-30.5 1738,-0.5 1624,-0.5"/>
<text text-anchor="start" x="1632" y="-18.5" font-family="Helvetica,sans-Serif" font-size="10.00">Modules/Skeleton/test</text>
<text text-anchor="middle" x="1681" y="-7.5" font-family="Helvetica,sans-Serif" font-size="10.00">/testQcSkeleton.cxx</text>
</a>
</g>
</g>
<!-- Node11&#45;&gt;Node18 -->
<g id="edge17" class="edge"><title>Node11&#45;&gt;Node18</title>
<path fill="none" stroke="midnightblue" d="M1371.6,-67.7306C1373.08,-67.4833 1374.55,-67.2395 1376,-67 1481.99,-49.534 1509.37,-50.536 1615,-31 1617.88,-30.4666 1620.83,-29.8991 1623.81,-29.3093"/>
<polygon fill="midnightblue" stroke="midnightblue" points="1370.99,-64.2832 1361.72,-69.4057 1372.16,-71.1847 1370.99,-64.2832"/>
</g>
<!-- Node29&#45;&gt;Node4 -->
<g id="edge30" class="edge"><title>Node29&#45;&gt;Node4</title>
<path fill="none" stroke="midnightblue" d="M547.546,-76.7383C595.62,-73.8005 658.923,-70.0283 715,-67 1044.24,-49.2199 1128.42,-68.4821 1456,-31 1468.62,-29.5559 1482.26,-27.335 1494.63,-25.062"/>
<polygon fill="midnightblue" stroke="midnightblue" points="547.294,-73.247 537.527,-77.3519 547.722,-80.2339 547.294,-73.247"/>
</g>
<!-- Node29&#45;&gt;Node12 -->
<g id="edge32" class="edge"><title>Node29&#45;&gt;Node12</title>
<path fill="none" stroke="midnightblue" d="M547.671,-76.9304C742.717,-65.2774 1244.96,-35.0821 1281,-31 1294.54,-29.4665 1309.17,-27.2739 1322.54,-25.0565"/>
<polygon fill="midnightblue" stroke="midnightblue" points="547.275,-73.4478 537.501,-77.5378 547.692,-80.4353 547.275,-73.4478"/>
</g>
<!-- Node30 -->
<g id="node30" class="node"><title>Node30</title>
<polygon fill="none" stroke="#bfbfbf" points="350.5,-0.5 350.5,-30.5 493.5,-30.5 493.5,-0.5 350.5,-0.5"/>
<text text-anchor="start" x="358.5" y="-18.5" font-family="Helvetica,sans-Serif" font-size="10.00">Framework/src/Infrastructure</text>
<text text-anchor="middle" x="422" y="-7.5" font-family="Helvetica,sans-Serif" font-size="10.00">Generator.cxx</text>
</g>
<!-- Node29&#45;&gt;Node30 -->
<g id="edge31" class="edge"><title>Node29&#45;&gt;Node30</title>
<path fill="none" stroke="midnightblue" d="M454.157,-59.1575C447.012,-49.6788 438.9,-38.9186 432.612,-30.5765"/>
<polygon fill="midnightblue" stroke="midnightblue" points="451.553,-61.5176 460.368,-67.396 457.143,-57.3038 451.553,-61.5176"/>
</g>
<!-- Node31 -->
<g id="node31" class="node"><title>Node31</title>
<g id="a_node31"><a xlink:href="TaskRunnerFactory_8cxx.html" target="_top" xlink:title="Framework/src/TaskRunner\lFactory.cxx">
<polygon fill="none" stroke="black" points="0,-0.5 0,-30.5 138,-30.5 138,-0.5 0,-0.5"/>
<text text-anchor="start" x="8" y="-18.5" font-family="Helvetica,sans-Serif" font-size="10.00">Framework/src/TaskRunner</text>
<text text-anchor="middle" x="69" y="-7.5" font-family="Helvetica,sans-Serif" font-size="10.00">Factory.cxx</text>
</a>
</g>
</g>
<!-- Node29&#45;&gt;Node31 -->
<g id="edge33" class="edge"><title>Node29&#45;&gt;Node31</title>
<path fill="none" stroke="midnightblue" d="M393.93,-70.1343C328.219,-60.2891 231.294,-45.4011 147,-31 144.149,-30.5129 141.241,-30.0081 138.304,-29.4919"/>
<polygon fill="midnightblue" stroke="midnightblue" points="393.793,-73.6528 404.201,-71.6703 394.829,-66.7297 393.793,-73.6528"/>
</g>
<!-- Node32 -->
<g id="node32" class="node"><title>Node32</title>
<g id="a_node32"><a xlink:href="testTaskRunner_8cxx.html" target="_top" xlink:title="Framework/test/testTaskRunner.cxx">
<polygon fill="none" stroke="black" points="156,-6 156,-25 332,-25 332,-6 156,-6"/>
<text text-anchor="middle" x="244" y="-13" font-family="Helvetica,sans-Serif" font-size="10.00">Framework/test/testTaskRunner.cxx</text>
</a>
</g>
</g>
<!-- Node29&#45;&gt;Node32 -->
<g id="edge34" class="edge"><title>Node29&#45;&gt;Node32</title>
<path fill="none" stroke="midnightblue" d="M412.226,-64.6705C367.862,-51.967 308.831,-35.064 273.785,-25.0287"/>
<polygon fill="midnightblue" stroke="midnightblue" points="411.447,-68.0879 422.024,-67.476 413.374,-61.3583 411.447,-68.0879"/>
</g>
<!-- Node34&#45;&gt;Node14 -->
<g id="edge40" class="edge"><title>Node34&#45;&gt;Node14</title>
<path fill="none" stroke="midnightblue" d="M749.603,-129.746C735.949,-122.079 722.8,-111.706 715,-98 708.186,-86.0253 708.382,-79.0845 715,-67 726.337,-46.2977 750.176,-32.846 768.717,-25.073"/>
<polygon fill="midnightblue" stroke="midnightblue" points="748.108,-132.913 758.598,-134.401 751.326,-126.696 748.108,-132.913"/>
</g>
<!-- Node34&#45;&gt;Node25 -->
<g id="edge39" class="edge"><title>Node34&#45;&gt;Node25</title>
<path fill="none" stroke="midnightblue" d="M800,-124.25C800,-113.017 800,-100.377 800,-92.1945"/>
<polygon fill="midnightblue" stroke="midnightblue" points="796.5,-124.396 800,-134.396 803.5,-124.396 796.5,-124.396"/>
</g>
<!-- Node35&#45;&gt;Node26 -->
<g id="edge42" class="edge"><title>Node35&#45;&gt;Node26</title>
<path fill="none" stroke="midnightblue" d="M1817.13,-133.991C2180.24,-93.9335 2277.71,-146.059 2636,-98 2638.71,-97.6365 2641.47,-97.2137 2644.26,-96.746"/>
<polygon fill="midnightblue" stroke="midnightblue" points="1816.69,-130.519 1807.14,-135.109 1817.46,-137.475 1816.69,-130.519"/>
</g>
<!-- Node36&#45;&gt;Node15 -->
<g id="edge45" class="edge"><title>Node36&#45;&gt;Node15</title>
<path fill="none" stroke="midnightblue" d="M962.548,-124.837C955.293,-107.481 949.597,-84.0621 961,-67 969.757,-53.8972 1004.3,-40.3011 1034.41,-30.5216"/>
<polygon fill="midnightblue" stroke="midnightblue" points="959.525,-126.639 966.883,-134.262 965.884,-123.715 959.525,-126.639"/>
</g>
<!-- Node36&#45;&gt;Node16 -->
<g id="edge46" class="edge"><title>Node36&#45;&gt;Node16</title>
<path fill="none" stroke="midnightblue" d="M948.68,-127.398C940.439,-119.194 932.364,-109.093 928,-98 918.959,-75.0149 931.69,-47.0987 941.51,-30.6222"/>
<polygon fill="midnightblue" stroke="midnightblue" points="946.482,-130.134 956.193,-134.372 951.245,-125.003 946.482,-130.134"/>
</g>
<!-- Node36&#45;&gt;Node27 -->
<g id="edge44" class="edge"><title>Node36&#45;&gt;Node27</title>
<path fill="none" stroke="midnightblue" d="M992.303,-126.447C999.795,-116.899 1008.34,-106.004 1014.96,-97.5765"/>
<polygon fill="midnightblue" stroke="midnightblue" points="989.486,-124.368 986.066,-134.396 994.993,-128.689 989.486,-124.368"/>
</g>
<!-- Node37&#45;&gt;Node18 -->
<g id="edge49" class="edge"><title>Node37&#45;&gt;Node18</title>
<path fill="none" stroke="midnightblue" d="M1306.54,-129.576C1341.17,-111.291 1396.46,-83.9433 1447,-67 1519.4,-42.7278 1540.37,-47.1929 1615,-31 1617.87,-30.3781 1620.8,-29.7393 1623.77,-29.093"/>
<polygon fill="midnightblue" stroke="midnightblue" points="1304.52,-126.686 1297.34,-134.477 1307.82,-132.863 1304.52,-126.686"/>
</g>
<!-- Node37&#45;&gt;Node28 -->
<g id="edge48" class="edge"><title>Node37&#45;&gt;Node28</title>
<path fill="none" stroke="midnightblue" d="M1237.68,-129.435C1219.33,-119.237 1197.12,-106.897 1180.34,-97.5765"/>
<polygon fill="midnightblue" stroke="midnightblue" points="1236.17,-132.599 1246.61,-134.396 1239.57,-126.48 1236.17,-132.599"/>
</g>
</g>
</svg>
        <g id="navigator" transform="translate(0 0)" fill="#404254">
                <rect fill="#f2f5e9" fill-opacity="0.5" stroke="#606060" stroke-width=".5" x="0" y="0" width="60" height="60"/>
                <use id="zoomplus" xlink:href="#zoomPlus" x="17" y="9" onmousedown="handleZoom(evt,'in')"/>
                <use id="zoomminus" xlink:href="#zoomMin" x="42" y="9" onmousedown="handleZoom(evt,'out')"/>
                <use id="reset" xlink:href="#resetDef" x="30" y="36" onmousedown="handleReset()"/>
                <g id="arrowUp" xlink:href="#dirArrow" transform="translate(30 24)" onmousedown="handlePan(0,-1)">
                  <use xlink:href="#rim" fill="#404040">
                        <set attributeName="fill" to="#808080" begin="arrowUp.mouseover" end="arrowUp.mouseout"/>
                  </use>
                  <path fill="none" stroke="white" stroke-width="1.5" d="M0,-3.0v7 M-2.5,-0.5L0,-3.0L2.5,-0.5"/>
                </g>
                <g id="arrowRight" xlink:href="#dirArrow" transform="rotate(90) translate(36 -43)" onmousedown="handlePan(1,0)">
                  <use xlink:href="#rim" fill="#404040">
                        <set attributeName="fill" to="#808080" begin="arrowRight.mouseover" end="arrowRight.mouseout"/>
                  </use>
                  <path fill="none" stroke="white" stroke-width="1.5" d="M0,-3.0v7 M-2.5,-0.5L0,-3.0L2.5,-0.5"/>
                </g>
                <g id="arrowDown" xlink:href="#dirArrow" transform="rotate(180) translate(-30 -48)" onmousedown="handlePan(0,1)">
                  <use xlink:href="#rim" fill="#404040">
                        <set attributeName="fill" to="#808080" begin="arrowDown.mouseover" end="arrowDown.mouseout"/>
                  </use>
                  <path fill="none" stroke="white" stroke-width="1.5" d="M0,-3.0v7 M-2.5,-0.5L0,-3.0L2.5,-0.5"/>
                </g>
                <g id="arrowLeft" xlink:href="#dirArrow" transform="rotate(270) translate(-36 17)" onmousedown="handlePan(-1,0)">
                  <use xlink:href="#rim" fill="#404040">
                        <set attributeName="fill" to="#808080" begin="arrowLeft.mouseover" end="arrowLeft.mouseout"/>
                  </use>
                  <path fill="none" stroke="white" stroke-width="1.5" d="M0,-3.0v7 M-2.5,-0.5L0,-3.0L2.5,-0.5"/>
                </g>
        </g>
        <svg viewBox="0 0 15 15" width="100%" height="30px" preserveAspectRatio="xMaxYMin meet">
         <g id="arrow_out" transform="scale(0.3 0.3)">
          <a xlink:href="TaskInterface_8h__dep__incl_org.svg" target="_base">
           <rect id="button" ry="5" rx="5" y="6" x="6" height="38" width="38"
                fill="#f2f5e9" fill-opacity="0.5" stroke="#606060" stroke-width="1.0"/>
           <path id="arrow"
             d="M 11.500037,31.436501 C 11.940474,20.09759 22.043105,11.32322 32.158766,21.979434 L 37.068811,17.246167 C 37.068811,17.246167 37.088388,32 37.088388,32 L 22.160133,31.978069 C 22.160133,31.978069 26.997745,27.140456 26.997745,27.140456 C 18.528582,18.264221 13.291696,25.230495 11.500037,31.436501 z"
             style="fill:#404040;"/>
          </a>
         </g>
        </svg>
</svg>
