<?xml version="1.0" encoding="UTF-8" standalone="no"?>
<!DOCTYPE svg PUBLIC "-//W3C//DTD SVG 1.1//EN"
 "http://www.w3.org/Graphics/SVG/1.1/DTD/svg11.dtd">
<!-- Generated by graphviz version 2.38.0 (20140413.2041)
 -->
<!-- Title: Framework/include/QualityControl/TaskConfig.h Pages: 1 -->
<!--zoomable 374 -->
<svg id="main" version="1.1" xmlns="http://www.w3.org/2000/svg" xmlns:xlink="http://www.w3.org/1999/xlink" xml:space="preserve" onload="init(evt)">
<style type="text/css"><![CDATA[
.edge:hover path { stroke: red; }
.edge:hover polygon { stroke: red; fill: red; }
]]></style>
<script type="text/javascript"><![CDATA[
var edges = document.getElementsByTagName('g');
if (edges && edges.length) {
  for (var i=0;i<edges.length;i++) {
    if (edges[i].id.substr(0,4)=='edge') {
      edges[i].setAttribute('class','edge');
    }
  }
}
]]></script>
        <defs>
                <circle id="rim" cx="0" cy="0" r="7"/>
                <circle id="rim2" cx="0" cy="0" r="3.5"/>
                <g id="zoomPlus">
                        <use xlink:href="#rim" fill="#404040">
                                <set attributeName="fill" to="#808080" begin="zoomplus.mouseover" end="zoomplus.mouseout"/>
                        </use>
                        <path d="M-4,0h8M0,-4v8" fill="none" stroke="white" stroke-width="1.5" pointer-events="none"/>
                </g>
                <g id="zoomMin">
                        <use xlink:href="#rim" fill="#404040">
                                <set attributeName="fill" to="#808080" begin="zoomminus.mouseover" end="zoomminus.mouseout"/>
                        </use>
                        <path d="M-4,0h8" fill="none" stroke="white" stroke-width="1.5" pointer-events="none"/>
                </g>
                <g id="dirArrow">
                        <path fill="none" stroke="white" stroke-width="1.5" d="M0,-3.0v7 M-2.5,-0.5L0,-3.0L2.5,-0.5"/>
                </g>
               <g id="resetDef">
                       <use xlink:href="#rim2" fill="#404040">
                               <set attributeName="fill" to="#808080" begin="reset.mouseover" end="reset.mouseout"/>
                       </use>
               </g>
        </defs>

<script type="text/javascript">
var viewWidth = 2731;
var viewHeight = 374;
var sectionId = 'dynsection-1';
</script>
<script xlink:href="svgpan.js"/>
<svg id="graph" class="graph">
<g id="viewport">
<title>Framework/include/QualityControl/TaskConfig.h</title>
<!-- Node1 -->
<g id="node1" class="node"><title>Node1</title>
<polygon fill="#bfbfbf" stroke="black" points="1961.12,-335.5 1961.12,-365.5 2094.12,-365.5 2094.12,-335.5 1961.12,-335.5"/>
<text text-anchor="start" x="1969.12" y="-353.5" font-family="Helvetica,sans-Serif" font-size="10.00">Framework/include/Quality</text>
<text text-anchor="middle" x="2027.62" y="-342.5" font-family="Helvetica,sans-Serif" font-size="10.00">Control/TaskConfig.h</text>
</g>
<!-- Node2 -->
<g id="node2" class="node"><title>Node2</title>
<g id="a_node2"><a xlink:href="ObjectsManager_8h.html" target="_top" xlink:title="Framework/include/Quality\lControl/ObjectsManager.h">
<polygon fill="none" stroke="black" points="2264.12,-268.5 2264.12,-298.5 2397.12,-298.5 2397.12,-268.5 2264.12,-268.5"/>
<text text-anchor="start" x="2272.12" y="-286.5" font-family="Helvetica,sans-Serif" font-size="10.00">Framework/include/Quality</text>
<text text-anchor="middle" x="2330.62" y="-275.5" font-family="Helvetica,sans-Serif" font-size="10.00">Control/ObjectsManager.h</text>
</a>
</g>
</g>
<!-- Node1&#45;&gt;Node2 -->
<g id="edge1" class="edge"><title>Node1&#45;&gt;Node2</title>
<path fill="none" stroke="midnightblue" d="M2103.06,-333.316C2152.86,-322.633 2217.46,-308.775 2265.1,-298.555"/>
<polygon fill="midnightblue" stroke="midnightblue" points="2102.03,-329.956 2092.99,-335.476 2103.5,-336.801 2102.03,-329.956"/>
</g>
<!-- Node13 -->
<g id="node13" class="node"><title>Node13</title>
<g id="a_node13"><a xlink:href="TaskFactory_8h.html" target="_top" xlink:title="Framework/include/Quality\lControl/TaskFactory.h">
<polygon fill="none" stroke="black" points="1938.12,-67.5 1938.12,-97.5 2071.12,-97.5 2071.12,-67.5 1938.12,-67.5"/>
<text text-anchor="start" x="1946.12" y="-85.5" font-family="Helvetica,sans-Serif" font-size="10.00">Framework/include/Quality</text>
<text text-anchor="middle" x="2004.62" y="-74.5" font-family="Helvetica,sans-Serif" font-size="10.00">Control/TaskFactory.h</text>
</a>
</g>
</g>
<!-- Node1&#45;&gt;Node13 -->
<g id="edge56" class="edge"><title>Node1&#45;&gt;Node13</title>
<path fill="none" stroke="midnightblue" d="M2025.5,-325.065C2020.79,-270.572 2009.55,-140.521 2005.83,-97.5492"/>
<polygon fill="midnightblue" stroke="midnightblue" points="2022.03,-325.537 2026.38,-335.199 2029.01,-324.934 2022.03,-325.537"/>
</g>
<!-- Node31 -->
<g id="node31" class="node"><title>Node31</title>
<g id="a_node31"><a xlink:href="TaskRunner_8h.html" target="_top" xlink:title="Framework/include/Quality\lControl/TaskRunner.h">
<polygon fill="none" stroke="black" points="356.117,-134.5 356.117,-164.5 489.117,-164.5 489.117,-134.5 356.117,-134.5"/>
<text text-anchor="start" x="364.117" y="-152.5" font-family="Helvetica,sans-Serif" font-size="10.00">Framework/include/Quality</text>
<text text-anchor="middle" x="422.617" y="-141.5" font-family="Helvetica,sans-Serif" font-size="10.00">Control/TaskRunner.h</text>
</a>
</g>
</g>
<!-- Node1&#45;&gt;Node31 -->
<g id="edge57" class="edge"><title>Node1&#45;&gt;Node31</title>
<path fill="none" stroke="midnightblue" d="M1950.69,-339.961C1676.13,-305.92 747.146,-190.738 489.415,-158.782"/>
<polygon fill="midnightblue" stroke="midnightblue" points="1950.59,-343.477 1960.95,-341.234 1951.46,-336.53 1950.59,-343.477"/>
</g>
<!-- Node3 -->
<g id="node3" class="node"><title>Node3</title>
<g id="a_node3"><a xlink:href="TaskInterface_8h.html" target="_top" xlink:title="Framework/include/Quality\lControl/TaskInterface.h">
<polygon fill="none" stroke="black" points="1796.12,-201.5 1796.12,-231.5 1929.12,-231.5 1929.12,-201.5 1796.12,-201.5"/>
<text text-anchor="start" x="1804.12" y="-219.5" font-family="Helvetica,sans-Serif" font-size="10.00">Framework/include/Quality</text>
<text text-anchor="middle" x="1862.62" y="-208.5" font-family="Helvetica,sans-Serif" font-size="10.00">Control/TaskInterface.h</text>
</a>
</g>
</g>
<!-- Node2&#45;&gt;Node3 -->
<g id="edge2" class="edge"><title>Node2&#45;&gt;Node3</title>
<path fill="none" stroke="midnightblue" d="M2253.88,-271.843C2163.56,-259.298 2015.05,-238.671 1929.32,-226.765"/>
<polygon fill="midnightblue" stroke="midnightblue" points="2253.67,-275.347 2264.06,-273.256 2254.64,-268.414 2253.67,-275.347"/>
</g>
<!-- Node17 -->
<g id="node17" class="node"><title>Node17</title>
<polygon fill="none" stroke="#bfbfbf" points="2608.62,-0.5 2608.62,-30.5 2722.62,-30.5 2722.62,-0.5 2608.62,-0.5"/>
<text text-anchor="start" x="2616.62" y="-18.5" font-family="Helvetica,sans-Serif" font-size="10.00">Modules/Example/test</text>
<text text-anchor="middle" x="2665.62" y="-7.5" font-family="Helvetica,sans-Serif" font-size="10.00">/testFactory.cxx</text>
</g>
<!-- Node2&#45;&gt;Node17 -->
<g id="edge55" class="edge"><title>Node2&#45;&gt;Node17</title>
<path fill="none" stroke="midnightblue" d="M2407.6,-280.195C2488.57,-276.05 2608.5,-264.451 2639.62,-232 2693.74,-175.561 2677.21,-69.0342 2669,-30.6965"/>
<polygon fill="midnightblue" stroke="midnightblue" points="2407.26,-276.708 2397.44,-280.687 2407.59,-283.7 2407.26,-276.708"/>
</g>
<!-- Node24 -->
<g id="node24" class="node"><title>Node24</title>
<g id="a_node24"><a xlink:href="ObjectsManager_8cxx.html" target="_top" xlink:title="Framework/src/ObjectsManager.cxx">
<polygon fill="none" stroke="black" points="2257.12,-73 2257.12,-92 2432.12,-92 2432.12,-73 2257.12,-73"/>
<text text-anchor="middle" x="2344.62" y="-80" font-family="Helvetica,sans-Serif" font-size="10.00">Framework/src/ObjectsManager.cxx</text>
</a>
</g>
</g>
<!-- Node2&#45;&gt;Node24 -->
<g id="edge52" class="edge"><title>Node2&#45;&gt;Node24</title>
<path fill="none" stroke="midnightblue" d="M2314.32,-259.948C2309.21,-251.587 2304.22,-241.756 2301.62,-232 2298.07,-218.688 2299.21,-214.566 2301.62,-201 2309.16,-158.436 2330.96,-111.045 2340.29,-92.051"/>
<polygon fill="midnightblue" stroke="midnightblue" points="2311.42,-261.906 2319.81,-268.372 2317.28,-258.083 2311.42,-261.906"/>
</g>
<!-- Node40 -->
<g id="node40" class="node"><title>Node40</title>
<polygon fill="none" stroke="#bfbfbf" points="2310.62,-201.5 2310.62,-231.5 2448.62,-231.5 2448.62,-201.5 2310.62,-201.5"/>
<text text-anchor="start" x="2318.62" y="-219.5" font-family="Helvetica,sans-Serif" font-size="10.00">Framework/test/testObjects</text>
<text text-anchor="middle" x="2379.62" y="-208.5" font-family="Helvetica,sans-Serif" font-size="10.00">Manager.cxx</text>
</g>
<!-- Node2&#45;&gt;Node40 -->
<g id="edge53" class="edge"><title>Node2&#45;&gt;Node40</title>
<path fill="none" stroke="midnightblue" d="M2347.46,-260.157C2354.61,-250.679 2362.72,-239.919 2369.01,-231.577"/>
<polygon fill="midnightblue" stroke="midnightblue" points="2344.47,-258.304 2341.25,-268.396 2350.06,-262.518 2344.47,-258.304"/>
</g>
<!-- Node41 -->
<g id="node41" class="node"><title>Node41</title>
<g id="a_node41"><a xlink:href="testPublisher_8cxx.html" target="_top" xlink:title="Framework/test/testPublisher.cxx">
<polygon fill="none" stroke="black" points="2466.62,-207 2466.62,-226 2630.62,-226 2630.62,-207 2466.62,-207"/>
<text text-anchor="middle" x="2548.62" y="-214" font-family="Helvetica,sans-Serif" font-size="10.00">Framework/test/testPublisher.cxx</text>
</a>
</g>
</g>
<!-- Node2&#45;&gt;Node41 -->
<g id="edge54" class="edge"><title>Node2&#45;&gt;Node41</title>
<path fill="none" stroke="midnightblue" d="M2387.33,-265.59C2429.9,-252.896 2486.43,-236.043 2520.01,-226.029"/>
<polygon fill="midnightblue" stroke="midnightblue" points="2386.23,-262.264 2377.65,-268.476 2388.23,-268.973 2386.23,-262.264"/>
</g>
<!-- Node4 -->
<g id="node4" class="node"><title>Node4</title>
<g id="a_node4"><a xlink:href="QcInfoLogger_8h.html" target="_top" xlink:title="Framework/include/Quality\lControl/QcInfoLogger.h">
<polygon fill="none" stroke="black" points="1513.12,-134.5 1513.12,-164.5 1646.12,-164.5 1646.12,-134.5 1513.12,-134.5"/>
<text text-anchor="start" x="1521.12" y="-152.5" font-family="Helvetica,sans-Serif" font-size="10.00">Framework/include/Quality</text>
<text text-anchor="middle" x="1579.62" y="-141.5" font-family="Helvetica,sans-Serif" font-size="10.00">Control/QcInfoLogger.h</text>
</a>
</g>
</g>
<!-- Node3&#45;&gt;Node4 -->
<g id="edge3" class="edge"><title>Node3&#45;&gt;Node4</title>
<path fill="none" stroke="midnightblue" d="M1791.59,-199.186C1745.24,-188.54 1685.35,-174.784 1641.05,-164.611"/>
<polygon fill="midnightblue" stroke="midnightblue" points="1791.03,-202.649 1801.56,-201.476 1792.6,-195.826 1791.03,-202.649"/>
</g>
<!-- Node15 -->
<g id="node15" class="node"><title>Node15</title>
<g id="a_node15"><a xlink:href="testTaskInterface_8cxx.html" target="_top" xlink:title="Framework/test/testTaskInterface.cxx">
<polygon fill="none" stroke="black" points="2399.12,-6 2399.12,-25 2582.12,-25 2582.12,-6 2399.12,-6"/>
<text text-anchor="middle" x="2490.62" y="-13" font-family="Helvetica,sans-Serif" font-size="10.00">Framework/test/testTaskInterface.cxx</text>
</a>
</g>
</g>
<!-- Node3&#45;&gt;Node15 -->
<g id="edge39" class="edge"><title>Node3&#45;&gt;Node15</title>
<path fill="none" stroke="midnightblue" d="M1939.27,-212.983C2122.17,-206.606 2570.57,-188.629 2592.62,-165 2604.33,-152.451 2602.8,-91.2786 2586.62,-67 2572.2,-45.3754 2545.43,-32.3901 2523.82,-25.0137"/>
<polygon fill="midnightblue" stroke="midnightblue" points="1939.06,-209.488 1929.19,-213.332 1939.31,-216.484 1939.06,-209.488"/>
</g>
<!-- Node21 -->
<g id="node21" class="node"><title>Node21</title>
<g id="a_node21"><a xlink:href="DatabaseFactory_8cxx.html" target="_top" xlink:title="Framework/src/DatabaseFactory.cxx">
<polygon fill="none" stroke="black" points="1741.12,-73 1741.12,-92 1920.12,-92 1920.12,-73 1741.12,-73"/>
<text text-anchor="middle" x="1830.62" y="-80" font-family="Helvetica,sans-Serif" font-size="10.00">Framework/src/DatabaseFactory.cxx</text>
</a>
</g>
</g>
<!-- Node3&#45;&gt;Node21 -->
<g id="edge37" class="edge"><title>Node3&#45;&gt;Node21</title>
<path fill="none" stroke="midnightblue" d="M1842.36,-193.385C1836.04,-185.095 1829.88,-175.199 1826.62,-165 1818.5,-139.634 1824.46,-107.571 1828.2,-92.327"/>
<polygon fill="midnightblue" stroke="midnightblue" points="1839.85,-195.846 1848.88,-201.387 1845.27,-191.424 1839.85,-195.846"/>
</g>
<!-- Node3&#45;&gt;Node31 -->
<g id="edge31" class="edge"><title>Node3&#45;&gt;Node31</title>
<path fill="none" stroke="midnightblue" d="M1785.68,-212.761C1595.13,-205.869 1086.01,-186.795 661.617,-165 603.393,-162.01 537.231,-157.944 489.305,-154.879"/>
<polygon fill="midnightblue" stroke="midnightblue" points="1785.75,-216.265 1795.87,-213.129 1786,-209.27 1785.75,-216.265"/>
</g>
<!-- Node35 -->
<g id="node35" class="node"><title>Node35</title>
<g id="a_node35"><a xlink:href="TaskInterface_8cxx.html" target="_top" xlink:title="Framework/src/TaskInterface.cxx">
<polygon fill="none" stroke="black" points="1835.62,-140 1835.62,-159 1999.62,-159 1999.62,-140 1835.62,-140"/>
<text text-anchor="middle" x="1917.62" y="-147" font-family="Helvetica,sans-Serif" font-size="10.00">Framework/src/TaskInterface.cxx</text>
</a>
</g>
</g>
<!-- Node3&#45;&gt;Node35 -->
<g id="edge38" class="edge"><title>Node3&#45;&gt;Node35</title>
<path fill="none" stroke="midnightblue" d="M1881.1,-193.657C1891.08,-181.865 1902.84,-167.967 1910.26,-159.195"/>
<polygon fill="midnightblue" stroke="midnightblue" points="1878.34,-191.501 1874.55,-201.396 1883.68,-196.023 1878.34,-191.501"/>
</g>
<!-- Node36 -->
<g id="node36" class="node"><title>Node36</title>
<g id="a_node36"><a xlink:href="DaqTask_8h.html" target="_top" xlink:title="Modules/Daq/include\l/Daq/DaqTask.h">
<polygon fill="none" stroke="black" points="946.617,-134.5 946.617,-164.5 1054.62,-164.5 1054.62,-134.5 946.617,-134.5"/>
<text text-anchor="start" x="954.617" y="-152.5" font-family="Helvetica,sans-Serif" font-size="10.00">Modules/Daq/include</text>
<text text-anchor="middle" x="1000.62" y="-141.5" font-family="Helvetica,sans-Serif" font-size="10.00">/Daq/DaqTask.h</text>
</a>
</g>
</g>
<!-- Node3&#45;&gt;Node36 -->
<g id="edge40" class="edge"><title>Node3&#45;&gt;Node36</title>
<path fill="none" stroke="midnightblue" d="M1785.84,-209.71C1614.16,-196.765 1202.75,-165.742 1054.79,-154.585"/>
<polygon fill="midnightblue" stroke="midnightblue" points="1785.82,-213.219 1796.05,-210.481 1786.34,-206.238 1785.82,-213.219"/>
</g>
<!-- Node37 -->
<g id="node37" class="node"><title>Node37</title>
<g id="a_node37"><a xlink:href="BenchmarkTask_8h.html" target="_top" xlink:title="Modules/Example/include\l/Example/BenchmarkTask.h">
<polygon fill="none" stroke="black" points="670.617,-134.5 670.617,-164.5 810.617,-164.5 810.617,-134.5 670.617,-134.5"/>
<text text-anchor="start" x="678.617" y="-152.5" font-family="Helvetica,sans-Serif" font-size="10.00">Modules/Example/include</text>
<text text-anchor="middle" x="740.617" y="-141.5" font-family="Helvetica,sans-Serif" font-size="10.00">/Example/BenchmarkTask.h</text>
</a>
</g>
</g>
<!-- Node3&#45;&gt;Node37 -->
<g id="edge43" class="edge"><title>Node3&#45;&gt;Node37</title>
<path fill="none" stroke="midnightblue" d="M1785.71,-211.795C1627.09,-204.043 1252.11,-185.157 937.617,-165 895.522,-162.302 848.4,-158.849 810.8,-155.99"/>
<polygon fill="midnightblue" stroke="midnightblue" points="1785.69,-215.297 1795.85,-212.289 1786.03,-208.306 1785.69,-215.297"/>
</g>
<!-- Node38 -->
<g id="node38" class="node"><title>Node38</title>
<g id="a_node38"><a xlink:href="ExampleTask_8h.html" target="_top" xlink:title="Modules/Example/include\l/Example/ExampleTask.h">
<polygon fill="none" stroke="black" points="2455.12,-134.5 2455.12,-164.5 2584.12,-164.5 2584.12,-134.5 2455.12,-134.5"/>
<text text-anchor="start" x="2463.12" y="-152.5" font-family="Helvetica,sans-Serif" font-size="10.00">Modules/Example/include</text>
<text text-anchor="middle" x="2519.62" y="-141.5" font-family="Helvetica,sans-Serif" font-size="10.00">/Example/ExampleTask.h</text>
</a>
</g>
</g>
<!-- Node3&#45;&gt;Node38 -->
<g id="edge45" class="edge"><title>Node3&#45;&gt;Node38</title>
<path fill="none" stroke="midnightblue" d="M1939.54,-207.889C2070.14,-194.969 2332.89,-168.974 2454.78,-156.915"/>
<polygon fill="midnightblue" stroke="midnightblue" points="1938.84,-204.442 1929.23,-208.91 1939.53,-211.408 1938.84,-204.442"/>
</g>
<!-- Node39 -->
<g id="node39" class="node"><title>Node39</title>
<g id="a_node39"><a xlink:href="SkeletonTask_8h.html" target="_top" xlink:title="Modules/Skeleton/include\l/Skeleton/SkeletonTask.h">
<polygon fill="none" stroke="black" points="2080.12,-134.5 2080.12,-164.5 2209.12,-164.5 2209.12,-134.5 2080.12,-134.5"/>
<text text-anchor="start" x="2088.12" y="-152.5" font-family="Helvetica,sans-Serif" font-size="10.00">Modules/Skeleton/include</text>
<text text-anchor="middle" x="2144.62" y="-141.5" font-family="Helvetica,sans-Serif" font-size="10.00">/Skeleton/SkeletonTask.h</text>
</a>
</g>
</g>
<!-- Node3&#45;&gt;Node39 -->
<g id="edge49" class="edge"><title>Node3&#45;&gt;Node39</title>
<path fill="none" stroke="midnightblue" d="M1933.4,-199.186C1979.58,-188.54 2039.26,-174.784 2083.4,-164.611"/>
<polygon fill="midnightblue" stroke="midnightblue" points="1932.42,-195.819 1923.46,-201.476 1933.99,-202.64 1932.42,-195.819"/>
</g>
<!-- Node5 -->
<g id="node5" class="node"><title>Node5</title>
<g id="a_node5"><a xlink:href="Checker_8h.html" target="_top" xlink:title="Framework/include/Quality\lControl/Checker.h">
<polygon fill="none" stroke="black" points="735.117,-67.5 735.117,-97.5 868.117,-97.5 868.117,-67.5 735.117,-67.5"/>
<text text-anchor="start" x="743.117" y="-85.5" font-family="Helvetica,sans-Serif" font-size="10.00">Framework/include/Quality</text>
<text text-anchor="middle" x="801.617" y="-74.5" font-family="Helvetica,sans-Serif" font-size="10.00">Control/Checker.h</text>
</a>
</g>
</g>
<!-- Node4&#45;&gt;Node5 -->
<g id="edge4" class="edge"><title>Node4&#45;&gt;Node5</title>
<path fill="none" stroke="midnightblue" d="M1502.95,-143.934C1379.21,-136.28 1127.9,-119.559 915.617,-98 900.234,-96.4377 883.717,-94.4925 868.163,-92.5393"/>
<polygon fill="midnightblue" stroke="midnightblue" points="1502.88,-147.436 1513.08,-144.558 1503.31,-140.449 1502.88,-147.436"/>
</g>
<!-- Node4&#45;&gt;Node13 -->
<g id="edge12" class="edge"><title>Node4&#45;&gt;Node13</title>
<path fill="none" stroke="midnightblue" d="M1656.51,-138.382C1727.33,-128.824 1835.25,-113.655 1928.62,-98 1931.66,-97.4892 1934.78,-96.9531 1937.92,-96.4004"/>
<polygon fill="midnightblue" stroke="midnightblue" points="1655.78,-134.948 1646.34,-139.751 1656.71,-141.886 1655.78,-134.948"/>
</g>
<!-- Node14 -->
<g id="node14" class="node"><title>Node14</title>
<g id="a_node14"><a xlink:href="TaskRunner_8cxx.html" target="_top" xlink:title="Framework/src/TaskRunner.cxx">
<polygon fill="none" stroke="black" points="357.117,-6 357.117,-25 514.117,-25 514.117,-6 357.117,-6"/>
<text text-anchor="middle" x="435.617" y="-13" font-family="Helvetica,sans-Serif" font-size="10.00">Framework/src/TaskRunner.cxx</text>
</a>
</g>
</g>
<!-- Node4&#45;&gt;Node14 -->
<g id="edge25" class="edge"><title>Node4&#45;&gt;Node14</title>
<path fill="none" stroke="midnightblue" d="M1502.62,-146.596C1306.21,-141.365 797.038,-125.319 725.617,-98 704.936,-90.0895 706.697,-76.3324 686.617,-67 668.504,-58.5812 552.081,-37.0877 484.334,-25.0309"/>
<polygon fill="midnightblue" stroke="midnightblue" points="1502.76,-150.101 1512.85,-146.866 1502.95,-143.103 1502.76,-150.101"/>
</g>
<!-- Node4&#45;&gt;Node21 -->
<g id="edge20" class="edge"><title>Node4&#45;&gt;Node21</title>
<path fill="none" stroke="midnightblue" d="M1643.68,-131.91C1692.84,-119.18 1758.69,-102.127 1797.68,-92.0287"/>
<polygon fill="midnightblue" stroke="midnightblue" points="1642.57,-128.581 1633.77,-134.476 1644.33,-135.357 1642.57,-128.581"/>
</g>
<!-- Node22 -->
<g id="node22" class="node"><title>Node22</title>
<g id="a_node22"><a xlink:href="InformationService_8cxx.html" target="_top" xlink:title="Framework/src/Information\lService.cxx">
<polygon fill="none" stroke="black" points="1094.62,-67.5 1094.62,-97.5 1228.62,-97.5 1228.62,-67.5 1094.62,-67.5"/>
<text text-anchor="start" x="1102.62" y="-85.5" font-family="Helvetica,sans-Serif" font-size="10.00">Framework/src/Information</text>
<text text-anchor="middle" x="1161.62" y="-74.5" font-family="Helvetica,sans-Serif" font-size="10.00">Service.cxx</text>
</a>
</g>
</g>
<!-- Node4&#45;&gt;Node22 -->
<g id="edge21" class="edge"><title>Node4&#45;&gt;Node22</title>
<path fill="none" stroke="midnightblue" d="M1502.99,-138.121C1433.58,-128.498 1328.57,-113.384 1237.62,-98 1234.7,-97.5071 1231.73,-96.9919 1228.73,-96.4618"/>
<polygon fill="midnightblue" stroke="midnightblue" points="1502.58,-141.598 1512.96,-139.501 1503.54,-134.664 1502.58,-141.598"/>
</g>
<!-- Node23 -->
<g id="node23" class="node"><title>Node23</title>
<g id="a_node23"><a xlink:href="MySqlDatabase_8cxx.html" target="_top" xlink:title="Framework/src/MySqlDatabase.cxx">
<polygon fill="none" stroke="black" points="1247.12,-73 1247.12,-92 1420.12,-92 1420.12,-73 1247.12,-73"/>
<text text-anchor="middle" x="1333.62" y="-80" font-family="Helvetica,sans-Serif" font-size="10.00">Framework/src/MySqlDatabase.cxx</text>
</a>
</g>
</g>
<!-- Node4&#45;&gt;Node23 -->
<g id="edge22" class="edge"><title>Node4&#45;&gt;Node23</title>
<path fill="none" stroke="midnightblue" d="M1516.83,-131.91C1468.65,-119.18 1404.11,-102.127 1365.89,-92.0287"/>
<polygon fill="midnightblue" stroke="midnightblue" points="1515.98,-135.305 1526.54,-134.476 1517.77,-128.537 1515.98,-135.305"/>
</g>
<!-- Node4&#45;&gt;Node24 -->
<g id="edge23" class="edge"><title>Node4&#45;&gt;Node24</title>
<path fill="none" stroke="midnightblue" d="M1656.3,-142.992C1774.82,-134.332 2009.62,-116.593 2208.62,-98 2227.89,-96.1997 2248.67,-94.076 2268.05,-92.0174"/>
<polygon fill="midnightblue" stroke="midnightblue" points="1655.95,-139.508 1646.23,-143.726 1656.46,-146.489 1655.95,-139.508"/>
</g>
<!-- Node25 -->
<g id="node25" class="node"><title>Node25</title>
<g id="a_node25"><a xlink:href="RepositoryBenchmark_8cxx.html" target="_top" xlink:title="Framework/src/Repository\lBenchmark.cxx">
<polygon fill="none" stroke="black" points="1438.62,-67.5 1438.62,-97.5 1570.62,-97.5 1570.62,-67.5 1438.62,-67.5"/>
<text text-anchor="start" x="1446.62" y="-85.5" font-family="Helvetica,sans-Serif" font-size="10.00">Framework/src/Repository</text>
<text text-anchor="middle" x="1504.62" y="-74.5" font-family="Helvetica,sans-Serif" font-size="10.00">Benchmark.cxx</text>
</a>
</g>
</g>
<!-- Node4&#45;&gt;Node25 -->
<g id="edge24" class="edge"><title>Node4&#45;&gt;Node25</title>
<path fill="none" stroke="midnightblue" d="M1555.5,-127.598C1544.17,-117.783 1530.98,-106.344 1520.86,-97.5765"/>
<polygon fill="midnightblue" stroke="midnightblue" points="1553.49,-130.492 1563.34,-134.396 1558.08,-125.202 1553.49,-130.492"/>
</g>
<!-- Node26 -->
<g id="node26" class="node"><title>Node26</title>
<g id="a_node26"><a xlink:href="testQcInfoLogger_8cxx.html" target="_top" xlink:title="Framework/test/testQcInfo\lLogger.cxx">
<polygon fill="none" stroke="black" points="1588.62,-67.5 1588.62,-97.5 1722.62,-97.5 1722.62,-67.5 1588.62,-67.5"/>
<text text-anchor="start" x="1596.62" y="-85.5" font-family="Helvetica,sans-Serif" font-size="10.00">Framework/test/testQcInfo</text>
<text text-anchor="middle" x="1655.62" y="-74.5" font-family="Helvetica,sans-Serif" font-size="10.00">Logger.cxx</text>
</a>
</g>
</g>
<!-- Node4&#45;&gt;Node26 -->
<g id="edge26" class="edge"><title>Node4&#45;&gt;Node26</title>
<path fill="none" stroke="midnightblue" d="M1603.72,-127.883C1615.27,-118.005 1628.81,-106.429 1639.16,-97.5765"/>
<polygon fill="midnightblue" stroke="midnightblue" points="1601.43,-125.236 1596.11,-134.396 1605.98,-130.556 1601.43,-125.236"/>
</g>
<!-- Node27 -->
<g id="node27" class="node"><title>Node27</title>
<g id="a_node27"><a xlink:href="DaqTask_8cxx.html" target="_top" xlink:title="Modules/Daq/src/DaqTask.cxx">
<polygon fill="none" stroke="black" points="924.617,-73 924.617,-92 1076.62,-92 1076.62,-73 924.617,-73"/>
<text text-anchor="middle" x="1000.62" y="-80" font-family="Helvetica,sans-Serif" font-size="10.00">Modules/Daq/src/DaqTask.cxx</text>
</a>
</g>
</g>
<!-- Node4&#45;&gt;Node27 -->
<g id="edge27" class="edge"><title>Node4&#45;&gt;Node27</title>
<path fill="none" stroke="midnightblue" d="M1502.68,-142.245C1405.35,-133.963 1232.68,-118.037 1085.62,-98 1073.16,-96.3023 1059.72,-94.1576 1047.29,-92.042"/>
<polygon fill="midnightblue" stroke="midnightblue" points="1502.47,-145.74 1512.73,-143.096 1503.06,-138.765 1502.47,-145.74"/>
</g>
<!-- Node28 -->
<g id="node28" class="node"><title>Node28</title>
<g id="a_node28"><a xlink:href="BenchmarkTask_8cxx.html" target="_top" xlink:title="Modules/Example/src\l/BenchmarkTask.cxx">
<polygon fill="none" stroke="black" points="567.117,-67.5 567.117,-97.5 678.117,-97.5 678.117,-67.5 567.117,-67.5"/>
<text text-anchor="start" x="575.117" y="-85.5" font-family="Helvetica,sans-Serif" font-size="10.00">Modules/Example/src</text>
<text text-anchor="middle" x="622.617" y="-74.5" font-family="Helvetica,sans-Serif" font-size="10.00">/BenchmarkTask.cxx</text>
</a>
</g>
</g>
<!-- Node4&#45;&gt;Node28 -->
<g id="edge28" class="edge"><title>Node4&#45;&gt;Node28</title>
<path fill="none" stroke="midnightblue" d="M1502.79,-147.928C1348.56,-145.942 990.485,-137.113 692.617,-98 687.941,-97.386 683.111,-96.6348 678.276,-95.8006"/>
<polygon fill="midnightblue" stroke="midnightblue" points="1503.06,-151.431 1513.1,-148.054 1503.14,-144.432 1503.06,-151.431"/>
</g>
<!-- Node29 -->
<g id="node29" class="node"><title>Node29</title>
<g id="a_node29"><a xlink:href="ExampleTask_8cxx.html" target="_top" xlink:title="Modules/Example/src\l/ExampleTask.cxx">
<polygon fill="none" stroke="black" points="2450.12,-67.5 2450.12,-97.5 2561.12,-97.5 2561.12,-67.5 2450.12,-67.5"/>
<text text-anchor="start" x="2458.12" y="-85.5" font-family="Helvetica,sans-Serif" font-size="10.00">Modules/Example/src</text>
<text text-anchor="middle" x="2505.62" y="-74.5" font-family="Helvetica,sans-Serif" font-size="10.00">/ExampleTask.cxx</text>
</a>
</g>
</g>
<!-- Node4&#45;&gt;Node29 -->
<g id="edge29" class="edge"><title>Node4&#45;&gt;Node29</title>
<path fill="none" stroke="midnightblue" d="M1656.35,-143.994C1705.11,-141.131 1769.57,-137.347 1826.62,-134 2099.51,-117.99 2169.9,-135.881 2440.62,-98 2443.71,-97.5674 2446.87,-97.0648 2450.06,-96.5117"/>
<polygon fill="midnightblue" stroke="midnightblue" points="1655.96,-140.511 1646.19,-144.591 1656.37,-147.498 1655.96,-140.511"/>
</g>
<!-- Node30 -->
<g id="node30" class="node"><title>Node30</title>
<g id="a_node30"><a xlink:href="SkeletonTask_8cxx.html" target="_top" xlink:title="Modules/Skeleton/src\l/SkeletonTask.cxx">
<polygon fill="none" stroke="black" points="2089.12,-67.5 2089.12,-97.5 2200.12,-97.5 2200.12,-67.5 2089.12,-67.5"/>
<text text-anchor="start" x="2097.12" y="-85.5" font-family="Helvetica,sans-Serif" font-size="10.00">Modules/Skeleton/src</text>
<text text-anchor="middle" x="2144.62" y="-74.5" font-family="Helvetica,sans-Serif" font-size="10.00">/SkeletonTask.cxx</text>
</a>
</g>
</g>
<!-- Node4&#45;&gt;Node30 -->
<g id="edge30" class="edge"><title>Node4&#45;&gt;Node30</title>
<path fill="none" stroke="midnightblue" d="M1656.42,-143.589C1754.9,-136.642 1930.71,-122.041 2079.62,-98 2082.7,-97.5024 2085.85,-96.9485 2089.03,-96.3557"/>
<polygon fill="midnightblue" stroke="midnightblue" points="1656,-140.11 1646.27,-144.298 1656.48,-147.094 1656,-140.11"/>
</g>
<!-- Node6 -->
<g id="node6" class="node"><title>Node6</title>
<g id="a_node6"><a xlink:href="Checker_8cxx.html" target="_top" xlink:title="Framework/src/Checker.cxx">
<polygon fill="none" stroke="black" points="58.6173,-6 58.6173,-25 198.617,-25 198.617,-6 58.6173,-6"/>
<text text-anchor="middle" x="128.617" y="-13" font-family="Helvetica,sans-Serif" font-size="10.00">Framework/src/Checker.cxx</text>
</a>
</g>
</g>
<!-- Node5&#45;&gt;Node6 -->
<g id="edge5" class="edge"><title>Node5&#45;&gt;Node6</title>
<path fill="none" stroke="midnightblue" d="M724.92,-71.4486C712.138,-69.8829 699.01,-68.3416 686.617,-67 511.338,-48.0242 304.545,-30.604 198.726,-22.0488"/>
<polygon fill="midnightblue" stroke="midnightblue" points="724.722,-74.9507 735.076,-72.7062 725.582,-68.0038 724.722,-74.9507"/>
</g>
<!-- Node7 -->
<g id="node7" class="node"><title>Node7</title>
<g id="a_node7"><a xlink:href="CheckerFactory_8cxx.html" target="_top" xlink:title="Framework/src/CheckerFactory.cxx">
<polygon fill="none" stroke="black" points="715.117,-6 715.117,-25 888.117,-25 888.117,-6 715.117,-6"/>
<text text-anchor="middle" x="801.617" y="-13" font-family="Helvetica,sans-Serif" font-size="10.00">Framework/src/CheckerFactory.cxx</text>
</a>
</g>
</g>
<!-- Node5&#45;&gt;Node7 -->
<g id="edge6" class="edge"><title>Node5&#45;&gt;Node7</title>
<path fill="none" stroke="midnightblue" d="M801.617,-57.2495C801.617,-46.017 801.617,-33.3767 801.617,-25.1945"/>
<polygon fill="midnightblue" stroke="midnightblue" points="798.117,-57.3959 801.617,-67.396 805.117,-57.396 798.117,-57.3959"/>
</g>
<!-- Node8 -->
<g id="node8" class="node"><title>Node8</title>
<g id="a_node8"><a xlink:href="runBasic_8cxx.html" target="_top" xlink:title="This is an executable showing QC Task&#39;s usage in Data Processing Layer. ">
<polygon fill="none" stroke="black" points="906.617,-6 906.617,-25 1048.62,-25 1048.62,-6 906.617,-6"/>
<text text-anchor="middle" x="977.617" y="-13" font-family="Helvetica,sans-Serif" font-size="10.00">Framework/src/runBasic.cxx</text>
</a>
</g>
</g>
<!-- Node5&#45;&gt;Node8 -->
<g id="edge7" class="edge"><title>Node5&#45;&gt;Node8</title>
<path fill="none" stroke="midnightblue" d="M849.587,-63.7838C883.713,-51.1807 928.044,-34.8082 954.583,-25.007"/>
<polygon fill="midnightblue" stroke="midnightblue" points="847.975,-60.6482 839.807,-67.396 850.4,-67.2147 847.975,-60.6482"/>
</g>
<!-- Node9 -->
<g id="node9" class="node"><title>Node9</title>
<g id="a_node9"><a xlink:href="runMergerTest_8cxx.html" target="_top" xlink:title="This is DPL workflow to see HistoMerger in action. ">
<polygon fill="none" stroke="black" points="1067.12,-6 1067.12,-25 1234.12,-25 1234.12,-6 1067.12,-6"/>
<text text-anchor="middle" x="1150.62" y="-13" font-family="Helvetica,sans-Serif" font-size="10.00">Framework/src/runMergerTest.cxx</text>
</a>
</g>
</g>
<!-- Node5&#45;&gt;Node9 -->
<g id="edge8" class="edge"><title>Node5&#45;&gt;Node9</title>
<path fill="none" stroke="midnightblue" d="M878.487,-67.1832C947.761,-54.2813 1047.3,-35.7422 1104.82,-25.0291"/>
<polygon fill="midnightblue" stroke="midnightblue" points="877.685,-63.7724 868.495,-69.0443 878.967,-70.654 877.685,-63.7724"/>
</g>
<!-- Node10 -->
<g id="node10" class="node"><title>Node10</title>
<g id="a_node10"><a xlink:href="runReadout_8cxx.html" target="_top" xlink:title="This is an executable showing QC Task&#39;s usage in Data Processing Layer with Readout as external data ...">
<polygon fill="none" stroke="black" points="1252.62,-6 1252.62,-25 1406.62,-25 1406.62,-6 1252.62,-6"/>
<text text-anchor="middle" x="1329.62" y="-13" font-family="Helvetica,sans-Serif" font-size="10.00">Framework/src/runReadout.cxx</text>
</a>
</g>
</g>
<!-- Node5&#45;&gt;Node10 -->
<g id="edge9" class="edge"><title>Node5&#45;&gt;Node10</title>
<path fill="none" stroke="midnightblue" d="M878.202,-67.6303C879.685,-67.4137 881.158,-67.2033 882.617,-67 1041.88,-44.8162 1083.23,-52.2289 1242.62,-31 1255.37,-29.3019 1269.12,-27.157 1281.84,-25.0413"/>
<polygon fill="midnightblue" stroke="midnightblue" points="877.655,-64.1731 868.297,-69.1413 878.711,-71.0931 877.655,-64.1731"/>
</g>
<!-- Node11 -->
<g id="node11" class="node"><title>Node11</title>
<g id="a_node11"><a xlink:href="testChecker_8cxx.html" target="_top" xlink:title="Framework/test/testChecker.cxx">
<polygon fill="none" stroke="black" points="1424.62,-6 1424.62,-25 1584.62,-25 1584.62,-6 1424.62,-6"/>
<text text-anchor="middle" x="1504.62" y="-13" font-family="Helvetica,sans-Serif" font-size="10.00">Framework/test/testChecker.cxx</text>
</a>
</g>
</g>
<!-- Node5&#45;&gt;Node11 -->
<g id="edge10" class="edge"><title>Node5&#45;&gt;Node11</title>
<path fill="none" stroke="midnightblue" d="M878.193,-67.5653C879.679,-67.3685 881.155,-67.1797 882.617,-67 1118.27,-38.0377 1179.74,-58.1194 1415.62,-31 1429.3,-29.4264 1444.1,-27.2213 1457.62,-25.0048"/>
<polygon fill="midnightblue" stroke="midnightblue" points="877.685,-64.1022 868.275,-68.9698 878.667,-71.0331 877.685,-64.1022"/>
</g>
<!-- Node12 -->
<g id="node12" class="node"><title>Node12</title>
<g id="a_node12"><a xlink:href="testWorkflow_8cxx.html" target="_top" xlink:title="Framework/test/testWorkflow.cxx">
<polygon fill="none" stroke="black" points="532.617,-6 532.617,-25 696.617,-25 696.617,-6 532.617,-6"/>
<text text-anchor="middle" x="614.617" y="-13" font-family="Helvetica,sans-Serif" font-size="10.00">Framework/test/testWorkflow.cxx</text>
</a>
</g>
</g>
<!-- Node5&#45;&gt;Node12 -->
<g id="edge11" class="edge"><title>Node5&#45;&gt;Node12</title>
<path fill="none" stroke="midnightblue" d="M751.58,-64.1075C715.201,-51.4622 667.53,-34.8923 639.091,-25.007"/>
<polygon fill="midnightblue" stroke="midnightblue" points="750.446,-67.4186 761.041,-67.396 752.745,-60.8067 750.446,-67.4186"/>
</g>
<!-- Node13&#45;&gt;Node14 -->
<g id="edge13" class="edge"><title>Node13&#45;&gt;Node14</title>
<path fill="none" stroke="midnightblue" d="M1927.86,-67.07C1305.79,-1.20518 1142.14,-89.601 523.617,-31 509.436,-29.6564 494.082,-27.4058 480.23,-25.0737"/>
<polygon fill="midnightblue" stroke="midnightblue" points="1927.67,-70.5688 1937.98,-68.1506 1928.41,-63.6084 1927.67,-70.5688"/>
</g>
<!-- Node13&#45;&gt;Node15 -->
<g id="edge14" class="edge"><title>Node13&#45;&gt;Node15</title>
<path fill="none" stroke="midnightblue" d="M2081.44,-66.7782C2214.91,-46.2318 2250.78,-47.4998 2381.62,-31 2396.58,-29.113 2412.69,-27.0098 2427.81,-25.0036"/>
<polygon fill="midnightblue" stroke="midnightblue" points="2080.57,-63.37 2071.23,-68.3623 2081.65,-70.2872 2080.57,-63.37"/>
</g>
<!-- Node16 -->
<g id="node16" class="node"><title>Node16</title>
<g id="a_node16"><a xlink:href="testQcDaq_8cxx.html" target="_top" xlink:title="Modules/Daq/test/testQcDaq.cxx">
<polygon fill="none" stroke="black" points="1685.12,-6 1685.12,-25 1848.12,-25 1848.12,-6 1685.12,-6"/>
<text text-anchor="middle" x="1766.62" y="-13" font-family="Helvetica,sans-Serif" font-size="10.00">Modules/Daq/test/testQcDaq.cxx</text>
</a>
</g>
</g>
<!-- Node13&#45;&gt;Node16 -->
<g id="edge15" class="edge"><title>Node13&#45;&gt;Node16</title>
<path fill="none" stroke="midnightblue" d="M1943.58,-64.8304C1897,-52.1091 1834.74,-35.1062 1797.85,-25.0287"/>
<polygon fill="midnightblue" stroke="midnightblue" points="1942.7,-68.2177 1953.27,-67.476 1944.54,-61.465 1942.7,-68.2177"/>
</g>
<!-- Node13&#45;&gt;Node17 -->
<g id="edge16" class="edge"><title>Node13&#45;&gt;Node17</title>
<path fill="none" stroke="midnightblue" d="M2081.38,-66.8725C2307.13,-38.0097 2368.19,-60.2278 2590.62,-31 2596.4,-30.2398 2602.42,-29.3125 2608.41,-28.2981"/>
<polygon fill="midnightblue" stroke="midnightblue" points="2080.67,-63.4355 2071.21,-68.194 2081.57,-70.3773 2080.67,-63.4355"/>
</g>
<!-- Node18 -->
<g id="node18" class="node"><title>Node18</title>
<g id="a_node18"><a xlink:href="testQcExample_8cxx.html" target="_top" xlink:title="Modules/Example/test\l/testQcExample.cxx">
<polygon fill="none" stroke="black" points="2258.62,-0.5 2258.62,-30.5 2372.62,-30.5 2372.62,-0.5 2258.62,-0.5"/>
<text text-anchor="start" x="2266.62" y="-18.5" font-family="Helvetica,sans-Serif" font-size="10.00">Modules/Example/test</text>
<text text-anchor="middle" x="2315.62" y="-7.5" font-family="Helvetica,sans-Serif" font-size="10.00">/testQcExample.cxx</text>
</a>
</g>
</g>
<!-- Node13&#45;&gt;Node18 -->
<g id="edge17" class="edge"><title>Node13&#45;&gt;Node18</title>
<path fill="none" stroke="midnightblue" d="M2081.35,-65.4629C2136.14,-54.0124 2208.65,-38.857 2258.41,-28.4575"/>
<polygon fill="midnightblue" stroke="midnightblue" points="2080.41,-62.084 2071.33,-67.5559 2081.84,-68.9359 2080.41,-62.084"/>
</g>
<!-- Node19 -->
<g id="node19" class="node"><title>Node19</title>
<polygon fill="none" stroke="#bfbfbf" points="1947.62,-0.5 1947.62,-30.5 2061.62,-30.5 2061.62,-0.5 1947.62,-0.5"/>
<text text-anchor="start" x="1955.62" y="-18.5" font-family="Helvetica,sans-Serif" font-size="10.00">Modules/Skeleton/test</text>
<text text-anchor="middle" x="2004.62" y="-7.5" font-family="Helvetica,sans-Serif" font-size="10.00">/.testEmpty.cxx</text>
</g>
<!-- Node13&#45;&gt;Node19 -->
<g id="edge18" class="edge"><title>Node13&#45;&gt;Node19</title>
<path fill="none" stroke="midnightblue" d="M2004.62,-57.1081C2004.62,-48.1539 2004.62,-38.3227 2004.62,-30.5765"/>
<polygon fill="midnightblue" stroke="midnightblue" points="2001.12,-57.3959 2004.62,-67.396 2008.12,-57.396 2001.12,-57.3959"/>
</g>
<!-- Node20 -->
<g id="node20" class="node"><title>Node20</title>
<g id="a_node20"><a xlink:href="testQcSkeleton_8cxx.html" target="_top" xlink:title="Modules/Skeleton/test\l/testQcSkeleton.cxx">
<polygon fill="none" stroke="black" points="2110.62,-0.5 2110.62,-30.5 2224.62,-30.5 2224.62,-0.5 2110.62,-0.5"/>
<text text-anchor="start" x="2118.62" y="-18.5" font-family="Helvetica,sans-Serif" font-size="10.00">Modules/Skeleton/test</text>
<text text-anchor="middle" x="2167.62" y="-7.5" font-family="Helvetica,sans-Serif" font-size="10.00">/testQcSkeleton.cxx</text>
</a>
</g>
</g>
<!-- Node13&#45;&gt;Node20 -->
<g id="edge19" class="edge"><title>Node13&#45;&gt;Node20</title>
<path fill="none" stroke="midnightblue" d="M2049.3,-63.6815C2075.44,-53.2568 2107.98,-40.2805 2132.32,-30.5765"/>
<polygon fill="midnightblue" stroke="midnightblue" points="2047.98,-60.4408 2039.99,-67.396 2050.57,-66.9429 2047.98,-60.4408"/>
</g>
<!-- Node31&#45;&gt;Node6 -->
<g id="edge32" class="edge"><title>Node31&#45;&gt;Node6</title>
<path fill="none" stroke="midnightblue" d="M345.955,-144.584C232.189,-137.978 29.6306,-122.854 7.61726,-98 -22.3581,-64.1559 48.2958,-37.8848 93.8217,-25.0803"/>
<polygon fill="midnightblue" stroke="midnightblue" points="345.822,-148.082 356.006,-145.159 346.222,-141.094 345.822,-148.082"/>
</g>
<!-- Node31&#45;&gt;Node14 -->
<g id="edge34" class="edge"><title>Node31&#45;&gt;Node14</title>
<path fill="none" stroke="midnightblue" d="M482.234,-130.091C496.983,-122.564 511.012,-112.181 519.617,-98 526.765,-86.2211 526.4,-78.9924 519.617,-67 507.722,-45.9685 483.178,-32.7311 463.677,-25.1121"/>
<polygon fill="midnightblue" stroke="midnightblue" points="480.571,-127.005 473,-134.416 483.541,-133.344 480.571,-127.005"/>
</g>
<!-- Node32 -->
<g id="node32" class="node"><title>Node32</title>
<polygon fill="none" stroke="#bfbfbf" points="17.1173,-67.5 17.1173,-97.5 160.117,-97.5 160.117,-67.5 17.1173,-67.5"/>
<text text-anchor="start" x="25.1173" y="-85.5" font-family="Helvetica,sans-Serif" font-size="10.00">Framework/src/Infrastructure</text>
<text text-anchor="middle" x="88.6173" y="-74.5" font-family="Helvetica,sans-Serif" font-size="10.00">Generator.cxx</text>
</g>
<!-- Node31&#45;&gt;Node32 -->
<g id="edge33" class="edge"><title>Node31&#45;&gt;Node32</title>
<path fill="none" stroke="midnightblue" d="M345.98,-133.586C290.089,-122.709 214.876,-108.071 160.199,-97.4306"/>
<polygon fill="midnightblue" stroke="midnightblue" points="345.346,-137.028 355.83,-135.503 346.683,-130.157 345.346,-137.028"/>
</g>
<!-- Node33 -->
<g id="node33" class="node"><title>Node33</title>
<g id="a_node33"><a xlink:href="TaskRunnerFactory_8cxx.html" target="_top" xlink:title="Framework/src/TaskRunner\lFactory.cxx">
<polygon fill="none" stroke="black" points="178.617,-67.5 178.617,-97.5 316.617,-97.5 316.617,-67.5 178.617,-67.5"/>
<text text-anchor="start" x="186.617" y="-85.5" font-family="Helvetica,sans-Serif" font-size="10.00">Framework/src/TaskRunner</text>
<text text-anchor="middle" x="247.617" y="-74.5" font-family="Helvetica,sans-Serif" font-size="10.00">Factory.cxx</text>
</a>
</g>
</g>
<!-- Node31&#45;&gt;Node33 -->
<g id="edge35" class="edge"><title>Node31&#45;&gt;Node33</title>
<path fill="none" stroke="midnightblue" d="M375.013,-130.819C346.884,-120.371 311.756,-107.323 285.516,-97.5765"/>
<polygon fill="midnightblue" stroke="midnightblue" points="374.052,-134.195 384.645,-134.396 376.489,-127.633 374.052,-134.195"/>
</g>
<!-- Node34 -->
<g id="node34" class="node"><title>Node34</title>
<g id="a_node34"><a xlink:href="testTaskRunner_8cxx.html" target="_top" xlink:title="Framework/test/testTaskRunner.cxx">
<polygon fill="none" stroke="black" points="334.617,-73 334.617,-92 510.617,-92 510.617,-73 334.617,-73"/>
<text text-anchor="middle" x="422.617" y="-80" font-family="Helvetica,sans-Serif" font-size="10.00">Framework/test/testTaskRunner.cxx</text>
</a>
</g>
</g>
<!-- Node31&#45;&gt;Node34 -->
<g id="edge36" class="edge"><title>Node31&#45;&gt;Node34</title>
<path fill="none" stroke="midnightblue" d="M422.617,-124.25C422.617,-113.017 422.617,-100.377 422.617,-92.1945"/>
<polygon fill="midnightblue" stroke="midnightblue" points="419.117,-124.396 422.617,-134.396 426.117,-124.396 419.117,-124.396"/>
</g>
<!-- Node36&#45;&gt;Node16 -->
<g id="edge42" class="edge"><title>Node36&#45;&gt;Node16</title>
<path fill="none" stroke="midnightblue" d="M958.781,-129.948C927.803,-113.758 894.363,-89.413 915.617,-67 941.572,-39.6302 1555.99,-33.5755 1593.62,-31 1623.39,-28.9626 1656,-26.3325 1684.81,-23.8728"/>
<polygon fill="midnightblue" stroke="midnightblue" points="957.321,-133.131 967.828,-134.494 960.464,-126.877 957.321,-133.131"/>
</g>
<!-- Node36&#45;&gt;Node27 -->
<g id="edge41" class="edge"><title>Node36&#45;&gt;Node27</title>
<path fill="none" stroke="midnightblue" d="M1000.62,-124.25C1000.62,-113.017 1000.62,-100.377 1000.62,-92.1945"/>
<polygon fill="midnightblue" stroke="midnightblue" points="997.117,-124.396 1000.62,-134.396 1004.12,-124.396 997.117,-124.396"/>
</g>
<!-- Node37&#45;&gt;Node28 -->
<g id="edge44" class="edge"><title>Node37&#45;&gt;Node28</title>
<path fill="none" stroke="midnightblue" d="M706.008,-129.435C687.494,-119.237 665.093,-106.897 648.172,-97.5765"/>
<polygon fill="midnightblue" stroke="midnightblue" points="704.565,-132.637 715.013,-134.396 707.943,-126.505 704.565,-132.637"/>
</g>
<!-- Node38&#45;&gt;Node17 -->
<g id="edge47" class="edge"><title>Node38&#45;&gt;Node17</title>
<path fill="none" stroke="midnightblue" d="M2558.16,-129.402C2573.22,-120.935 2590.08,-110.134 2603.62,-98 2626.25,-77.7068 2646.31,-48.1602 2657.14,-30.7766"/>
<polygon fill="midnightblue" stroke="midnightblue" points="2556.16,-126.503 2549.06,-134.364 2559.51,-132.649 2556.16,-126.503"/>
</g>
<!-- Node38&#45;&gt;Node18 -->
<g id="edge48" class="edge"><title>Node38&#45;&gt;Node18</title>
<path fill="none" stroke="midnightblue" d="M2546.59,-127.851C2565.69,-110.727 2585.35,-86.1719 2569.62,-67 2569.22,-66.5187 2447.61,-42.4945 2372.82,-27.7595"/>
<polygon fill="midnightblue" stroke="midnightblue" points="2544.16,-125.322 2538.82,-134.472 2548.7,-130.65 2544.16,-125.322"/>
</g>
<!-- Node38&#45;&gt;Node29 -->
<g id="edge46" class="edge"><title>Node38&#45;&gt;Node29</title>
<path fill="none" stroke="midnightblue" d="M2514.43,-124.403C2512.48,-115.37 2510.34,-105.408 2508.65,-97.5765"/>
<polygon fill="midnightblue" stroke="midnightblue" points="2511.05,-125.357 2516.58,-134.396 2517.9,-123.883 2511.05,-125.357"/>
</g>
<!-- Node39&#45;&gt;Node20 -->
<g id="edge51" class="edge"><title>Node39&#45;&gt;Node20</title>
<path fill="none" stroke="midnightblue" d="M2180.74,-128.803C2191.77,-120.81 2202.57,-110.483 2208.62,-98 2220.16,-74.1983 2199.19,-46.7678 2183.22,-30.5719"/>
<polygon fill="midnightblue" stroke="midnightblue" points="2178.68,-125.969 2172.34,-134.456 2182.59,-131.776 2178.68,-125.969"/>
</g>
<!-- Node39&#45;&gt;Node30 -->
<g id="edge50" class="edge"><title>Node39&#45;&gt;Node30</title>
<path fill="none" stroke="midnightblue" d="M2144.62,-124.108C2144.62,-115.154 2144.62,-105.323 2144.62,-97.5765"/>
<polygon fill="midnightblue" stroke="midnightblue" points="2141.12,-124.396 2144.62,-134.396 2148.12,-124.396 2141.12,-124.396"/>
</g>
</g>
</svg>
        <g id="navigator" transform="translate(0 0)" fill="#404254">
                <rect fill="#f2f5e9" fill-opacity="0.5" stroke="#606060" stroke-width=".5" x="0" y="0" width="60" height="60"/>
                <use id="zoomplus" xlink:href="#zoomPlus" x="17" y="9" onmousedown="handleZoom(evt,'in')"/>
                <use id="zoomminus" xlink:href="#zoomMin" x="42" y="9" onmousedown="handleZoom(evt,'out')"/>
                <use id="reset" xlink:href="#resetDef" x="30" y="36" onmousedown="handleReset()"/>
                <g id="arrowUp" xlink:href="#dirArrow" transform="translate(30 24)" onmousedown="handlePan(0,-1)">
                  <use xlink:href="#rim" fill="#404040">
                        <set attributeName="fill" to="#808080" begin="arrowUp.mouseover" end="arrowUp.mouseout"/>
                  </use>
                  <path fill="none" stroke="white" stroke-width="1.5" d="M0,-3.0v7 M-2.5,-0.5L0,-3.0L2.5,-0.5"/>
                </g>
                <g id="arrowRight" xlink:href="#dirArrow" transform="rotate(90) translate(36 -43)" onmousedown="handlePan(1,0)">
                  <use xlink:href="#rim" fill="#404040">
                        <set attributeName="fill" to="#808080" begin="arrowRight.mouseover" end="arrowRight.mouseout"/>
                  </use>
                  <path fill="none" stroke="white" stroke-width="1.5" d="M0,-3.0v7 M-2.5,-0.5L0,-3.0L2.5,-0.5"/>
                </g>
                <g id="arrowDown" xlink:href="#dirArrow" transform="rotate(180) translate(-30 -48)" onmousedown="handlePan(0,1)">
                  <use xlink:href="#rim" fill="#404040">
                        <set attributeName="fill" to="#808080" begin="arrowDown.mouseover" end="arrowDown.mouseout"/>
                  </use>
                  <path fill="none" stroke="white" stroke-width="1.5" d="M0,-3.0v7 M-2.5,-0.5L0,-3.0L2.5,-0.5"/>
                </g>
                <g id="arrowLeft" xlink:href="#dirArrow" transform="rotate(270) translate(-36 17)" onmousedown="handlePan(-1,0)">
                  <use xlink:href="#rim" fill="#404040">
                        <set attributeName="fill" to="#808080" begin="arrowLeft.mouseover" end="arrowLeft.mouseout"/>
                  </use>
                  <path fill="none" stroke="white" stroke-width="1.5" d="M0,-3.0v7 M-2.5,-0.5L0,-3.0L2.5,-0.5"/>
                </g>
        </g>
        <svg viewBox="0 0 15 15" width="100%" height="30px" preserveAspectRatio="xMaxYMin meet">
         <g id="arrow_out" transform="scale(0.3 0.3)">
          <a xlink:href="TaskConfig_8h__dep__incl_org.svg" target="_base">
           <rect id="button" ry="5" rx="5" y="6" x="6" height="38" width="38"
                fill="#f2f5e9" fill-opacity="0.5" stroke="#606060" stroke-width="1.0"/>
           <path id="arrow"
             d="M 11.500037,31.436501 C 11.940474,20.09759 22.043105,11.32322 32.158766,21.979434 L 37.068811,17.246167 C 37.068811,17.246167 37.088388,32 37.088388,32 L 22.160133,31.978069 C 22.160133,31.978069 26.997745,27.140456 26.997745,27.140456 C 18.528582,18.264221 13.291696,25.230495 11.500037,31.436501 z"
             style="fill:#404040;"/>
          </a>
         </g>
        </svg>
</svg>
