<?xml version="1.0" encoding="UTF-8" standalone="no"?>
<!DOCTYPE svg PUBLIC "-//W3C//DTD SVG 1.1//EN"
 "http://www.w3.org/Graphics/SVG/1.1/DTD/svg11.dtd">
<!-- Generated by graphviz version 2.38.0 (20140413.2041)
 -->
<!-- Title: Framework/src/TaskRunner.cxx Pages: 1 -->
<!--zoomable 453 -->
<svg id="main" version="1.1" xmlns="http://www.w3.org/2000/svg" xmlns:xlink="http://www.w3.org/1999/xlink" xml:space="preserve" onload="init(evt)">
<style type="text/css"><![CDATA[
.edge:hover path { stroke: red; }
.edge:hover polygon { stroke: red; fill: red; }
]]></style>
<script type="text/javascript"><![CDATA[
var edges = document.getElementsByTagName('g');
if (edges && edges.length) {
  for (var i=0;i<edges.length;i++) {
    if (edges[i].id.substr(0,4)=='edge') {
      edges[i].setAttribute('class','edge');
    }
  }
}
]]></script>
        <defs>
                <circle id="rim" cx="0" cy="0" r="7"/>
                <circle id="rim2" cx="0" cy="0" r="3.5"/>
                <g id="zoomPlus">
                        <use xlink:href="#rim" fill="#404040">
                                <set attributeName="fill" to="#808080" begin="zoomplus.mouseover" end="zoomplus.mouseout"/>
                        </use>
                        <path d="M-4,0h8M0,-4v8" fill="none" stroke="white" stroke-width="1.5" pointer-events="none"/>
                </g>
                <g id="zoomMin">
                        <use xlink:href="#rim" fill="#404040">
                                <set attributeName="fill" to="#808080" begin="zoomminus.mouseover" end="zoomminus.mouseout"/>
                        </use>
                        <path d="M-4,0h8" fill="none" stroke="white" stroke-width="1.5" pointer-events="none"/>
                </g>
                <g id="dirArrow">
                        <path fill="none" stroke="white" stroke-width="1.5" d="M0,-3.0v7 M-2.5,-0.5L0,-3.0L2.5,-0.5"/>
                </g>
               <g id="resetDef">
                       <use xlink:href="#rim2" fill="#404040">
                               <set attributeName="fill" to="#808080" begin="reset.mouseover" end="reset.mouseout"/>
                       </use>
               </g>
        </defs>

<script type="text/javascript">
var viewWidth = 2801;
var viewHeight = 453;
var sectionId = 'dynsection-0';
</script>
<script xlink:href="svgpan.js"/>
<svg id="graph" class="graph">
<g id="viewport">
<title>Framework/src/TaskRunner.cxx</title>
<!-- Node1 -->
<g id="node1" class="node"><title>Node1</title>
<polygon fill="#bfbfbf" stroke="black" points="729.5,-425.5 729.5,-444.5 886.5,-444.5 886.5,-425.5 729.5,-425.5"/>
<text text-anchor="middle" x="808" y="-432.5" font-family="Helvetica,sans-Serif" font-size="10.00">Framework/src/TaskRunner.cxx</text>
</g>
<!-- Node2 -->
<g id="node2" class="node"><title>Node2</title>
<polygon fill="none" stroke="#bfbfbf" points="949,-62 949,-81 1001,-81 1001,-62 949,-62"/>
<text text-anchor="middle" x="975" y="-69" font-family="Helvetica,sans-Serif" font-size="10.00">memory</text>
</g>
<!-- Node1&#45;&gt;Node2 -->
<g id="edge1" class="edge"><title>Node1&#45;&gt;Node2</title>
<path fill="none" stroke="midnightblue" d="M886.596,-431.806C1065.23,-426.438 1487.97,-411.419 1509,-389 1535.45,-360.796 1521.23,-338.682 1509,-302 1502.68,-283.026 1488.32,-284.974 1482,-266 1472.57,-237.7 1484.35,-228.785 1486,-199 1486.49,-190.125 1491.74,-185.791 1486,-179 1455.17,-142.492 1320.83,-152.488 1274,-143 1178.54,-123.66 1067.1,-96.0336 1011.08,-81.787"/>
<polygon fill="midnightblue" stroke="midnightblue" points="1011.83,-78.3673 1001.27,-79.2876 1010.1,-85.1502 1011.83,-78.3673"/>
</g>
<!-- Node3 -->
<g id="node3" class="node"><title>Node3</title>
<polygon fill="none" stroke="#bfbfbf" points="286,-62 286,-81 340,-81 340,-62 286,-62"/>
<text text-anchor="middle" x="313" y="-69" font-family="Helvetica,sans-Serif" font-size="10.00">iostream</text>
</g>
<!-- Node1&#45;&gt;Node3 -->
<g id="edge2" class="edge"><title>Node1&#45;&gt;Node3</title>
<path fill="none" stroke="midnightblue" d="M729.383,-433.42C546.664,-431.497 104.501,-423.312 47,-389 12.8954,-368.649 0,-352.715 0,-313 0,-313 0,-313 0,-188 0,-129.815 192.777,-91.82 275.751,-78.1611"/>
<polygon fill="midnightblue" stroke="midnightblue" points="276.457,-81.5924 285.771,-76.5424 275.341,-74.682 276.457,-81.5924"/>
</g>
<!-- Node4 -->
<g id="node4" class="node"><title>Node4</title>
<polygon fill="none" stroke="#bfbfbf" points="66,-364 66,-383 184,-383 184,-364 66,-364"/>
<text text-anchor="middle" x="125" y="-371" font-family="Helvetica,sans-Serif" font-size="10.00">fairmq/FairMQDevice.h</text>
</g>
<!-- Node1&#45;&gt;Node4 -->
<g id="edge3" class="edge"><title>Node1&#45;&gt;Node4</title>
<path fill="none" stroke="midnightblue" d="M729.2,-431.271C612.659,-426.539 387.671,-414.735 198,-389 189.99,-387.913 181.535,-386.492 173.331,-384.964"/>
<polygon fill="midnightblue" stroke="midnightblue" points="173.978,-381.524 163.495,-383.063 172.649,-388.397 173.978,-381.524"/>
</g>
<!-- Node5 -->
<g id="node5" class="node"><title>Node5</title>
<polygon fill="none" stroke="#bfbfbf" points="406,-62 406,-81 522,-81 522,-62 406,-62"/>
<text text-anchor="middle" x="464" y="-69" font-family="Helvetica,sans-Serif" font-size="10.00">Common/Exceptions.h</text>
</g>
<!-- Node1&#45;&gt;Node5 -->
<g id="edge4" class="edge"><title>Node1&#45;&gt;Node5</title>
<path fill="none" stroke="midnightblue" d="M729.41,-432.896C580.385,-430.082 268.215,-420.462 231,-389 204.411,-366.521 212,-347.817 212,-313 212,-313 212,-313 212,-249.5 212,-151.717 340.628,-103.309 414.089,-83.6357"/>
<polygon fill="midnightblue" stroke="midnightblue" points="415.268,-86.9459 424.07,-81.0483 413.511,-80.1699 415.268,-86.9459"/>
</g>
<!-- Node6 -->
<g id="node6" class="node"><title>Node6</title>
<polygon fill="none" stroke="#bfbfbf" points="240.5,-358.5 240.5,-388.5 375.5,-388.5 375.5,-358.5 240.5,-358.5"/>
<text text-anchor="start" x="248.5" y="-376.5" font-family="Helvetica,sans-Serif" font-size="10.00">Configuration/Configuration</text>
<text text-anchor="middle" x="308" y="-365.5" font-family="Helvetica,sans-Serif" font-size="10.00">Factory.h</text>
</g>
<!-- Node1&#45;&gt;Node6 -->
<g id="edge5" class="edge"><title>Node1&#45;&gt;Node6</title>
<path fill="none" stroke="midnightblue" d="M729.412,-427.538C646.543,-420.293 511.971,-407.308 385.787,-389.035"/>
<polygon fill="midnightblue" stroke="midnightblue" points="385.956,-385.522 375.555,-387.538 384.943,-392.448 385.956,-385.522"/>
</g>
<!-- Node7 -->
<g id="node7" class="node"><title>Node7</title>
<polygon fill="none" stroke="#bfbfbf" points="394,-364 394,-383 532,-383 532,-364 394,-364"/>
<text text-anchor="middle" x="463" y="-371" font-family="Helvetica,sans-Serif" font-size="10.00">Framework/DataSampling.h</text>
</g>
<!-- Node1&#45;&gt;Node7 -->
<g id="edge6" class="edge"><title>Node1&#45;&gt;Node7</title>
<path fill="none" stroke="midnightblue" d="M755.77,-425.464C701.914,-416.6 615.522,-402.206 541,-389 533.645,-387.697 525.905,-386.295 518.274,-384.894"/>
<polygon fill="midnightblue" stroke="midnightblue" points="518.815,-381.435 508.346,-383.063 517.545,-388.319 518.815,-381.435"/>
</g>
<!-- Node8 -->
<g id="node8" class="node"><title>Node8</title>
<polygon fill="none" stroke="#bfbfbf" points="550.5,-364 550.5,-383 715.5,-383 715.5,-364 550.5,-364"/>
<text text-anchor="middle" x="633" y="-371" font-family="Helvetica,sans-Serif" font-size="10.00">Framework/DataSamplingPolicy.h</text>
</g>
<!-- Node1&#45;&gt;Node8 -->
<g id="edge7" class="edge"><title>Node1&#45;&gt;Node8</title>
<path fill="none" stroke="midnightblue" d="M782.927,-425.475C752.648,-415.18 701.56,-397.81 667.559,-386.25"/>
<polygon fill="midnightblue" stroke="midnightblue" points="668.621,-382.914 658.027,-383.009 666.368,-389.542 668.621,-382.914"/>
</g>
<!-- Node9 -->
<g id="node9" class="node"><title>Node9</title>
<polygon fill="none" stroke="#bfbfbf" points="734,-364 734,-383 882,-383 882,-364 734,-364"/>
<text text-anchor="middle" x="808" y="-371" font-family="Helvetica,sans-Serif" font-size="10.00">Framework/CallbackService.h</text>
</g>
<!-- Node1&#45;&gt;Node9 -->
<g id="edge8" class="edge"><title>Node1&#45;&gt;Node9</title>
<path fill="none" stroke="midnightblue" d="M808,-425.475C808,-417.08 808,-403.981 808,-393.163"/>
<polygon fill="midnightblue" stroke="midnightblue" points="811.5,-393.009 808,-383.009 804.5,-393.009 811.5,-393.009"/>
</g>
<!-- Node10 -->
<g id="node10" class="node"><title>Node10</title>
<polygon fill="none" stroke="#bfbfbf" points="900.5,-364 900.5,-383 1043.5,-383 1043.5,-364 900.5,-364"/>
<text text-anchor="middle" x="972" y="-371" font-family="Helvetica,sans-Serif" font-size="10.00">Framework/TimesliceIndex.h</text>
</g>
<!-- Node1&#45;&gt;Node10 -->
<g id="edge9" class="edge"><title>Node1&#45;&gt;Node10</title>
<path fill="none" stroke="midnightblue" d="M831.497,-425.475C859.629,-415.269 906.929,-398.108 938.789,-386.549"/>
<polygon fill="midnightblue" stroke="midnightblue" points="940.34,-389.71 948.546,-383.009 937.952,-383.13 940.34,-389.71"/>
</g>
<!-- Node11 -->
<g id="node11" class="node"><title>Node11</title>
<polygon fill="none" stroke="#bfbfbf" points="1062,-364 1062,-383 1202,-383 1202,-364 1062,-364"/>
<text text-anchor="middle" x="1132" y="-371" font-family="Helvetica,sans-Serif" font-size="10.00">Framework/DataSpecUtils.h</text>
</g>
<!-- Node1&#45;&gt;Node11 -->
<g id="edge10" class="edge"><title>Node1&#45;&gt;Node11</title>
<path fill="none" stroke="midnightblue" d="M854.421,-425.475C912.766,-414.761 1012.84,-396.382 1075.55,-384.866"/>
<polygon fill="midnightblue" stroke="midnightblue" points="1076.46,-388.258 1085.66,-383.009 1075.2,-381.373 1076.46,-388.258"/>
</g>
<!-- Node12 -->
<g id="node12" class="node"><title>Node12</title>
<polygon fill="none" stroke="#bfbfbf" points="1220.5,-364 1220.5,-383 1337.5,-383 1337.5,-364 1220.5,-364"/>
<text text-anchor="middle" x="1279" y="-371" font-family="Helvetica,sans-Serif" font-size="10.00">Headers/DataHeader.h</text>
</g>
<!-- Node1&#45;&gt;Node12 -->
<g id="edge11" class="edge"><title>Node1&#45;&gt;Node12</title>
<path fill="none" stroke="midnightblue" d="M886.7,-427.532C968.159,-420.295 1098.94,-407.158 1211,-389 1217.8,-387.897 1224.96,-386.565 1231.96,-385.16"/>
<polygon fill="midnightblue" stroke="midnightblue" points="1232.99,-388.523 1242.07,-383.069 1231.57,-381.669 1232.99,-388.523"/>
</g>
<!-- Node13 -->
<g id="node13" class="node"><title>Node13</title>
<polygon fill="none" stroke="#bfbfbf" points="1491.5,-241 1491.5,-260 1642.5,-260 1642.5,-241 1491.5,-241"/>
<text text-anchor="middle" x="1567" y="-248" font-family="Helvetica,sans-Serif" font-size="10.00">Monitoring/MonitoringFactory.h</text>
</g>
<!-- Node1&#45;&gt;Node13 -->
<g id="edge12" class="edge"><title>Node1&#45;&gt;Node13</title>
<path fill="none" stroke="midnightblue" d="M886.556,-434.584C1066.13,-435.165 1494.93,-431.98 1543,-389 1576.48,-359.066 1574.06,-300.413 1570.18,-270.309"/>
<polygon fill="midnightblue" stroke="midnightblue" points="1573.62,-269.665 1568.69,-260.289 1566.7,-270.695 1573.62,-269.665"/>
</g>
<!-- Node14 -->
<g id="node14" class="node"><title>Node14</title>
<g id="a_node14"><a xlink:href="QcInfoLogger_8h.html" target="_top" xlink:title="QualityControl/QcInfoLogger.h">
<polygon fill="none" stroke="black" points="259.5,-302.5 259.5,-321.5 408.5,-321.5 408.5,-302.5 259.5,-302.5"/>
<text text-anchor="middle" x="334" y="-309.5" font-family="Helvetica,sans-Serif" font-size="10.00">QualityControl/QcInfoLogger.h</text>
</a>
</g>
</g>
<!-- Node1&#45;&gt;Node14 -->
<g id="edge13" class="edge"><title>Node1&#45;&gt;Node14</title>
<path fill="none" stroke="midnightblue" d="M729.421,-432.159C541.468,-427.373 79.7944,-413.201 57,-389 47.5535,-378.971 48.0729,-368.494 57,-358 81.3837,-329.335 177.21,-318.879 249.374,-315.094"/>
<polygon fill="midnightblue" stroke="midnightblue" points="249.573,-318.589 259.39,-314.603 249.231,-311.597 249.573,-318.589"/>
</g>
<!-- Node38 -->
<g id="node38" class="node"><title>Node38</title>
<g id="a_node38"><a xlink:href="TaskFactory_8h.html" target="_top" xlink:title="QualityControl/TaskFactory.h">
<polygon fill="none" stroke="black" points="1355.5,-364 1355.5,-383 1500.5,-383 1500.5,-364 1355.5,-364"/>
<text text-anchor="middle" x="1428" y="-371" font-family="Helvetica,sans-Serif" font-size="10.00">QualityControl/TaskFactory.h</text>
</a>
</g>
</g>
<!-- Node1&#45;&gt;Node38 -->
<g id="edge48" class="edge"><title>Node1&#45;&gt;Node38</title>
<path fill="none" stroke="midnightblue" d="M886.646,-429.684C991.66,-423.405 1183.34,-410.139 1346,-389 1355.05,-387.823 1364.63,-386.345 1373.92,-384.785"/>
<polygon fill="midnightblue" stroke="midnightblue" points="1374.6,-388.22 1383.86,-383.071 1373.41,-381.322 1374.6,-388.22"/>
</g>
<!-- Node42 -->
<g id="node42" class="node"><title>Node42</title>
<g id="a_node42"><a xlink:href="TaskRunner_8h.html" target="_top" xlink:title="QualityControl/TaskRunner.h">
<polygon fill="none" stroke="black" points="1814.5,-302.5 1814.5,-321.5 1957.5,-321.5 1957.5,-302.5 1814.5,-302.5"/>
<text text-anchor="middle" x="1886" y="-309.5" font-family="Helvetica,sans-Serif" font-size="10.00">QualityControl/TaskRunner.h</text>
</a>
</g>
</g>
<!-- Node1&#45;&gt;Node42 -->
<g id="edge57" class="edge"><title>Node1&#45;&gt;Node42</title>
<path fill="none" stroke="midnightblue" d="M886.68,-434.233C1027,-433.581 1329.33,-427.34 1581,-389 1679.48,-373.998 1792.59,-341.749 1849.4,-324.477"/>
<polygon fill="midnightblue" stroke="midnightblue" points="1850.47,-327.809 1859,-321.534 1848.42,-321.116 1850.47,-327.809"/>
</g>
<!-- Node14&#45;&gt;Node3 -->
<g id="edge47" class="edge"><title>Node14&#45;&gt;Node3</title>
<path fill="none" stroke="midnightblue" d="M312.192,-302.447C297.055,-295.221 278.045,-283.264 269,-266 237.724,-206.307 279.933,-124.862 301.588,-89.7584"/>
<polygon fill="midnightblue" stroke="midnightblue" points="304.655,-91.458 307.073,-81.1427 298.75,-87.699 304.655,-91.458"/>
</g>
<!-- Node15 -->
<g id="node15" class="node"><title>Node15</title>
<g id="a_node15"><a xlink:href="TaskInterface_8h.html" target="_top" xlink:title="TaskInterface.h">
<polygon fill="none" stroke="black" points="1088.5,-241 1088.5,-260 1173.5,-260 1173.5,-241 1088.5,-241"/>
<text text-anchor="middle" x="1131" y="-248" font-family="Helvetica,sans-Serif" font-size="10.00">TaskInterface.h</text>
</a>
</g>
</g>
<!-- Node14&#45;&gt;Node15 -->
<g id="edge14" class="edge"><title>Node14&#45;&gt;Node15</title>
<path fill="none" stroke="midnightblue" d="M408.622,-305.429C568.343,-293.505 940,-265.759 1078.09,-255.45"/>
<polygon fill="midnightblue" stroke="midnightblue" points="1078.69,-258.915 1088.4,-254.68 1078.17,-251.934 1078.69,-258.915"/>
</g>
<!-- Node37 -->
<g id="node37" class="node"><title>Node37</title>
<polygon fill="none" stroke="#bfbfbf" points="278,-241 278,-260 408,-260 408,-241 278,-241"/>
<text text-anchor="middle" x="343" y="-248" font-family="Helvetica,sans-Serif" font-size="10.00">InfoLogger/InfoLogger.hxx</text>
</g>
<!-- Node14&#45;&gt;Node37 -->
<g id="edge46" class="edge"><title>Node14&#45;&gt;Node37</title>
<path fill="none" stroke="midnightblue" d="M335.289,-302.475C336.559,-294.08 338.541,-280.981 340.177,-270.163"/>
<polygon fill="midnightblue" stroke="midnightblue" points="343.678,-270.42 341.713,-260.009 336.757,-269.373 343.678,-270.42"/>
</g>
<!-- Node15&#45;&gt;Node2 -->
<g id="edge15" class="edge"><title>Node15&#45;&gt;Node2</title>
<path fill="none" stroke="midnightblue" d="M1088.35,-250.052C1003.2,-250.145 816.866,-244.957 777,-199 724.518,-138.499 869.011,-96.3905 939.205,-80.0505"/>
<polygon fill="midnightblue" stroke="midnightblue" points="940.013,-83.456 948.99,-77.8275 938.463,-76.6299 940.013,-83.456"/>
</g>
<!-- Node16 -->
<g id="node16" class="node"><title>Node16</title>
<polygon fill="none" stroke="#bfbfbf" points="1106.5,-179.5 1106.5,-198.5 1155.5,-198.5 1155.5,-179.5 1106.5,-179.5"/>
<text text-anchor="middle" x="1131" y="-186.5" font-family="Helvetica,sans-Serif" font-size="10.00">cassert</text>
</g>
<!-- Node15&#45;&gt;Node16 -->
<g id="edge16" class="edge"><title>Node15&#45;&gt;Node16</title>
<path fill="none" stroke="midnightblue" d="M1131,-240.975C1131,-232.58 1131,-219.481 1131,-208.663"/>
<polygon fill="midnightblue" stroke="midnightblue" points="1134.5,-208.509 1131,-198.509 1127.5,-208.509 1134.5,-208.509"/>
</g>
<!-- Node17 -->
<g id="node17" class="node"><title>Node17</title>
<polygon fill="none" stroke="#bfbfbf" points="1173.5,-179.5 1173.5,-198.5 1298.5,-198.5 1298.5,-179.5 1173.5,-179.5"/>
<text text-anchor="middle" x="1236" y="-186.5" font-family="Helvetica,sans-Serif" font-size="10.00">Framework/InitContext.h</text>
</g>
<!-- Node15&#45;&gt;Node17 -->
<g id="edge17" class="edge"><title>Node15&#45;&gt;Node17</title>
<path fill="none" stroke="midnightblue" d="M1146.04,-240.975C1163.28,-231.211 1191.74,-215.081 1212.03,-203.581"/>
<polygon fill="midnightblue" stroke="midnightblue" points="1214.01,-206.484 1220.98,-198.509 1210.56,-200.394 1214.01,-206.484"/>
</g>
<!-- Node18 -->
<g id="node18" class="node"><title>Node18</title>
<polygon fill="none" stroke="#bfbfbf" points="1317,-179.5 1317,-198.5 1477,-198.5 1477,-179.5 1317,-179.5"/>
<text text-anchor="middle" x="1397" y="-186.5" font-family="Helvetica,sans-Serif" font-size="10.00">Framework/ProcessingContext.h</text>
</g>
<!-- Node15&#45;&gt;Node18 -->
<g id="edge18" class="edge"><title>Node15&#45;&gt;Node18</title>
<path fill="none" stroke="midnightblue" d="M1169.11,-240.975C1216.52,-230.371 1297.48,-212.26 1349.06,-200.724"/>
<polygon fill="midnightblue" stroke="midnightblue" points="1349.96,-204.108 1358.96,-198.509 1348.44,-197.276 1349.96,-204.108"/>
</g>
<!-- Node19 -->
<g id="node19" class="node"><title>Node19</title>
<polygon fill="none" stroke="#bfbfbf" points="1577.5,-56.5 1577.5,-86.5 1712.5,-86.5 1712.5,-56.5 1577.5,-56.5"/>
<text text-anchor="start" x="1585.5" y="-74.5" font-family="Helvetica,sans-Serif" font-size="10.00">Configuration/Configuration</text>
<text text-anchor="middle" x="1645" y="-63.5" font-family="Helvetica,sans-Serif" font-size="10.00">Interface.h</text>
</g>
<!-- Node15&#45;&gt;Node19 -->
<g id="edge19" class="edge"><title>Node15&#45;&gt;Node19</title>
<path fill="none" stroke="midnightblue" d="M1173.82,-246.675C1255.8,-240.737 1431.64,-225.294 1486,-199 1530.15,-177.645 1527.39,-153.234 1566,-123 1580.33,-111.781 1597.21,-100.73 1611.68,-91.8395"/>
<polygon fill="midnightblue" stroke="midnightblue" points="1613.59,-94.7737 1620.33,-86.6011 1609.97,-88.7853 1613.59,-94.7737"/>
</g>
<!-- Node20 -->
<g id="node20" class="node"><title>Node20</title>
<g id="a_node20"><a xlink:href="Activity_8h.html" target="_top" xlink:title="QualityControl/Activity.h">
<polygon fill="none" stroke="black" points="786.5,-179.5 786.5,-198.5 909.5,-198.5 909.5,-179.5 786.5,-179.5"/>
<text text-anchor="middle" x="848" y="-186.5" font-family="Helvetica,sans-Serif" font-size="10.00">QualityControl/Activity.h</text>
</a>
</g>
</g>
<!-- Node15&#45;&gt;Node20 -->
<g id="edge20" class="edge"><title>Node15&#45;&gt;Node20</title>
<path fill="none" stroke="midnightblue" d="M1090.45,-240.975C1039.81,-230.327 953.158,-212.109 898.324,-200.581"/>
<polygon fill="midnightblue" stroke="midnightblue" points="898.978,-197.142 888.472,-198.509 897.538,-203.992 898.978,-197.142"/>
</g>
<!-- Node21 -->
<g id="node21" class="node"><title>Node21</title>
<g id="a_node21"><a xlink:href="ObjectsManager_8h.html" target="_top" xlink:title="QualityControl/ObjectsManager.h">
<polygon fill="none" stroke="black" points="927.5,-179.5 927.5,-198.5 1088.5,-198.5 1088.5,-179.5 927.5,-179.5"/>
<text text-anchor="middle" x="1008" y="-186.5" font-family="Helvetica,sans-Serif" font-size="10.00">QualityControl/ObjectsManager.h</text>
</a>
</g>
</g>
<!-- Node15&#45;&gt;Node21 -->
<g id="edge21" class="edge"><title>Node15&#45;&gt;Node21</title>
<path fill="none" stroke="midnightblue" d="M1113.38,-240.975C1092.83,-231.034 1058.64,-214.495 1034.79,-202.961"/>
<polygon fill="midnightblue" stroke="midnightblue" points="1036.12,-199.713 1025.59,-198.509 1033.07,-206.015 1036.12,-199.713"/>
</g>
<!-- Node22 -->
<g id="node22" class="node"><title>Node22</title>
<g id="a_node22"><a xlink:href="MonitorObject_8h.html" target="_top" xlink:title="QualityControl/MonitorObject.h">
<polygon fill="none" stroke="black" points="502.5,-123.5 502.5,-142.5 653.5,-142.5 653.5,-123.5 502.5,-123.5"/>
<text text-anchor="middle" x="578" y="-130.5" font-family="Helvetica,sans-Serif" font-size="10.00">QualityControl/MonitorObject.h</text>
</a>
</g>
</g>
<!-- Node21&#45;&gt;Node22 -->
<g id="edge22" class="edge"><title>Node21&#45;&gt;Node22</title>
<path fill="none" stroke="midnightblue" d="M939.865,-179.444C862.651,-169.747 737.028,-153.971 655.965,-143.791"/>
<polygon fill="midnightblue" stroke="midnightblue" points="656.174,-140.29 645.816,-142.516 655.302,-147.235 656.174,-140.29"/>
</g>
<!-- Node25 -->
<g id="node25" class="node"><title>Node25</title>
<g id="a_node25"><a xlink:href="Quality_8h.html" target="_top" xlink:title="QualityControl/Quality.h">
<polygon fill="none" stroke="black" points="632.5,-62 632.5,-81 753.5,-81 753.5,-62 632.5,-62"/>
<text text-anchor="middle" x="693" y="-69" font-family="Helvetica,sans-Serif" font-size="10.00">QualityControl/Quality.h</text>
</a>
</g>
</g>
<!-- Node21&#45;&gt;Node25 -->
<g id="edge31" class="edge"><title>Node21&#45;&gt;Node25</title>
<path fill="none" stroke="midnightblue" d="M952.2,-179.488C912.933,-172.425 859.634,-160.648 815,-143 777.244,-128.071 737.165,-102.868 713.645,-86.9865"/>
<polygon fill="midnightblue" stroke="midnightblue" points="715.426,-83.9642 705.198,-81.2008 711.47,-89.7394 715.426,-83.9642"/>
</g>
<!-- Node27 -->
<g id="node27" class="node"><title>Node27</title>
<polygon fill="none" stroke="#bfbfbf" points="1351.5,-0.5 1351.5,-19.5 1392.5,-19.5 1392.5,-0.5 1351.5,-0.5"/>
<text text-anchor="middle" x="1372" y="-7.5" font-family="Helvetica,sans-Serif" font-size="10.00">string</text>
</g>
<!-- Node21&#45;&gt;Node27 -->
<g id="edge45" class="edge"><title>Node21&#45;&gt;Node27</title>
<path fill="none" stroke="midnightblue" d="M1048.8,-179.454C1075.48,-172.55 1110.21,-160.973 1137,-143 1179.88,-114.23 1170.3,-83.5105 1214,-56 1253.75,-30.9762 1307.74,-19.5257 1341.2,-14.5406"/>
<polygon fill="midnightblue" stroke="midnightblue" points="1341.87,-17.9807 1351.3,-13.1403 1340.91,-11.047 1341.87,-17.9807"/>
</g>
<!-- Node28 -->
<g id="node28" class="node"><title>Node28</title>
<g id="a_node28"><a xlink:href="TaskConfig_8h.html" target="_top" xlink:title="QualityControl/TaskConfig.h">
<polygon fill="none" stroke="black" points="1575,-123.5 1575,-142.5 1715,-142.5 1715,-123.5 1575,-123.5"/>
<text text-anchor="middle" x="1645" y="-130.5" font-family="Helvetica,sans-Serif" font-size="10.00">QualityControl/TaskConfig.h</text>
</a>
</g>
</g>
<!-- Node21&#45;&gt;Node28 -->
<g id="edge32" class="edge"><title>Node21&#45;&gt;Node28</title>
<path fill="none" stroke="midnightblue" d="M1088.52,-179.789C1091.38,-179.519 1094.22,-179.255 1097,-179 1263.22,-163.772 1458.04,-148.352 1564.84,-140.107"/>
<polygon fill="midnightblue" stroke="midnightblue" points="1565.19,-143.59 1574.89,-139.332 1564.65,-136.611 1565.19,-143.59"/>
</g>
<!-- Node29 -->
<g id="node29" class="node"><title>Node29</title>
<g id="a_node29"><a xlink:href="ServiceDiscovery_8h_source.html" target="_top" xlink:title="QualityControl/ServiceDiscovery.h">
<polygon fill="none" stroke="black" points="1283.5,-123.5 1283.5,-142.5 1450.5,-142.5 1450.5,-123.5 1283.5,-123.5"/>
<text text-anchor="middle" x="1367" y="-130.5" font-family="Helvetica,sans-Serif" font-size="10.00">QualityControl/ServiceDiscovery.h</text>
</a>
</g>
</g>
<!-- Node21&#45;&gt;Node29 -->
<g id="edge35" class="edge"><title>Node21&#45;&gt;Node29</title>
<path fill="none" stroke="midnightblue" d="M1064.88,-179.444C1128.82,-169.826 1232.52,-154.228 1300.25,-144.041"/>
<polygon fill="midnightblue" stroke="midnightblue" points="1301.01,-147.465 1310.38,-142.516 1299.97,-140.543 1301.01,-147.465"/>
</g>
<!-- Node34 -->
<g id="node34" class="node"><title>Node34</title>
<polygon fill="none" stroke="#bfbfbf" points="970.5,-123.5 970.5,-142.5 1039.5,-142.5 1039.5,-123.5 970.5,-123.5"/>
<text text-anchor="middle" x="1005" y="-130.5" font-family="Helvetica,sans-Serif" font-size="10.00">TObjArray.h</text>
</g>
<!-- Node21&#45;&gt;Node34 -->
<g id="edge42" class="edge"><title>Node21&#45;&gt;Node34</title>
<path fill="none" stroke="midnightblue" d="M1007.5,-179.083C1007.11,-172.006 1006.55,-161.861 1006.05,-152.986"/>
<polygon fill="midnightblue" stroke="midnightblue" points="1009.54,-152.542 1005.49,-142.751 1002.55,-152.93 1009.54,-152.542"/>
</g>
<!-- Node35 -->
<g id="node35" class="node"><title>Node35</title>
<polygon fill="none" stroke="#bfbfbf" points="1057.5,-123.5 1057.5,-142.5 1128.5,-142.5 1128.5,-123.5 1057.5,-123.5"/>
<text text-anchor="middle" x="1093" y="-130.5" font-family="Helvetica,sans-Serif" font-size="10.00">TObjString.h</text>
</g>
<!-- Node21&#45;&gt;Node35 -->
<g id="edge43" class="edge"><title>Node21&#45;&gt;Node35</title>
<path fill="none" stroke="midnightblue" d="M1021.66,-179.324C1034.92,-170.9 1055.27,-157.971 1070.85,-148.074"/>
<polygon fill="midnightblue" stroke="midnightblue" points="1072.81,-150.971 1079.38,-142.655 1069.06,-145.063 1072.81,-150.971"/>
</g>
<!-- Node36 -->
<g id="node36" class="node"><title>Node36</title>
<polygon fill="none" stroke="#bfbfbf" points="824,-123.5 824,-142.5 952,-142.5 952,-123.5 824,-123.5"/>
<text text-anchor="middle" x="888" y="-130.5" font-family="Helvetica,sans-Serif" font-size="10.00">boost/concept_check.hpp</text>
</g>
<!-- Node21&#45;&gt;Node36 -->
<g id="edge44" class="edge"><title>Node21&#45;&gt;Node36</title>
<path fill="none" stroke="midnightblue" d="M988.986,-179.444C969.412,-170.636 938.692,-156.812 916.271,-146.722"/>
<polygon fill="midnightblue" stroke="midnightblue" points="917.481,-143.428 906.925,-142.516 914.608,-149.812 917.481,-143.428"/>
</g>
<!-- Node22&#45;&gt;Node3 -->
<g id="edge23" class="edge"><title>Node22&#45;&gt;Node3</title>
<path fill="none" stroke="midnightblue" d="M540.032,-123.475C489.287,-112.082 399.944,-92.0215 349.8,-80.7627"/>
<polygon fill="midnightblue" stroke="midnightblue" points="350.544,-77.3426 340.02,-78.5667 349.01,-84.1725 350.544,-77.3426"/>
</g>
<!-- Node22&#45;&gt;Node5 -->
<g id="edge26" class="edge"><title>Node22&#45;&gt;Node5</title>
<path fill="none" stroke="midnightblue" d="M561.667,-123.475C542.789,-113.622 511.493,-97.2883 489.424,-85.7697"/>
<polygon fill="midnightblue" stroke="midnightblue" points="490.788,-82.5333 480.303,-81.0091 487.549,-88.7389 490.788,-82.5333"/>
</g>
<!-- Node23 -->
<g id="node23" class="node"><title>Node23</title>
<polygon fill="none" stroke="#bfbfbf" points="540.5,-62 540.5,-81 575.5,-81 575.5,-62 540.5,-62"/>
<text text-anchor="middle" x="558" y="-69" font-family="Helvetica,sans-Serif" font-size="10.00">map</text>
</g>
<!-- Node22&#45;&gt;Node23 -->
<g id="edge24" class="edge"><title>Node22&#45;&gt;Node23</title>
<path fill="none" stroke="midnightblue" d="M575.134,-123.475C572.283,-114.992 567.817,-101.704 564.159,-90.8222"/>
<polygon fill="midnightblue" stroke="midnightblue" points="567.364,-89.3727 560.86,-81.0091 560.729,-91.6031 567.364,-89.3727"/>
</g>
<!-- Node24 -->
<g id="node24" class="node"><title>Node24</title>
<polygon fill="none" stroke="#bfbfbf" points="581.5,-0.5 581.5,-19.5 640.5,-19.5 640.5,-0.5 581.5,-0.5"/>
<text text-anchor="middle" x="611" y="-7.5" font-family="Helvetica,sans-Serif" font-size="10.00">TObject.h</text>
</g>
<!-- Node22&#45;&gt;Node24 -->
<g id="edge25" class="edge"><title>Node22&#45;&gt;Node24</title>
<path fill="none" stroke="midnightblue" d="M580.373,-123.298C585.701,-103.763 598.71,-56.0646 605.942,-29.5471"/>
<polygon fill="midnightblue" stroke="midnightblue" points="609.394,-30.1917 608.648,-19.6232 602.64,-28.3499 609.394,-30.1917"/>
</g>
<!-- Node22&#45;&gt;Node25 -->
<g id="edge27" class="edge"><title>Node22&#45;&gt;Node25</title>
<path fill="none" stroke="midnightblue" d="M594.477,-123.475C613.605,-113.578 645.373,-97.1416 667.652,-85.6151"/>
<polygon fill="midnightblue" stroke="midnightblue" points="669.281,-88.713 676.554,-81.0091 666.064,-82.4958 669.281,-88.713"/>
</g>
<!-- Node25&#45;&gt;Node24 -->
<g id="edge28" class="edge"><title>Node25&#45;&gt;Node24</title>
<path fill="none" stroke="midnightblue" d="M681.251,-61.9751C668.221,-52.5199 646.964,-37.0961 631.241,-25.6871"/>
<polygon fill="midnightblue" stroke="midnightblue" points="632.876,-22.5492 622.727,-19.5091 628.765,-28.2149 632.876,-22.5492"/>
</g>
<!-- Node26 -->
<g id="node26" class="node"><title>Node26</title>
<polygon fill="none" stroke="#bfbfbf" points="667,-0.5 667,-19.5 719,-19.5 719,-0.5 667,-0.5"/>
<text text-anchor="middle" x="693" y="-7.5" font-family="Helvetica,sans-Serif" font-size="10.00">ostream</text>
</g>
<!-- Node25&#45;&gt;Node26 -->
<g id="edge29" class="edge"><title>Node25&#45;&gt;Node26</title>
<path fill="none" stroke="midnightblue" d="M693,-61.9751C693,-53.5803 693,-40.4806 693,-29.6631"/>
<polygon fill="midnightblue" stroke="midnightblue" points="696.5,-29.5091 693,-19.5091 689.5,-29.5091 696.5,-29.5091"/>
</g>
<!-- Node25&#45;&gt;Node27 -->
<g id="edge30" class="edge"><title>Node25&#45;&gt;Node27</title>
<path fill="none" stroke="midnightblue" d="M753.555,-65.1936C893.724,-52.9108 1236.5,-22.8734 1341.15,-13.703"/>
<polygon fill="midnightblue" stroke="midnightblue" points="1341.69,-17.1691 1351.35,-12.8095 1341.08,-10.1959 1341.69,-17.1691"/>
</g>
<!-- Node28&#45;&gt;Node19 -->
<g id="edge34" class="edge"><title>Node28&#45;&gt;Node19</title>
<path fill="none" stroke="midnightblue" d="M1645,-123.475C1645,-116.471 1645,-106.192 1645,-96.6956"/>
<polygon fill="midnightblue" stroke="midnightblue" points="1648.5,-96.5229 1645,-86.523 1641.5,-96.523 1648.5,-96.5229"/>
</g>
<!-- Node28&#45;&gt;Node27 -->
<g id="edge33" class="edge"><title>Node28&#45;&gt;Node27</title>
<path fill="none" stroke="midnightblue" d="M1673.02,-123.397C1690.17,-116.515 1710.75,-104.984 1721,-87 1727.82,-75.0304 1730.1,-66.3466 1721,-56 1700.1,-32.2357 1484.41,-17.4612 1402.94,-12.6917"/>
<polygon fill="midnightblue" stroke="midnightblue" points="1402.99,-9.18899 1392.8,-12.1099 1402.59,-16.1775 1402.99,-9.18899"/>
</g>
<!-- Node29&#45;&gt;Node2 -->
<g id="edge38" class="edge"><title>Node29&#45;&gt;Node2</title>
<path fill="none" stroke="midnightblue" d="M1310.84,-123.475C1229.08,-111.066 1079.6,-88.3767 1011.07,-77.9743"/>
<polygon fill="midnightblue" stroke="midnightblue" points="1011.58,-74.5128 1001.17,-76.4724 1010.53,-81.4336 1011.58,-74.5128"/>
</g>
<!-- Node29&#45;&gt;Node27 -->
<g id="edge39" class="edge"><title>Node29&#45;&gt;Node27</title>
<path fill="none" stroke="midnightblue" d="M1425.52,-123.431C1466.87,-116.038 1517.15,-103.876 1530,-87 1565.51,-40.3576 1458.17,-20.8808 1402.82,-14.0937"/>
<polygon fill="midnightblue" stroke="midnightblue" points="1403.15,-10.609 1392.81,-12.9357 1402.35,-17.5626 1403.15,-10.609"/>
</g>
<!-- Node30 -->
<g id="node30" class="node"><title>Node30</title>
<polygon fill="none" stroke="#bfbfbf" points="1475,-62 1475,-81 1521,-81 1521,-62 1475,-62"/>
<text text-anchor="middle" x="1498" y="-69" font-family="Helvetica,sans-Serif" font-size="10.00">atomic</text>
</g>
<!-- Node29&#45;&gt;Node30 -->
<g id="edge36" class="edge"><title>Node29&#45;&gt;Node30</title>
<path fill="none" stroke="midnightblue" d="M1385.77,-123.475C1407.85,-113.445 1444.72,-96.7002 1470.14,-85.1546"/>
<polygon fill="midnightblue" stroke="midnightblue" points="1471.61,-88.3313 1479.27,-81.0091 1468.71,-81.9579 1471.61,-88.3313"/>
</g>
<!-- Node31 -->
<g id="node31" class="node"><title>Node31</title>
<polygon fill="none" stroke="#bfbfbf" points="1223.5,-62 1223.5,-81 1282.5,-81 1282.5,-62 1223.5,-62"/>
<text text-anchor="middle" x="1253" y="-69" font-family="Helvetica,sans-Serif" font-size="10.00">curl/curl.h</text>
</g>
<!-- Node29&#45;&gt;Node31 -->
<g id="edge37" class="edge"><title>Node29&#45;&gt;Node31</title>
<path fill="none" stroke="midnightblue" d="M1350.67,-123.475C1331.79,-113.622 1300.49,-97.2883 1278.42,-85.7697"/>
<polygon fill="midnightblue" stroke="midnightblue" points="1279.79,-82.5333 1269.3,-81.0091 1276.55,-88.7389 1279.79,-82.5333"/>
</g>
<!-- Node32 -->
<g id="node32" class="node"><title>Node32</title>
<polygon fill="none" stroke="#bfbfbf" points="1301,-62 1301,-81 1345,-81 1345,-62 1301,-62"/>
<text text-anchor="middle" x="1323" y="-69" font-family="Helvetica,sans-Serif" font-size="10.00">thread</text>
</g>
<!-- Node29&#45;&gt;Node32 -->
<g id="edge40" class="edge"><title>Node29&#45;&gt;Node32</title>
<path fill="none" stroke="midnightblue" d="M1360.7,-123.475C1354.1,-114.55 1343.56,-100.307 1335.31,-89.1425"/>
<polygon fill="midnightblue" stroke="midnightblue" points="1338.05,-86.9684 1329.29,-81.0091 1332.42,-91.1305 1338.05,-86.9684"/>
</g>
<!-- Node33 -->
<g id="node33" class="node"><title>Node33</title>
<polygon fill="none" stroke="#bfbfbf" points="1363,-56.5 1363,-86.5 1457,-86.5 1457,-56.5 1363,-56.5"/>
<text text-anchor="start" x="1371" y="-74.5" font-family="Helvetica,sans-Serif" font-size="10.00">boost/asio/ip/host</text>
<text text-anchor="middle" x="1410" y="-63.5" font-family="Helvetica,sans-Serif" font-size="10.00">_name.hpp</text>
</g>
<!-- Node29&#45;&gt;Node33 -->
<g id="edge41" class="edge"><title>Node29&#45;&gt;Node33</title>
<path fill="none" stroke="midnightblue" d="M1373.16,-123.475C1378.55,-116.019 1386.62,-104.852 1393.83,-94.8685"/>
<polygon fill="midnightblue" stroke="midnightblue" points="1396.85,-96.6781 1399.87,-86.523 1391.17,-92.5779 1396.85,-96.6781"/>
</g>
<!-- Node38&#45;&gt;Node2 -->
<g id="edge50" class="edge"><title>Node38&#45;&gt;Node2</title>
<path fill="none" stroke="midnightblue" d="M1379.88,-363.937C1368.76,-361.973 1356.97,-359.903 1346,-358 1206.97,-333.881 720,-392.61 720,-251.5 720,-251.5 720,-251.5 720,-188 720,-93.2341 867.94,-75.8227 938.454,-72.9061"/>
<polygon fill="midnightblue" stroke="midnightblue" points="938.794,-76.3968 948.671,-72.563 938.559,-69.4007 938.794,-76.3968"/>
</g>
<!-- Node38&#45;&gt;Node3 -->
<g id="edge49" class="edge"><title>Node38&#45;&gt;Node3</title>
<path fill="none" stroke="midnightblue" d="M1386.02,-363.976C1373.22,-361.675 1359.08,-359.43 1346,-358 1252.91,-347.825 587.056,-365.248 504,-322 452.749,-295.313 355.524,-141.937 323.512,-89.8241"/>
<polygon fill="midnightblue" stroke="midnightblue" points="326.364,-87.78 318.164,-81.071 320.391,-91.4293 326.364,-87.78"/>
</g>
<!-- Node38&#45;&gt;Node5 -->
<g id="edge56" class="edge"><title>Node38&#45;&gt;Node5</title>
<path fill="none" stroke="midnightblue" d="M1385.59,-363.954C1372.9,-361.681 1358.93,-359.457 1346,-358 1184.82,-339.843 774.006,-362.708 617,-322 548.408,-304.216 474,-322.36 474,-251.5 474,-251.5 474,-251.5 474,-188 474,-153.736 469.578,-113.967 466.615,-91.1662"/>
<polygon fill="midnightblue" stroke="midnightblue" points="470.072,-90.6134 465.267,-81.1712 463.135,-91.5494 470.072,-90.6134"/>
</g>
<!-- Node38&#45;&gt;Node14 -->
<g id="edge54" class="edge"><title>Node38&#45;&gt;Node14</title>
<path fill="none" stroke="midnightblue" d="M1386.02,-363.945C1373.22,-361.643 1359.08,-359.405 1346,-358 937.371,-314.117 831.959,-350.921 422,-322 421.062,-321.934 420.118,-321.866 419.169,-321.796"/>
<polygon fill="midnightblue" stroke="midnightblue" points="419.11,-318.28 408.865,-320.98 418.558,-325.258 419.11,-318.28"/>
</g>
<!-- Node38&#45;&gt;Node28 -->
<g id="edge55" class="edge"><title>Node38&#45;&gt;Node28</title>
<path fill="none" stroke="midnightblue" d="M1407.34,-363.864C1381.65,-351.782 1342.9,-328.335 1358,-302 1372.85,-276.102 1551.04,-182.391 1618.95,-147.347"/>
<polygon fill="midnightblue" stroke="midnightblue" points="1620.84,-150.307 1628.13,-142.617 1617.64,-144.083 1620.84,-150.307"/>
</g>
<!-- Node39 -->
<g id="node39" class="node"><title>Node39</title>
<polygon fill="none" stroke="#bfbfbf" points="1367,-302.5 1367,-321.5 1423,-321.5 1423,-302.5 1367,-302.5"/>
<text text-anchor="middle" x="1395" y="-309.5" font-family="Helvetica,sans-Serif" font-size="10.00">TClass.h</text>
</g>
<!-- Node38&#45;&gt;Node39 -->
<g id="edge51" class="edge"><title>Node38&#45;&gt;Node39</title>
<path fill="none" stroke="midnightblue" d="M1423.27,-363.975C1418.42,-355.227 1410.73,-341.369 1404.6,-330.309"/>
<polygon fill="midnightblue" stroke="midnightblue" points="1407.63,-328.557 1399.72,-321.509 1401.51,-331.952 1407.63,-328.557"/>
</g>
<!-- Node40 -->
<g id="node40" class="node"><title>Node40</title>
<polygon fill="none" stroke="#bfbfbf" points="1441.5,-302.5 1441.5,-321.5 1500.5,-321.5 1500.5,-302.5 1441.5,-302.5"/>
<text text-anchor="middle" x="1471" y="-309.5" font-family="Helvetica,sans-Serif" font-size="10.00">TROOT.h</text>
</g>
<!-- Node38&#45;&gt;Node40 -->
<g id="edge52" class="edge"><title>Node38&#45;&gt;Node40</title>
<path fill="none" stroke="midnightblue" d="M1434.16,-363.975C1440.61,-355.05 1450.9,-340.807 1458.97,-329.643"/>
<polygon fill="midnightblue" stroke="midnightblue" points="1461.83,-331.664 1464.85,-321.509 1456.16,-327.564 1461.83,-331.664"/>
</g>
<!-- Node41 -->
<g id="node41" class="node"><title>Node41</title>
<polygon fill="none" stroke="#bfbfbf" points="626.5,-302.5 626.5,-321.5 691.5,-321.5 691.5,-302.5 626.5,-302.5"/>
<text text-anchor="middle" x="659" y="-309.5" font-family="Helvetica,sans-Serif" font-size="10.00">TSystem.h</text>
</g>
<!-- Node38&#45;&gt;Node41 -->
<g id="edge53" class="edge"><title>Node38&#45;&gt;Node41</title>
<path fill="none" stroke="midnightblue" d="M1385.16,-363.934C1372.59,-361.689 1358.78,-359.484 1346,-358 1063.01,-325.138 988.752,-356.867 706,-322 704.531,-321.819 703.039,-321.619 701.535,-321.405"/>
<polygon fill="midnightblue" stroke="midnightblue" points="701.954,-317.928 691.527,-319.81 700.852,-324.84 701.954,-317.928"/>
</g>
<!-- Node42&#45;&gt;Node13 -->
<g id="edge66" class="edge"><title>Node42&#45;&gt;Node13</title>
<path fill="none" stroke="midnightblue" d="M1840.3,-302.475C1782.85,-291.761 1684.32,-273.382 1622.58,-261.866"/>
<polygon fill="midnightblue" stroke="midnightblue" points="1623.09,-258.402 1612.62,-260.009 1621.81,-265.283 1623.09,-258.402"/>
</g>
<!-- Node42&#45;&gt;Node15 -->
<g id="edge69" class="edge"><title>Node42&#45;&gt;Node15</title>
<path fill="none" stroke="midnightblue" d="M1814.29,-305.349C1663.59,-293.472 1316.99,-266.158 1184.15,-255.689"/>
<polygon fill="midnightblue" stroke="midnightblue" points="1184.08,-252.173 1173.84,-254.876 1183.53,-259.151 1184.08,-252.173"/>
</g>
<!-- Node42&#45;&gt;Node19 -->
<g id="edge67" class="edge"><title>Node42&#45;&gt;Node19</title>
<path fill="none" stroke="midnightblue" d="M1833.96,-302.471C1810.31,-296.106 1783.72,-285.068 1766,-266 1720.9,-217.481 1763.76,-175.978 1724,-123 1714.3,-110.078 1700.25,-99.5841 1686.67,-91.5787"/>
<polygon fill="midnightblue" stroke="midnightblue" points="1688.31,-88.4855 1677.87,-86.6768 1684.91,-94.6008 1688.31,-88.4855"/>
</g>
<!-- Node42&#45;&gt;Node28 -->
<g id="edge68" class="edge"><title>Node42&#45;&gt;Node28</title>
<path fill="none" stroke="midnightblue" d="M1821.98,-302.425C1792.71,-296.061 1758.87,-285.036 1733,-266 1692.09,-235.891 1664.45,-180.651 1652.19,-152.119"/>
<polygon fill="midnightblue" stroke="midnightblue" points="1655.31,-150.502 1648.25,-142.6 1648.84,-153.179 1655.31,-150.502"/>
</g>
<!-- Node42&#45;&gt;Node29 -->
<g id="edge70" class="edge"><title>Node42&#45;&gt;Node29</title>
<path fill="none" stroke="midnightblue" d="M1829.19,-302.472C1791.28,-295.553 1740.9,-283.951 1699,-266 1675.66,-255.998 1673.44,-246.892 1651,-235 1594.69,-205.158 1578.98,-200.524 1519,-179 1482.58,-165.93 1440.31,-153.642 1409.61,-145.22"/>
<polygon fill="midnightblue" stroke="midnightblue" points="1410.23,-141.763 1399.66,-142.517 1408.4,-148.518 1410.23,-141.763"/>
</g>
<!-- Node43 -->
<g id="node43" class="node"><title>Node43</title>
<polygon fill="none" stroke="#bfbfbf" points="1775,-235.5 1775,-265.5 1877,-265.5 1877,-235.5 1775,-235.5"/>
<text text-anchor="start" x="1783" y="-253.5" font-family="Helvetica,sans-Serif" font-size="10.00">boost/accumulators</text>
<text text-anchor="middle" x="1826" y="-242.5" font-family="Helvetica,sans-Serif" font-size="10.00">/accumulators.hpp</text>
</g>
<!-- Node42&#45;&gt;Node43 -->
<g id="edge58" class="edge"><title>Node42&#45;&gt;Node43</title>
<path fill="none" stroke="midnightblue" d="M1877.4,-302.475C1869.58,-294.718 1857.71,-282.943 1847.34,-272.665"/>
<polygon fill="midnightblue" stroke="midnightblue" points="1849.71,-270.079 1840.14,-265.523 1844.78,-275.05 1849.71,-270.079"/>
</g>
<!-- Node44 -->
<g id="node44" class="node"><title>Node44</title>
<polygon fill="none" stroke="#bfbfbf" points="1895,-235.5 1895,-265.5 1997,-265.5 1997,-235.5 1895,-235.5"/>
<text text-anchor="start" x="1903" y="-253.5" font-family="Helvetica,sans-Serif" font-size="10.00">boost/accumulators</text>
<text text-anchor="middle" x="1946" y="-242.5" font-family="Helvetica,sans-Serif" font-size="10.00">/statistics.hpp</text>
</g>
<!-- Node42&#45;&gt;Node44 -->
<g id="edge59" class="edge"><title>Node42&#45;&gt;Node44</title>
<path fill="none" stroke="midnightblue" d="M1894.6,-302.475C1902.42,-294.718 1914.29,-282.943 1924.66,-272.665"/>
<polygon fill="midnightblue" stroke="midnightblue" points="1927.22,-275.05 1931.86,-265.523 1922.29,-270.079 1927.22,-275.05"/>
</g>
<!-- Node45 -->
<g id="node45" class="node"><title>Node45</title>
<polygon fill="none" stroke="#bfbfbf" points="2015,-241 2015,-260 2095,-260 2095,-241 2015,-241"/>
<text text-anchor="middle" x="2055" y="-248" font-family="Helvetica,sans-Serif" font-size="10.00">boost/asio.hpp</text>
</g>
<!-- Node42&#45;&gt;Node45 -->
<g id="edge60" class="edge"><title>Node42&#45;&gt;Node45</title>
<path fill="none" stroke="midnightblue" d="M1910.21,-302.475C1939.33,-292.225 1988.37,-274.959 2021.2,-263.399"/>
<polygon fill="midnightblue" stroke="midnightblue" points="2022.56,-266.631 2030.83,-260.009 2020.24,-260.029 2022.56,-266.631"/>
</g>
<!-- Node46 -->
<g id="node46" class="node"><title>Node46</title>
<polygon fill="none" stroke="#bfbfbf" points="2113,-235.5 2113,-265.5 2213,-265.5 2213,-235.5 2113,-235.5"/>
<text text-anchor="start" x="2121" y="-253.5" font-family="Helvetica,sans-Serif" font-size="10.00">boost/serialization</text>
<text text-anchor="middle" x="2163" y="-242.5" font-family="Helvetica,sans-Serif" font-size="10.00">/array_wrapper.hpp</text>
</g>
<!-- Node42&#45;&gt;Node46 -->
<g id="edge61" class="edge"><title>Node42&#45;&gt;Node46</title>
<path fill="none" stroke="midnightblue" d="M1929.95,-302.43C1971.89,-294.138 2037.12,-280.955 2102.72,-266.245"/>
<polygon fill="midnightblue" stroke="midnightblue" points="2103.83,-269.581 2112.82,-263.968 2102.29,-262.753 2103.83,-269.581"/>
</g>
<!-- Node47 -->
<g id="node47" class="node"><title>Node47</title>
<polygon fill="none" stroke="#bfbfbf" points="2231,-241 2231,-260 2323,-260 2323,-241 2231,-241"/>
<text text-anchor="middle" x="2277" y="-248" font-family="Helvetica,sans-Serif" font-size="10.00">Common/Timer.h</text>
</g>
<!-- Node42&#45;&gt;Node47 -->
<g id="edge62" class="edge"><title>Node42&#45;&gt;Node47</title>
<path fill="none" stroke="midnightblue" d="M1957.54,-304.032C2025.86,-296.764 2131.5,-283.917 2222,-266 2227.08,-264.995 2232.38,-263.794 2237.6,-262.519"/>
<polygon fill="midnightblue" stroke="midnightblue" points="2238.64,-265.866 2247.47,-260.008 2236.92,-259.082 2238.64,-265.866"/>
</g>
<!-- Node48 -->
<g id="node48" class="node"><title>Node48</title>
<polygon fill="none" stroke="#bfbfbf" points="2341,-241 2341,-260 2439,-260 2439,-241 2341,-241"/>
<text text-anchor="middle" x="2390" y="-248" font-family="Helvetica,sans-Serif" font-size="10.00">Framework/Task.h</text>
</g>
<!-- Node42&#45;&gt;Node48 -->
<g id="edge63" class="edge"><title>Node42&#45;&gt;Node48</title>
<path fill="none" stroke="midnightblue" d="M1957.89,-306.953C2046.4,-301.234 2201.09,-288.844 2332,-266 2337.76,-264.994 2343.8,-263.728 2349.71,-262.365"/>
<polygon fill="midnightblue" stroke="midnightblue" points="2350.57,-265.758 2359.47,-260.009 2348.93,-258.954 2350.57,-265.758"/>
</g>
<!-- Node49 -->
<g id="node49" class="node"><title>Node49</title>
<polygon fill="none" stroke="#bfbfbf" points="2457,-241 2457,-260 2621,-260 2621,-241 2457,-241"/>
<text text-anchor="middle" x="2539" y="-248" font-family="Helvetica,sans-Serif" font-size="10.00">Framework/DataProcessorSpec.h</text>
</g>
<!-- Node42&#45;&gt;Node49 -->
<g id="edge64" class="edge"><title>Node42&#45;&gt;Node49</title>
<path fill="none" stroke="midnightblue" d="M1957.59,-307.064C2064.56,-300.777 2272.33,-286.996 2448,-266 2458.35,-264.763 2469.33,-263.216 2479.95,-261.597"/>
<polygon fill="midnightblue" stroke="midnightblue" points="2480.64,-265.031 2489.98,-260.03 2479.56,-258.115 2480.64,-265.031"/>
</g>
<!-- Node50 -->
<g id="node50" class="node"><title>Node50</title>
<polygon fill="none" stroke="#bfbfbf" points="2639.5,-241 2639.5,-260 2792.5,-260 2792.5,-241 2639.5,-241"/>
<text text-anchor="middle" x="2716" y="-248" font-family="Helvetica,sans-Serif" font-size="10.00">Framework/CompletionPolicy.h</text>
</g>
<!-- Node42&#45;&gt;Node50 -->
<g id="edge65" class="edge"><title>Node42&#45;&gt;Node50</title>
<path fill="none" stroke="midnightblue" d="M1957.52,-309.21C2090.38,-305.321 2384.12,-294.084 2630,-266 2640.04,-264.853 2650.69,-263.319 2660.95,-261.676"/>
<polygon fill="midnightblue" stroke="midnightblue" points="2661.75,-265.092 2671.05,-260.009 2660.61,-258.186 2661.75,-265.092"/>
</g>
</g>
</svg>
        <g id="navigator" transform="translate(0 0)" fill="#404254">
                <rect fill="#f2f5e9" fill-opacity="0.5" stroke="#606060" stroke-width=".5" x="0" y="0" width="60" height="60"/>
                <use id="zoomplus" xlink:href="#zoomPlus" x="17" y="9" onmousedown="handleZoom(evt,'in')"/>
                <use id="zoomminus" xlink:href="#zoomMin" x="42" y="9" onmousedown="handleZoom(evt,'out')"/>
                <use id="reset" xlink:href="#resetDef" x="30" y="36" onmousedown="handleReset()"/>
                <g id="arrowUp" xlink:href="#dirArrow" transform="translate(30 24)" onmousedown="handlePan(0,-1)">
                  <use xlink:href="#rim" fill="#404040">
                        <set attributeName="fill" to="#808080" begin="arrowUp.mouseover" end="arrowUp.mouseout"/>
                  </use>
                  <path fill="none" stroke="white" stroke-width="1.5" d="M0,-3.0v7 M-2.5,-0.5L0,-3.0L2.5,-0.5"/>
                </g>
                <g id="arrowRight" xlink:href="#dirArrow" transform="rotate(90) translate(36 -43)" onmousedown="handlePan(1,0)">
                  <use xlink:href="#rim" fill="#404040">
                        <set attributeName="fill" to="#808080" begin="arrowRight.mouseover" end="arrowRight.mouseout"/>
                  </use>
                  <path fill="none" stroke="white" stroke-width="1.5" d="M0,-3.0v7 M-2.5,-0.5L0,-3.0L2.5,-0.5"/>
                </g>
                <g id="arrowDown" xlink:href="#dirArrow" transform="rotate(180) translate(-30 -48)" onmousedown="handlePan(0,1)">
                  <use xlink:href="#rim" fill="#404040">
                        <set attributeName="fill" to="#808080" begin="arrowDown.mouseover" end="arrowDown.mouseout"/>
                  </use>
                  <path fill="none" stroke="white" stroke-width="1.5" d="M0,-3.0v7 M-2.5,-0.5L0,-3.0L2.5,-0.5"/>
                </g>
                <g id="arrowLeft" xlink:href="#dirArrow" transform="rotate(270) translate(-36 17)" onmousedown="handlePan(-1,0)">
                  <use xlink:href="#rim" fill="#404040">
                        <set attributeName="fill" to="#808080" begin="arrowLeft.mouseover" end="arrowLeft.mouseout"/>
                  </use>
                  <path fill="none" stroke="white" stroke-width="1.5" d="M0,-3.0v7 M-2.5,-0.5L0,-3.0L2.5,-0.5"/>
                </g>
        </g>
        <svg viewBox="0 0 15 15" width="100%" height="30px" preserveAspectRatio="xMaxYMin meet">
         <g id="arrow_out" transform="scale(0.3 0.3)">
          <a xlink:href="TaskRunner_8cxx__incl_org.svg" target="_base">
           <rect id="button" ry="5" rx="5" y="6" x="6" height="38" width="38"
                fill="#f2f5e9" fill-opacity="0.5" stroke="#606060" stroke-width="1.0"/>
           <path id="arrow"
             d="M 11.500037,31.436501 C 11.940474,20.09759 22.043105,11.32322 32.158766,21.979434 L 37.068811,17.246167 C 37.068811,17.246167 37.088388,32 37.088388,32 L 22.160133,31.978069 C 22.160133,31.978069 26.997745,27.140456 26.997745,27.140456 C 18.528582,18.264221 13.291696,25.230495 11.500037,31.436501 z"
             style="fill:#404040;"/>
          </a>
         </g>
        </svg>
</svg>
